<?xml version="1.0" encoding="utf-8" standalone="no"?>
<!DOCTYPE svg PUBLIC "-//W3C//DTD SVG 1.1//EN"
  "http://www.w3.org/Graphics/SVG/1.1/DTD/svg11.dtd">
<svg xmlns:xlink="http://www.w3.org/1999/xlink" width="417.788513pt" height="351.99625pt" viewBox="0 0 417.788513 351.99625" xmlns="http://www.w3.org/2000/svg" version="1.1">
 <metadata>
  <rdf:RDF xmlns:dc="http://purl.org/dc/elements/1.1/" xmlns:cc="http://creativecommons.org/ns#" xmlns:rdf="http://www.w3.org/1999/02/22-rdf-syntax-ns#">
   <cc:Work>
    <dc:type rdf:resource="http://purl.org/dc/dcmitype/StillImage"/>
    <dc:date>2024-11-20T11:16:23.818009</dc:date>
    <dc:format>image/svg+xml</dc:format>
    <dc:creator>
     <cc:Agent>
      <dc:title>Matplotlib v3.9.0, https://matplotlib.org/</dc:title>
     </cc:Agent>
    </dc:creator>
   </cc:Work>
  </rdf:RDF>
 </metadata>
 <defs>
  <style type="text/css">*{stroke-linejoin: round; stroke-linecap: butt}</style>
 </defs>
 <g id="figure_1">
  <g id="patch_1">
   <path d="M 0 351.99625 
L 417.788513 351.99625 
L 417.788513 0 
L 0 0 
z
" style="fill: #ffffff"/>
  </g>
  <g id="axes_1">
   <g id="patch_2">
    <path d="M 53.328125 314.44 
L 340.632013 314.44 
L 340.632013 7.2 
L 53.328125 7.2 
z
" style="fill: #ffffff"/>
   </g>
   <g id="PolyCollection_1"/>
   <g id="PolyCollection_2"/>
   <g id="PolyCollection_3"/>
   <g id="PolyCollection_4"/>
   <g id="matplotlib.axis_1">
    <g id="xtick_1">
     <g id="line2d_1">
      <defs>
       <path id="mae1a0f3adf" d="M 0 0 
L 0 3.5 
" style="stroke: #000000; stroke-width: 0.8"/>
      </defs>
      <g>
       <use xlink:href="#mae1a0f3adf" x="66.387393" y="314.44" style="stroke: #000000; stroke-width: 0.8"/>
      </g>
     </g>
     <g id="text_1">
      <!-- 0 -->
      <g transform="translate(63.206143 329.038437) scale(0.1 -0.1)">
       <defs>
        <path id="DejaVuSans-30" d="M 2034 4250 
Q 1547 4250 1301 3770 
Q 1056 3291 1056 2328 
Q 1056 1369 1301 889 
Q 1547 409 2034 409 
Q 2525 409 2770 889 
Q 3016 1369 3016 2328 
Q 3016 3291 2770 3770 
Q 2525 4250 2034 4250 
z
M 2034 4750 
Q 2819 4750 3233 4129 
Q 3647 3509 3647 2328 
Q 3647 1150 3233 529 
Q 2819 -91 2034 -91 
Q 1250 -91 836 529 
Q 422 1150 422 2328 
Q 422 3509 836 4129 
Q 1250 4750 2034 4750 
z
" transform="scale(0.015625)"/>
       </defs>
       <use xlink:href="#DejaVuSans-30"/>
      </g>
     </g>
    </g>
    <g id="xtick_2">
     <g id="line2d_2">
      <g>
       <use xlink:href="#mae1a0f3adf" x="99.035562" y="314.44" style="stroke: #000000; stroke-width: 0.8"/>
      </g>
     </g>
     <g id="text_2">
      <!-- 5000 -->
      <g transform="translate(86.310562 329.038437) scale(0.1 -0.1)">
       <defs>
        <path id="DejaVuSans-35" d="M 691 4666 
L 3169 4666 
L 3169 4134 
L 1269 4134 
L 1269 2991 
Q 1406 3038 1543 3061 
Q 1681 3084 1819 3084 
Q 2600 3084 3056 2656 
Q 3513 2228 3513 1497 
Q 3513 744 3044 326 
Q 2575 -91 1722 -91 
Q 1428 -91 1123 -41 
Q 819 9 494 109 
L 494 744 
Q 775 591 1075 516 
Q 1375 441 1709 441 
Q 2250 441 2565 725 
Q 2881 1009 2881 1497 
Q 2881 1984 2565 2268 
Q 2250 2553 1709 2553 
Q 1456 2553 1204 2497 
Q 953 2441 691 2322 
L 691 4666 
z
" transform="scale(0.015625)"/>
       </defs>
       <use xlink:href="#DejaVuSans-35"/>
       <use xlink:href="#DejaVuSans-30" x="63.623047"/>
       <use xlink:href="#DejaVuSans-30" x="127.246094"/>
       <use xlink:href="#DejaVuSans-30" x="190.869141"/>
      </g>
     </g>
    </g>
    <g id="xtick_3">
     <g id="line2d_3">
      <g>
       <use xlink:href="#mae1a0f3adf" x="131.683731" y="314.44" style="stroke: #000000; stroke-width: 0.8"/>
      </g>
     </g>
     <g id="text_3">
      <!-- 10000 -->
      <g transform="translate(115.777481 329.038437) scale(0.1 -0.1)">
       <defs>
        <path id="DejaVuSans-31" d="M 794 531 
L 1825 531 
L 1825 4091 
L 703 3866 
L 703 4441 
L 1819 4666 
L 2450 4666 
L 2450 531 
L 3481 531 
L 3481 0 
L 794 0 
L 794 531 
z
" transform="scale(0.015625)"/>
       </defs>
       <use xlink:href="#DejaVuSans-31"/>
       <use xlink:href="#DejaVuSans-30" x="63.623047"/>
       <use xlink:href="#DejaVuSans-30" x="127.246094"/>
       <use xlink:href="#DejaVuSans-30" x="190.869141"/>
       <use xlink:href="#DejaVuSans-30" x="254.492188"/>
      </g>
     </g>
    </g>
    <g id="xtick_4">
     <g id="line2d_4">
      <g>
       <use xlink:href="#mae1a0f3adf" x="164.3319" y="314.44" style="stroke: #000000; stroke-width: 0.8"/>
      </g>
     </g>
     <g id="text_4">
      <!-- 15000 -->
      <g transform="translate(148.42565 329.038437) scale(0.1 -0.1)">
       <use xlink:href="#DejaVuSans-31"/>
       <use xlink:href="#DejaVuSans-35" x="63.623047"/>
       <use xlink:href="#DejaVuSans-30" x="127.246094"/>
       <use xlink:href="#DejaVuSans-30" x="190.869141"/>
       <use xlink:href="#DejaVuSans-30" x="254.492188"/>
      </g>
     </g>
    </g>
    <g id="xtick_5">
     <g id="line2d_5">
      <g>
       <use xlink:href="#mae1a0f3adf" x="196.980069" y="314.44" style="stroke: #000000; stroke-width: 0.8"/>
      </g>
     </g>
     <g id="text_5">
      <!-- 20000 -->
      <g transform="translate(181.073819 329.038437) scale(0.1 -0.1)">
       <defs>
        <path id="DejaVuSans-32" d="M 1228 531 
L 3431 531 
L 3431 0 
L 469 0 
L 469 531 
Q 828 903 1448 1529 
Q 2069 2156 2228 2338 
Q 2531 2678 2651 2914 
Q 2772 3150 2772 3378 
Q 2772 3750 2511 3984 
Q 2250 4219 1831 4219 
Q 1534 4219 1204 4116 
Q 875 4013 500 3803 
L 500 4441 
Q 881 4594 1212 4672 
Q 1544 4750 1819 4750 
Q 2544 4750 2975 4387 
Q 3406 4025 3406 3419 
Q 3406 3131 3298 2873 
Q 3191 2616 2906 2266 
Q 2828 2175 2409 1742 
Q 1991 1309 1228 531 
z
" transform="scale(0.015625)"/>
       </defs>
       <use xlink:href="#DejaVuSans-32"/>
       <use xlink:href="#DejaVuSans-30" x="63.623047"/>
       <use xlink:href="#DejaVuSans-30" x="127.246094"/>
       <use xlink:href="#DejaVuSans-30" x="190.869141"/>
       <use xlink:href="#DejaVuSans-30" x="254.492188"/>
      </g>
     </g>
    </g>
    <g id="xtick_6">
     <g id="line2d_6">
      <g>
       <use xlink:href="#mae1a0f3adf" x="229.628238" y="314.44" style="stroke: #000000; stroke-width: 0.8"/>
      </g>
     </g>
     <g id="text_6">
      <!-- 25000 -->
      <g transform="translate(213.721988 329.038437) scale(0.1 -0.1)">
       <use xlink:href="#DejaVuSans-32"/>
       <use xlink:href="#DejaVuSans-35" x="63.623047"/>
       <use xlink:href="#DejaVuSans-30" x="127.246094"/>
       <use xlink:href="#DejaVuSans-30" x="190.869141"/>
       <use xlink:href="#DejaVuSans-30" x="254.492188"/>
      </g>
     </g>
    </g>
    <g id="xtick_7">
     <g id="line2d_7">
      <g>
       <use xlink:href="#mae1a0f3adf" x="262.276407" y="314.44" style="stroke: #000000; stroke-width: 0.8"/>
      </g>
     </g>
     <g id="text_7">
      <!-- 30000 -->
      <g transform="translate(246.370157 329.038437) scale(0.1 -0.1)">
       <defs>
        <path id="DejaVuSans-33" d="M 2597 2516 
Q 3050 2419 3304 2112 
Q 3559 1806 3559 1356 
Q 3559 666 3084 287 
Q 2609 -91 1734 -91 
Q 1441 -91 1130 -33 
Q 819 25 488 141 
L 488 750 
Q 750 597 1062 519 
Q 1375 441 1716 441 
Q 2309 441 2620 675 
Q 2931 909 2931 1356 
Q 2931 1769 2642 2001 
Q 2353 2234 1838 2234 
L 1294 2234 
L 1294 2753 
L 1863 2753 
Q 2328 2753 2575 2939 
Q 2822 3125 2822 3475 
Q 2822 3834 2567 4026 
Q 2313 4219 1838 4219 
Q 1578 4219 1281 4162 
Q 984 4106 628 3988 
L 628 4550 
Q 988 4650 1302 4700 
Q 1616 4750 1894 4750 
Q 2613 4750 3031 4423 
Q 3450 4097 3450 3541 
Q 3450 3153 3228 2886 
Q 3006 2619 2597 2516 
z
" transform="scale(0.015625)"/>
       </defs>
       <use xlink:href="#DejaVuSans-33"/>
       <use xlink:href="#DejaVuSans-30" x="63.623047"/>
       <use xlink:href="#DejaVuSans-30" x="127.246094"/>
       <use xlink:href="#DejaVuSans-30" x="190.869141"/>
       <use xlink:href="#DejaVuSans-30" x="254.492188"/>
      </g>
     </g>
    </g>
    <g id="xtick_8">
     <g id="line2d_8">
      <g>
       <use xlink:href="#mae1a0f3adf" x="294.924576" y="314.44" style="stroke: #000000; stroke-width: 0.8"/>
      </g>
     </g>
     <g id="text_8">
      <!-- 35000 -->
      <g transform="translate(279.018326 329.038437) scale(0.1 -0.1)">
       <use xlink:href="#DejaVuSans-33"/>
       <use xlink:href="#DejaVuSans-35" x="63.623047"/>
       <use xlink:href="#DejaVuSans-30" x="127.246094"/>
       <use xlink:href="#DejaVuSans-30" x="190.869141"/>
       <use xlink:href="#DejaVuSans-30" x="254.492188"/>
      </g>
     </g>
    </g>
    <g id="xtick_9">
     <g id="line2d_9">
      <g>
       <use xlink:href="#mae1a0f3adf" x="327.572745" y="314.44" style="stroke: #000000; stroke-width: 0.8"/>
      </g>
     </g>
     <g id="text_9">
      <!-- 40000 -->
      <g transform="translate(311.666495 329.038437) scale(0.1 -0.1)">
       <defs>
        <path id="DejaVuSans-34" d="M 2419 4116 
L 825 1625 
L 2419 1625 
L 2419 4116 
z
M 2253 4666 
L 3047 4666 
L 3047 1625 
L 3713 1625 
L 3713 1100 
L 3047 1100 
L 3047 0 
L 2419 0 
L 2419 1100 
L 313 1100 
L 313 1709 
L 2253 4666 
z
" transform="scale(0.015625)"/>
       </defs>
       <use xlink:href="#DejaVuSans-34"/>
       <use xlink:href="#DejaVuSans-30" x="63.623047"/>
       <use xlink:href="#DejaVuSans-30" x="127.246094"/>
       <use xlink:href="#DejaVuSans-30" x="190.869141"/>
       <use xlink:href="#DejaVuSans-30" x="254.492188"/>
      </g>
     </g>
    </g>
    <g id="text_10">
     <!-- steps -->
     <g transform="translate(183.559756 342.716562) scale(0.1 -0.1)">
      <defs>
       <path id="DejaVuSans-73" d="M 2834 3397 
L 2834 2853 
Q 2591 2978 2328 3040 
Q 2066 3103 1784 3103 
Q 1356 3103 1142 2972 
Q 928 2841 928 2578 
Q 928 2378 1081 2264 
Q 1234 2150 1697 2047 
L 1894 2003 
Q 2506 1872 2764 1633 
Q 3022 1394 3022 966 
Q 3022 478 2636 193 
Q 2250 -91 1575 -91 
Q 1294 -91 989 -36 
Q 684 19 347 128 
L 347 722 
Q 666 556 975 473 
Q 1284 391 1588 391 
Q 1994 391 2212 530 
Q 2431 669 2431 922 
Q 2431 1156 2273 1281 
Q 2116 1406 1581 1522 
L 1381 1569 
Q 847 1681 609 1914 
Q 372 2147 372 2553 
Q 372 3047 722 3315 
Q 1072 3584 1716 3584 
Q 2034 3584 2315 3537 
Q 2597 3491 2834 3397 
z
" transform="scale(0.015625)"/>
       <path id="DejaVuSans-74" d="M 1172 4494 
L 1172 3500 
L 2356 3500 
L 2356 3053 
L 1172 3053 
L 1172 1153 
Q 1172 725 1289 603 
Q 1406 481 1766 481 
L 2356 481 
L 2356 0 
L 1766 0 
Q 1100 0 847 248 
Q 594 497 594 1153 
L 594 3053 
L 172 3053 
L 172 3500 
L 594 3500 
L 594 4494 
L 1172 4494 
z
" transform="scale(0.015625)"/>
       <path id="DejaVuSans-65" d="M 3597 1894 
L 3597 1613 
L 953 1613 
Q 991 1019 1311 708 
Q 1631 397 2203 397 
Q 2534 397 2845 478 
Q 3156 559 3463 722 
L 3463 178 
Q 3153 47 2828 -22 
Q 2503 -91 2169 -91 
Q 1331 -91 842 396 
Q 353 884 353 1716 
Q 353 2575 817 3079 
Q 1281 3584 2069 3584 
Q 2775 3584 3186 3129 
Q 3597 2675 3597 1894 
z
M 3022 2063 
Q 3016 2534 2758 2815 
Q 2500 3097 2075 3097 
Q 1594 3097 1305 2825 
Q 1016 2553 972 2059 
L 3022 2063 
z
" transform="scale(0.015625)"/>
       <path id="DejaVuSans-70" d="M 1159 525 
L 1159 -1331 
L 581 -1331 
L 581 3500 
L 1159 3500 
L 1159 2969 
Q 1341 3281 1617 3432 
Q 1894 3584 2278 3584 
Q 2916 3584 3314 3078 
Q 3713 2572 3713 1747 
Q 3713 922 3314 415 
Q 2916 -91 2278 -91 
Q 1894 -91 1617 61 
Q 1341 213 1159 525 
z
M 3116 1747 
Q 3116 2381 2855 2742 
Q 2594 3103 2138 3103 
Q 1681 3103 1420 2742 
Q 1159 2381 1159 1747 
Q 1159 1113 1420 752 
Q 1681 391 2138 391 
Q 2594 391 2855 752 
Q 3116 1113 3116 1747 
z
" transform="scale(0.015625)"/>
      </defs>
      <use xlink:href="#DejaVuSans-73"/>
      <use xlink:href="#DejaVuSans-74" x="52.099609"/>
      <use xlink:href="#DejaVuSans-65" x="91.308594"/>
      <use xlink:href="#DejaVuSans-70" x="152.832031"/>
      <use xlink:href="#DejaVuSans-73" x="216.308594"/>
     </g>
    </g>
   </g>
   <g id="matplotlib.axis_2">
    <g id="ytick_1">
     <g id="line2d_10">
      <defs>
       <path id="m45926d3952" d="M 0 0 
L -3.5 0 
" style="stroke: #000000; stroke-width: 0.8"/>
      </defs>
      <g>
       <use xlink:href="#m45926d3952" x="53.328125" y="300.474545" style="stroke: #000000; stroke-width: 0.8"/>
      </g>
     </g>
     <g id="text_11">
      <!-- 0 -->
      <g transform="translate(39.965625 304.273764) scale(0.1 -0.1)">
       <use xlink:href="#DejaVuSans-30"/>
      </g>
     </g>
    </g>
    <g id="ytick_2">
     <g id="line2d_11">
      <g>
       <use xlink:href="#m45926d3952" x="53.328125" y="246.496902" style="stroke: #000000; stroke-width: 0.8"/>
      </g>
     </g>
     <g id="text_12">
      <!-- 200 -->
      <g transform="translate(27.240625 250.296121) scale(0.1 -0.1)">
       <use xlink:href="#DejaVuSans-32"/>
       <use xlink:href="#DejaVuSans-30" x="63.623047"/>
       <use xlink:href="#DejaVuSans-30" x="127.246094"/>
      </g>
     </g>
    </g>
    <g id="ytick_3">
     <g id="line2d_12">
      <g>
       <use xlink:href="#m45926d3952" x="53.328125" y="192.519259" style="stroke: #000000; stroke-width: 0.8"/>
      </g>
     </g>
     <g id="text_13">
      <!-- 400 -->
      <g transform="translate(27.240625 196.318477) scale(0.1 -0.1)">
       <use xlink:href="#DejaVuSans-34"/>
       <use xlink:href="#DejaVuSans-30" x="63.623047"/>
       <use xlink:href="#DejaVuSans-30" x="127.246094"/>
      </g>
     </g>
    </g>
    <g id="ytick_4">
     <g id="line2d_13">
      <g>
       <use xlink:href="#m45926d3952" x="53.328125" y="138.541615" style="stroke: #000000; stroke-width: 0.8"/>
      </g>
     </g>
     <g id="text_14">
      <!-- 600 -->
      <g transform="translate(27.240625 142.340834) scale(0.1 -0.1)">
       <defs>
        <path id="DejaVuSans-36" d="M 2113 2584 
Q 1688 2584 1439 2293 
Q 1191 2003 1191 1497 
Q 1191 994 1439 701 
Q 1688 409 2113 409 
Q 2538 409 2786 701 
Q 3034 994 3034 1497 
Q 3034 2003 2786 2293 
Q 2538 2584 2113 2584 
z
M 3366 4563 
L 3366 3988 
Q 3128 4100 2886 4159 
Q 2644 4219 2406 4219 
Q 1781 4219 1451 3797 
Q 1122 3375 1075 2522 
Q 1259 2794 1537 2939 
Q 1816 3084 2150 3084 
Q 2853 3084 3261 2657 
Q 3669 2231 3669 1497 
Q 3669 778 3244 343 
Q 2819 -91 2113 -91 
Q 1303 -91 875 529 
Q 447 1150 447 2328 
Q 447 3434 972 4092 
Q 1497 4750 2381 4750 
Q 2619 4750 2861 4703 
Q 3103 4656 3366 4563 
z
" transform="scale(0.015625)"/>
       </defs>
       <use xlink:href="#DejaVuSans-36"/>
       <use xlink:href="#DejaVuSans-30" x="63.623047"/>
       <use xlink:href="#DejaVuSans-30" x="127.246094"/>
      </g>
     </g>
    </g>
    <g id="ytick_5">
     <g id="line2d_14">
      <g>
       <use xlink:href="#m45926d3952" x="53.328125" y="84.563972" style="stroke: #000000; stroke-width: 0.8"/>
      </g>
     </g>
     <g id="text_15">
      <!-- 800 -->
      <g transform="translate(27.240625 88.363191) scale(0.1 -0.1)">
       <defs>
        <path id="DejaVuSans-38" d="M 2034 2216 
Q 1584 2216 1326 1975 
Q 1069 1734 1069 1313 
Q 1069 891 1326 650 
Q 1584 409 2034 409 
Q 2484 409 2743 651 
Q 3003 894 3003 1313 
Q 3003 1734 2745 1975 
Q 2488 2216 2034 2216 
z
M 1403 2484 
Q 997 2584 770 2862 
Q 544 3141 544 3541 
Q 544 4100 942 4425 
Q 1341 4750 2034 4750 
Q 2731 4750 3128 4425 
Q 3525 4100 3525 3541 
Q 3525 3141 3298 2862 
Q 3072 2584 2669 2484 
Q 3125 2378 3379 2068 
Q 3634 1759 3634 1313 
Q 3634 634 3220 271 
Q 2806 -91 2034 -91 
Q 1263 -91 848 271 
Q 434 634 434 1313 
Q 434 1759 690 2068 
Q 947 2378 1403 2484 
z
M 1172 3481 
Q 1172 3119 1398 2916 
Q 1625 2713 2034 2713 
Q 2441 2713 2670 2916 
Q 2900 3119 2900 3481 
Q 2900 3844 2670 4047 
Q 2441 4250 2034 4250 
Q 1625 4250 1398 4047 
Q 1172 3844 1172 3481 
z
" transform="scale(0.015625)"/>
       </defs>
       <use xlink:href="#DejaVuSans-38"/>
       <use xlink:href="#DejaVuSans-30" x="63.623047"/>
       <use xlink:href="#DejaVuSans-30" x="127.246094"/>
      </g>
     </g>
    </g>
    <g id="ytick_6">
     <g id="line2d_15">
      <g>
       <use xlink:href="#m45926d3952" x="53.328125" y="30.586329" style="stroke: #000000; stroke-width: 0.8"/>
      </g>
     </g>
     <g id="text_16">
      <!-- 1000 -->
      <g transform="translate(20.878125 34.385547) scale(0.1 -0.1)">
       <use xlink:href="#DejaVuSans-31"/>
       <use xlink:href="#DejaVuSans-30" x="63.623047"/>
       <use xlink:href="#DejaVuSans-30" x="127.246094"/>
       <use xlink:href="#DejaVuSans-30" x="190.869141"/>
      </g>
     </g>
    </g>
    <g id="text_17">
     <!-- totalImprovement -->
     <g transform="translate(14.798438 205.886406) rotate(-90) scale(0.1 -0.1)">
      <defs>
       <path id="DejaVuSans-6f" d="M 1959 3097 
Q 1497 3097 1228 2736 
Q 959 2375 959 1747 
Q 959 1119 1226 758 
Q 1494 397 1959 397 
Q 2419 397 2687 759 
Q 2956 1122 2956 1747 
Q 2956 2369 2687 2733 
Q 2419 3097 1959 3097 
z
M 1959 3584 
Q 2709 3584 3137 3096 
Q 3566 2609 3566 1747 
Q 3566 888 3137 398 
Q 2709 -91 1959 -91 
Q 1206 -91 779 398 
Q 353 888 353 1747 
Q 353 2609 779 3096 
Q 1206 3584 1959 3584 
z
" transform="scale(0.015625)"/>
       <path id="DejaVuSans-61" d="M 2194 1759 
Q 1497 1759 1228 1600 
Q 959 1441 959 1056 
Q 959 750 1161 570 
Q 1363 391 1709 391 
Q 2188 391 2477 730 
Q 2766 1069 2766 1631 
L 2766 1759 
L 2194 1759 
z
M 3341 1997 
L 3341 0 
L 2766 0 
L 2766 531 
Q 2569 213 2275 61 
Q 1981 -91 1556 -91 
Q 1019 -91 701 211 
Q 384 513 384 1019 
Q 384 1609 779 1909 
Q 1175 2209 1959 2209 
L 2766 2209 
L 2766 2266 
Q 2766 2663 2505 2880 
Q 2244 3097 1772 3097 
Q 1472 3097 1187 3025 
Q 903 2953 641 2809 
L 641 3341 
Q 956 3463 1253 3523 
Q 1550 3584 1831 3584 
Q 2591 3584 2966 3190 
Q 3341 2797 3341 1997 
z
" transform="scale(0.015625)"/>
       <path id="DejaVuSans-6c" d="M 603 4863 
L 1178 4863 
L 1178 0 
L 603 0 
L 603 4863 
z
" transform="scale(0.015625)"/>
       <path id="DejaVuSans-49" d="M 628 4666 
L 1259 4666 
L 1259 0 
L 628 0 
L 628 4666 
z
" transform="scale(0.015625)"/>
       <path id="DejaVuSans-6d" d="M 3328 2828 
Q 3544 3216 3844 3400 
Q 4144 3584 4550 3584 
Q 5097 3584 5394 3201 
Q 5691 2819 5691 2113 
L 5691 0 
L 5113 0 
L 5113 2094 
Q 5113 2597 4934 2840 
Q 4756 3084 4391 3084 
Q 3944 3084 3684 2787 
Q 3425 2491 3425 1978 
L 3425 0 
L 2847 0 
L 2847 2094 
Q 2847 2600 2669 2842 
Q 2491 3084 2119 3084 
Q 1678 3084 1418 2786 
Q 1159 2488 1159 1978 
L 1159 0 
L 581 0 
L 581 3500 
L 1159 3500 
L 1159 2956 
Q 1356 3278 1631 3431 
Q 1906 3584 2284 3584 
Q 2666 3584 2933 3390 
Q 3200 3197 3328 2828 
z
" transform="scale(0.015625)"/>
       <path id="DejaVuSans-72" d="M 2631 2963 
Q 2534 3019 2420 3045 
Q 2306 3072 2169 3072 
Q 1681 3072 1420 2755 
Q 1159 2438 1159 1844 
L 1159 0 
L 581 0 
L 581 3500 
L 1159 3500 
L 1159 2956 
Q 1341 3275 1631 3429 
Q 1922 3584 2338 3584 
Q 2397 3584 2469 3576 
Q 2541 3569 2628 3553 
L 2631 2963 
z
" transform="scale(0.015625)"/>
       <path id="DejaVuSans-76" d="M 191 3500 
L 800 3500 
L 1894 563 
L 2988 3500 
L 3597 3500 
L 2284 0 
L 1503 0 
L 191 3500 
z
" transform="scale(0.015625)"/>
       <path id="DejaVuSans-6e" d="M 3513 2113 
L 3513 0 
L 2938 0 
L 2938 2094 
Q 2938 2591 2744 2837 
Q 2550 3084 2163 3084 
Q 1697 3084 1428 2787 
Q 1159 2491 1159 1978 
L 1159 0 
L 581 0 
L 581 3500 
L 1159 3500 
L 1159 2956 
Q 1366 3272 1645 3428 
Q 1925 3584 2291 3584 
Q 2894 3584 3203 3211 
Q 3513 2838 3513 2113 
z
" transform="scale(0.015625)"/>
      </defs>
      <use xlink:href="#DejaVuSans-74"/>
      <use xlink:href="#DejaVuSans-6f" x="39.208984"/>
      <use xlink:href="#DejaVuSans-74" x="100.390625"/>
      <use xlink:href="#DejaVuSans-61" x="139.599609"/>
      <use xlink:href="#DejaVuSans-6c" x="200.878906"/>
      <use xlink:href="#DejaVuSans-49" x="228.662109"/>
      <use xlink:href="#DejaVuSans-6d" x="258.154297"/>
      <use xlink:href="#DejaVuSans-70" x="355.566406"/>
      <use xlink:href="#DejaVuSans-72" x="419.042969"/>
      <use xlink:href="#DejaVuSans-6f" x="457.90625"/>
      <use xlink:href="#DejaVuSans-76" x="519.087891"/>
      <use xlink:href="#DejaVuSans-65" x="578.267578"/>
      <use xlink:href="#DejaVuSans-6d" x="639.791016"/>
      <use xlink:href="#DejaVuSans-65" x="737.203125"/>
      <use xlink:href="#DejaVuSans-6e" x="798.726562"/>
      <use xlink:href="#DejaVuSans-74" x="862.105469"/>
     </g>
    </g>
   </g>
   <g id="line2d_16">
    <path d="M 66.387393 300.474545 
L 67.040356 297.127938 
L 67.693319 294.670699 
L 68.999246 289.108324 
L 72.264063 277.142265 
L 73.56999 271.034906 
L 75.52888 263.136573 
L 76.834807 259.224248 
L 80.752587 243.282322 
L 83.364441 231.5151 
L 84.670367 226.655764 
L 86.629257 220.967488 
L 87.282221 218.516808 
L 87.935184 216.661904 
L 88.588148 214.439244 
L 92.505928 203.793407 
L 93.158891 201.527555 
L 94.464818 198.997298 
L 95.770745 196.684831 
L 97.076672 193.483933 
L 99.035562 188.484105 
L 99.688525 187.079864 
L 101.647415 181.753711 
L 102.300379 180.545574 
L 103.606305 177.69075 
L 104.912232 175.231965 
L 105.565195 174.414553 
L 106.871122 171.561256 
L 107.524086 170.569817 
L 108.177049 169.356657 
L 108.830012 168.888236 
L 109.482976 167.971611 
L 110.135939 167.367939 
L 110.788903 166.333685 
L 112.094829 163.668474 
L 112.747793 162.559338 
L 114.706683 160.670331 
L 115.359646 159.137924 
L 116.01261 158.117665 
L 116.665573 156.667621 
L 117.9715 154.716118 
L 119.277426 153.094097 
L 120.583353 151.000104 
L 121.236317 150.636048 
L 121.88928 149.381127 
L 122.542243 149.301779 
L 123.195207 148.536093 
L 123.84817 148.076514 
L 125.154097 146.500255 
L 125.80706 145.951948 
L 127.112987 144.249368 
L 127.76595 143.96064 
L 128.418914 143.093103 
L 129.071877 142.938859 
L 131.030767 141.054773 
L 131.683731 139.866181 
L 132.336694 139.893442 
L 132.989657 139.274212 
L 134.295584 136.719389 
L 134.948548 136.889463 
L 135.601511 136.455659 
L 136.254474 136.181503 
L 137.560401 134.790709 
L 138.213364 133.823904 
L 138.866328 133.220652 
L 139.519291 133.037445 
L 140.172255 132.681834 
L 141.478181 131.452258 
L 142.784108 130.529 
L 143.437072 130.063459 
L 144.090035 130.185461 
L 147.354852 127.154667 
L 148.007815 127.418271 
L 148.660779 127.14905 
L 149.313742 126.462806 
L 150.619669 126.340195 
L 151.272632 126.129392 
L 151.925595 125.362277 
L 153.231522 124.782524 
L 153.884486 124.203638 
L 155.843376 122.937755 
L 156.496339 122.938717 
L 157.149303 122.630739 
L 157.802266 122.548452 
L 158.455229 122.716426 
L 159.108193 122.408256 
L 160.414119 122.074846 
L 161.067083 121.714263 
L 161.720046 121.7644 
L 162.37301 122.31268 
L 164.3319 121.251935 
L 165.637826 120.215006 
L 166.29079 120.336125 
L 166.943753 120.133179 
L 167.596717 120.166391 
L 168.24968 120.028606 
L 170.861534 118.31991 
L 171.514497 118.27059 
L 172.16746 118.047849 
L 172.820424 117.600525 
L 173.473387 117.343367 
L 174.779314 117.45274 
L 175.432277 117.02085 
L 176.085241 116.862226 
L 177.391167 116.305016 
L 178.044131 116.369694 
L 178.697094 116.192294 
L 180.003021 114.864469 
L 180.655984 114.718607 
L 181.308948 114.311875 
L 181.961911 114.46362 
L 182.614874 114.10818 
L 183.267838 113.909066 
L 183.920801 113.420835 
L 185.226728 113.320747 
L 185.879691 112.93948 
L 186.532655 113.3131 
L 187.185618 113.218023 
L 188.491545 112.192364 
L 189.144508 112.289076 
L 189.797472 111.666259 
L 190.450435 111.714517 
L 191.103398 112.116861 
L 191.756362 111.749337 
L 192.409325 112.292002 
L 193.062288 111.364265 
L 193.715252 111.633035 
L 194.368215 111.396055 
L 195.021179 110.774523 
L 195.674142 110.611696 
L 196.327105 110.823259 
L 198.285996 110.541338 
L 198.938959 110.229908 
L 200.244886 109.871654 
L 200.897849 110.31649 
L 201.550812 110.328891 
L 202.203776 109.696895 
L 202.856739 109.62417 
L 203.509703 109.346108 
L 204.815629 108.472781 
L 205.468593 108.865399 
L 206.121556 108.620931 
L 207.427483 107.828795 
L 208.080446 107.677001 
L 209.386373 106.761154 
L 210.039336 106.794008 
L 210.6923 107.036392 
L 211.345263 106.989005 
L 211.998227 106.821649 
L 212.65119 106.909069 
L 213.957117 105.935814 
L 214.61008 105.729491 
L 215.263043 106.128954 
L 215.916007 106.137032 
L 217.874897 105.489441 
L 218.52786 105.547157 
L 219.180824 104.891592 
L 221.139714 104.139314 
L 221.792677 104.281853 
L 223.751567 103.118038 
L 224.404531 103.571625 
L 225.057494 103.648432 
L 225.710458 103.482735 
L 226.363421 103.644206 
L 227.669348 103.74683 
L 228.322311 104.156746 
L 228.975274 103.876174 
L 229.628238 103.293302 
L 231.587128 103.142753 
L 232.240091 102.936884 
L 232.893055 102.351152 
L 233.546018 101.982105 
L 234.851945 102.131781 
L 235.504908 102.145787 
L 236.157872 101.963673 
L 236.810835 102.076766 
L 237.463798 101.63232 
L 238.116762 101.342662 
L 238.769725 101.608936 
L 239.422688 101.481521 
L 240.075652 101.632885 
L 241.381579 100.959825 
L 242.034542 101.422618 
L 242.687505 101.467343 
L 243.340469 100.962455 
L 243.993432 100.842548 
L 245.299359 100.777169 
L 246.605286 100.712931 
L 248.564176 100.122463 
L 249.217139 100.53693 
L 249.870103 100.248208 
L 251.176029 100.535964 
L 251.828993 100.495258 
L 252.481956 100.038055 
L 253.787883 100.724267 
L 254.440846 100.662578 
L 255.746773 100.880817 
L 256.399736 100.341029 
L 257.0527 100.344756 
L 257.705663 100.022624 
L 258.358627 100.48429 
L 259.664553 99.965347 
L 260.317517 100.011069 
L 260.97048 100.214373 
L 261.623443 100.610843 
L 262.276407 100.627347 
L 262.92937 100.130164 
L 263.582334 100.010387 
L 265.541224 100.435258 
L 266.194187 100.475482 
L 266.84715 100.921206 
L 267.500114 101.001365 
L 268.153077 100.784979 
L 268.806041 100.910197 
L 269.459004 100.649882 
L 270.111967 100.233635 
L 272.070858 99.67749 
L 274.029748 99.635164 
L 274.682711 99.265401 
L 275.335674 99.34884 
L 276.641601 99.186432 
L 278.600491 98.931035 
L 279.253455 98.713161 
L 280.559381 98.082994 
L 281.865308 98.7025 
L 282.518272 98.703111 
L 283.171235 98.157571 
L 283.824198 97.776109 
L 284.477162 97.622951 
L 285.130125 97.823987 
L 285.783089 97.767595 
L 286.436052 97.900471 
L 287.089015 98.327427 
L 287.741979 98.177242 
L 289.047905 97.537211 
L 289.700869 97.600757 
L 290.353832 97.508314 
L 291.659759 97.843116 
L 292.312722 97.310561 
L 292.965686 96.966202 
L 293.618649 96.950836 
L 294.271612 97.068235 
L 294.924576 97.587013 
L 295.577539 97.036613 
L 296.230503 97.484711 
L 296.883466 97.703393 
L 298.842356 96.341461 
L 299.49532 96.862145 
L 300.148283 97.227673 
L 301.45421 96.430179 
L 302.107173 96.360611 
L 302.760136 96.134152 
L 303.4131 96.151626 
L 304.066063 95.739138 
L 305.37199 95.947719 
L 306.024953 95.39194 
L 306.677917 95.884903 
L 307.33088 95.856918 
L 307.983843 95.980951 
L 308.636807 95.547401 
L 309.28977 95.538223 
L 309.942734 95.663548 
L 310.595697 95.338616 
L 311.901624 96.280187 
L 312.554587 96.06169 
L 313.207551 95.394765 
L 313.860514 95.292686 
L 314.513477 95.412882 
L 315.166441 95.361902 
L 315.819404 94.932747 
L 316.472367 95.114568 
L 317.778294 94.675606 
L 318.431258 94.71357 
L 319.084221 94.522433 
L 319.737184 94.756791 
L 320.390148 94.292406 
L 323.002001 94.949726 
L 323.654965 94.788807 
L 324.307928 95.4377 
L 324.960891 94.800705 
L 326.919782 94.429884 
L 327.572745 94.977867 
L 327.572745 94.977867 
" clip-path="url(#pfca2a7bff2)" style="fill: none; stroke: #edd1cb; stroke-width: 0.75; stroke-linecap: square"/>
   </g>
   <g id="line2d_17">
    <path d="M 66.387393 300.474545 
L 67.693319 232.67111 
L 68.346283 211.887335 
L 68.999246 194.83757 
L 69.65221 184.944653 
L 70.305173 170.612737 
L 71.6111 154.149627 
L 72.264063 148.593483 
L 72.917026 145.693556 
L 73.56999 142.078738 
L 74.222953 140.308779 
L 74.875917 137.73191 
L 75.52888 128.276111 
L 76.181843 123.661451 
L 76.834807 116.748492 
L 77.48777 117.071936 
L 78.140733 114.343793 
L 78.793697 113.855942 
L 79.44666 111.711635 
L 80.099624 113.232996 
L 80.752587 111.753195 
L 81.40555 112.401233 
L 82.058514 112.271666 
L 82.711477 110.911874 
L 83.364441 107.982259 
L 84.017404 108.983295 
L 84.670367 108.747493 
L 85.323331 107.935079 
L 85.976294 106.78158 
L 86.629257 102.832605 
L 87.282221 101.897482 
L 87.935184 105.62347 
L 88.588148 104.783303 
L 89.241111 106.475853 
L 89.894074 104.573219 
L 90.547038 101.228843 
L 91.200001 97.265118 
L 91.852964 101.901598 
L 92.505928 104.763685 
L 93.811855 101.177011 
L 94.464818 104.616272 
L 95.117781 105.337226 
L 95.770745 103.457173 
L 96.423708 105.548061 
L 97.076672 105.368979 
L 97.729635 106.486978 
L 98.382598 108.03953 
L 99.035562 105.202698 
L 99.688525 107.134409 
L 100.341488 105.82912 
L 100.994452 103.091313 
L 102.300379 107.23596 
L 102.953342 104.716518 
L 103.606305 103.922633 
L 104.259269 100.89221 
L 104.912232 103.596315 
L 105.565195 107.001622 
L 106.218159 108.238236 
L 106.871122 108.554615 
L 107.524086 110.540729 
L 108.177049 107.673194 
L 108.830012 108.893488 
L 109.482976 108.412754 
L 110.135939 110.944434 
L 110.788903 113.928978 
L 111.441866 114.499378 
L 112.094829 113.688368 
L 113.400756 110.811604 
L 114.053719 108.651478 
L 114.706683 107.990651 
L 115.359646 105.745682 
L 116.01261 108.716574 
L 116.665573 109.925835 
L 117.318536 107.002782 
L 117.9715 107.891248 
L 118.624463 107.449404 
L 119.277426 110.562602 
L 119.93039 107.996067 
L 120.583353 114.086642 
L 121.236317 117.434314 
L 121.88928 111.886853 
L 122.542243 114.648989 
L 123.195207 112.440995 
L 123.84817 106.489397 
L 124.501133 108.093434 
L 125.154097 104.397319 
L 125.80706 109.400638 
L 126.460024 108.937099 
L 127.112987 111.081888 
L 127.76595 108.697418 
L 128.418914 104.581663 
L 129.071877 102.160379 
L 129.724841 102.638731 
L 130.377804 101.750561 
L 131.030767 100.427492 
L 131.683731 103.30496 
L 132.336694 102.406745 
L 132.989657 104.12692 
L 133.642621 100.592595 
L 134.295584 99.193197 
L 134.948548 99.975962 
L 135.601511 99.034418 
L 136.254474 107.545732 
L 136.907438 114.163759 
L 137.560401 109.62938 
L 138.213364 109.975407 
L 138.866328 111.084521 
L 139.519291 105.814337 
L 140.172255 107.182617 
L 140.825218 104.509082 
L 141.478181 106.472663 
L 142.131145 105.2003 
L 142.784108 105.397567 
L 143.437072 101.900204 
L 144.090035 99.610871 
L 144.742998 101.239165 
L 145.395962 100.542992 
L 146.048925 103.83011 
L 146.701888 109.887768 
L 147.354852 109.024015 
L 148.007815 104.930284 
L 148.660779 110.456164 
L 149.313742 113.142955 
L 149.966705 109.093687 
L 150.619669 107.161593 
L 151.272632 108.907989 
L 151.925595 109.588629 
L 152.578559 106.38217 
L 153.231522 104.627657 
L 153.884486 103.413262 
L 154.537449 100.395229 
L 155.190412 101.876325 
L 155.843376 106.209298 
L 156.496339 107.718714 
L 157.149303 104.689606 
L 157.802266 104.000842 
L 158.455229 103.065723 
L 159.108193 103.303408 
L 159.761156 103.671722 
L 160.414119 103.128941 
L 161.067083 107.6366 
L 161.720046 109.502125 
L 162.37301 104.60485 
L 163.025973 106.5831 
L 163.678936 109.663338 
L 164.3319 104.765636 
L 164.984863 104.75403 
L 166.29079 109.012573 
L 166.943753 114.539133 
L 167.596717 107.724574 
L 168.24968 112.488977 
L 168.902643 108.617063 
L 169.555607 110.473303 
L 170.20857 107.364108 
L 170.861534 105.800451 
L 171.514497 108.004813 
L 172.820424 111.208083 
L 173.473387 112.842966 
L 174.12635 110.871086 
L 174.779314 106.420726 
L 175.432277 105.392749 
L 176.085241 102.546413 
L 176.738204 104.38634 
L 177.391167 100.262252 
L 178.044131 100.951505 
L 178.697094 103.188447 
L 179.350057 101.72061 
L 180.003021 105.708264 
L 180.655984 102.438611 
L 181.308948 106.400653 
L 181.961911 102.598573 
L 182.614874 101.379358 
L 183.267838 102.591157 
L 183.920801 104.743134 
L 184.573765 100.981868 
L 185.879691 98.329695 
L 186.532655 100.83473 
L 187.185618 104.302971 
L 187.838581 105.322268 
L 188.491545 104.685194 
L 189.144508 107.245029 
L 189.797472 106.877245 
L 190.450435 114.617618 
L 191.103398 110.652871 
L 191.756362 112.177477 
L 192.409325 115.699853 
L 193.062288 114.570882 
L 193.715252 112.917589 
L 194.368215 109.378328 
L 195.021179 110.306054 
L 195.674142 107.643252 
L 196.980069 108.315966 
L 197.633032 110.121743 
L 198.938959 106.101573 
L 200.244886 114.545903 
L 200.897849 106.842635 
L 201.550812 108.347094 
L 202.203776 110.743925 
L 202.856739 111.558398 
L 203.509703 109.338275 
L 204.162666 106.147816 
L 205.468593 103.611458 
L 206.121556 107.402498 
L 206.774519 105.826465 
L 208.080446 111.071807 
L 208.73341 106.15613 
L 209.386373 104.641184 
L 210.039336 106.973373 
L 210.6923 105.187513 
L 211.345263 105.34344 
L 211.998227 102.915639 
L 212.65119 106.279261 
L 213.304153 104.361869 
L 213.957117 100.427766 
L 215.263043 105.944764 
L 215.916007 105.665041 
L 216.56897 98.353128 
L 217.221934 99.638908 
L 217.874897 101.565081 
L 219.180824 116.107146 
L 219.833787 110.101433 
L 220.48675 108.302444 
L 221.139714 110.489634 
L 221.792677 116.541733 
L 222.445641 119.564333 
L 223.098604 119.980515 
L 223.751567 112.432723 
L 225.057494 117.81903 
L 225.710458 115.024754 
L 226.363421 113.12147 
L 227.016384 108.948686 
L 227.669348 108.975625 
L 228.322311 111.024463 
L 228.975274 109.953936 
L 229.628238 105.525702 
L 230.281201 104.651667 
L 230.934165 103.052682 
L 232.240091 108.049408 
L 232.893055 107.978582 
L 233.546018 109.71307 
L 234.198981 106.953049 
L 234.851945 108.237731 
L 235.504908 110.227661 
L 236.157872 107.82618 
L 236.810835 107.319996 
L 237.463798 104.517421 
L 238.116762 104.352573 
L 238.769725 104.811372 
L 239.422688 106.459684 
L 240.075652 105.468658 
L 240.728615 106.873339 
L 241.381579 105.900534 
L 242.034542 105.86722 
L 242.687505 105.37602 
L 243.340469 105.334196 
L 243.993432 106.258366 
L 244.646396 105.896404 
L 245.299359 104.636809 
L 245.952322 105.724387 
L 246.605286 106.310547 
L 247.258249 105.155745 
L 247.911212 102.126988 
L 248.564176 101.896034 
L 249.217139 104.465904 
L 249.870103 103.981181 
L 250.523066 103.258769 
L 251.176029 104.600354 
L 251.828993 102.713836 
L 252.481956 104.451082 
L 253.134919 101.368509 
L 253.787883 103.476886 
L 254.440846 100.290662 
L 255.09381 102.526151 
L 255.746773 103.620559 
L 256.399736 100.55218 
L 257.0527 104.66806 
L 257.705663 101.231874 
L 258.358627 102.730943 
L 259.01159 101.118791 
L 259.664553 102.27571 
L 260.317517 101.952366 
L 260.97048 98.557848 
L 261.623443 100.516879 
L 262.276407 98.993499 
L 262.92937 99.325396 
L 263.582334 99.346983 
L 264.235297 96.011686 
L 264.88826 98.239644 
L 265.541224 97.484899 
L 266.194187 100.187002 
L 266.84715 104.996983 
L 267.500114 107.329895 
L 268.153077 104.504297 
L 268.806041 107.542442 
L 269.459004 107.519869 
L 270.111967 105.298214 
L 270.764931 105.951356 
L 271.417894 108.672724 
L 272.070858 108.943566 
L 272.723821 108.83625 
L 273.376784 107.682077 
L 274.029748 103.746798 
L 274.682711 108.189146 
L 275.335674 108.025 
L 275.988638 105.336437 
L 277.294565 116.825054 
L 277.947528 113.385943 
L 278.600491 120.757107 
L 279.253455 118.227219 
L 279.906418 113.558551 
L 280.559381 114.439778 
L 281.212345 119.410784 
L 281.865308 119.588175 
L 282.518272 115.468171 
L 283.824198 109.897911 
L 284.477162 109.539909 
L 285.130125 116.694726 
L 285.783089 115.892779 
L 286.436052 116.646432 
L 287.089015 117.126966 
L 287.741979 115.36383 
L 288.394942 113.136675 
L 289.047905 108.878598 
L 289.700869 107.212013 
L 291.006796 117.054299 
L 291.659759 109.70047 
L 292.312722 109.170611 
L 292.965686 106.760423 
L 293.618649 107.004274 
L 294.271612 110.175157 
L 294.924576 104.230511 
L 295.577539 106.874968 
L 296.230503 110.456187 
L 296.883466 109.52614 
L 297.536429 109.441125 
L 298.189393 107.863907 
L 298.842356 111.245234 
L 299.49532 107.388663 
L 300.148283 106.644327 
L 300.801246 107.971056 
L 301.45421 106.644896 
L 302.107173 106.528797 
L 302.760136 100.289678 
L 303.4131 96.929786 
L 304.066063 95.834512 
L 304.719027 92.161357 
L 305.37199 97.212768 
L 306.024953 97.348649 
L 306.677917 98.363112 
L 307.33088 95.878878 
L 307.983843 97.963053 
L 308.636807 98.012487 
L 309.28977 102.848101 
L 309.942734 102.335867 
L 311.24866 102.364975 
L 311.901624 99.178219 
L 312.554587 100.393719 
L 313.207551 100.221465 
L 313.860514 100.936963 
L 314.513477 99.737006 
L 315.166441 100.824399 
L 315.819404 101.671488 
L 316.472367 102.877292 
L 317.125331 104.723244 
L 317.778294 106.931782 
L 318.431258 104.776969 
L 319.084221 108.904617 
L 319.737184 106.679171 
L 320.390148 110.732536 
L 321.043111 113.664843 
L 321.696074 113.76436 
L 323.002001 109.47819 
L 323.654965 105.226445 
L 324.307928 102.218173 
L 324.960891 100.753325 
L 325.613855 98.158142 
L 326.266818 99.58363 
L 326.919782 95.926447 
L 327.572745 94.513836 
L 327.572745 94.513836 
" clip-path="url(#pfca2a7bff2)" style="fill: none; stroke-dasharray: 3,1.125; stroke-dashoffset: 0; stroke: #edd1cb; stroke-width: 0.75"/>
   </g>
   <g id="line2d_18">
    <path d="M 66.387393 300.474545 
L 67.040356 294.79483 
L 68.346283 285.70771 
L 70.305173 270.453321 
L 71.6111 262.268338 
L 72.917026 251.9389 
L 74.222953 240.283581 
L 79.44666 200.11556 
L 83.364441 173.699593 
L 84.670367 167.343501 
L 86.629257 156.329088 
L 87.282221 154.112819 
L 87.935184 150.498916 
L 90.547038 138.16434 
L 93.158891 125.547274 
L 93.811855 123.276869 
L 94.464818 120.078609 
L 95.117781 117.541525 
L 95.770745 115.705884 
L 96.423708 113.529179 
L 97.076672 111.95763 
L 98.382598 108.20203 
L 99.035562 105.83429 
L 99.688525 104.189273 
L 100.341488 102.145265 
L 100.994452 101.132264 
L 101.647415 99.602684 
L 102.953342 95.919209 
L 104.259269 93.652531 
L 104.912232 92.157483 
L 105.565195 91.734225 
L 106.871122 88.7274 
L 108.830012 86.690507 
L 109.482976 85.283239 
L 110.135939 85.332006 
L 110.788903 84.383229 
L 111.441866 82.889071 
L 112.094829 82.358847 
L 113.400756 80.633637 
L 114.053719 80.287736 
L 114.706683 78.873969 
L 115.359646 78.302423 
L 117.318536 74.582901 
L 117.9715 74.075964 
L 119.277426 72.182069 
L 119.93039 71.877766 
L 120.583353 70.616072 
L 121.236317 69.893787 
L 121.88928 68.847757 
L 122.542243 68.7519 
L 123.195207 68.059642 
L 123.84817 67.712993 
L 125.80706 65.614639 
L 127.112987 65.005908 
L 127.76595 64.239064 
L 128.418914 64.522937 
L 129.071877 63.459235 
L 129.724841 63.016447 
L 130.377804 62.213043 
L 131.030767 62.246615 
L 131.683731 61.693355 
L 132.336694 61.538136 
L 132.989657 61.191576 
L 133.642621 60.192515 
L 134.295584 60.16248 
L 134.948548 59.659879 
L 135.601511 58.495014 
L 136.254474 58.695183 
L 136.907438 58.526842 
L 137.560401 58.166371 
L 138.213364 57.431872 
L 138.866328 57.399397 
L 139.519291 56.898801 
L 141.478181 55.888025 
L 142.131145 55.466455 
L 143.437072 53.947906 
L 144.090035 54.120286 
L 144.742998 53.828479 
L 145.395962 53.147697 
L 146.701888 52.214881 
L 147.354852 52.007611 
L 148.007815 51.631133 
L 148.660779 51.393007 
L 149.313742 50.458723 
L 149.966705 50.302202 
L 150.619669 49.826086 
L 151.272632 49.728132 
L 151.925595 49.081394 
L 152.578559 49.247532 
L 153.231522 48.518469 
L 153.884486 47.957397 
L 154.537449 47.657148 
L 155.190412 48.09567 
L 155.843376 47.941446 
L 156.496339 47.558356 
L 157.149303 46.781632 
L 157.802266 47.08112 
L 158.455229 47.159719 
L 159.108193 46.270638 
L 159.761156 45.832857 
L 161.067083 45.811519 
L 161.720046 45.589288 
L 163.025973 44.441648 
L 163.678936 43.9776 
L 164.3319 43.666156 
L 164.984863 42.737716 
L 165.637826 43.207166 
L 166.29079 42.887664 
L 166.943753 42.876485 
L 168.902643 41.962687 
L 169.555607 41.031821 
L 170.20857 40.448769 
L 171.514497 40.560078 
L 172.16746 40.841075 
L 172.820424 39.953715 
L 173.473387 39.943531 
L 174.12635 39.792367 
L 174.779314 39.019705 
L 175.432277 39.467324 
L 176.085241 39.200611 
L 176.738204 39.099988 
L 177.391167 39.929845 
L 178.044131 39.241998 
L 180.003021 38.304129 
L 180.655984 38.286853 
L 181.308948 37.991117 
L 181.961911 37.247567 
L 182.614874 37.488506 
L 183.267838 37.012714 
L 183.920801 37.070214 
L 184.573765 36.664332 
L 185.226728 36.730694 
L 185.879691 36.945437 
L 186.532655 36.454614 
L 187.185618 36.534814 
L 187.838581 36.234376 
L 188.491545 36.139432 
L 189.144508 35.782614 
L 189.797472 36.241987 
L 190.450435 35.670356 
L 191.103398 35.82422 
L 191.756362 36.373908 
L 192.409325 35.994507 
L 193.062288 35.858023 
L 193.715252 35.166502 
L 194.368215 35.46082 
L 196.980069 33.962168 
L 197.633032 33.97191 
L 198.285996 33.614539 
L 198.938959 33.727552 
L 200.244886 33.241198 
L 200.897849 33.535089 
L 202.203776 32.668916 
L 202.856739 32.464246 
L 203.509703 32.986281 
L 204.162666 32.273733 
L 204.815629 32.219672 
L 205.468593 31.815299 
L 206.121556 31.962025 
L 206.774519 32.56048 
L 207.427483 31.559673 
L 208.080446 31.909228 
L 208.73341 31.298944 
L 209.386373 31.317175 
L 210.039336 31.15513 
L 210.6923 31.489646 
L 211.345263 32.431248 
L 211.998227 32.384083 
L 212.65119 31.624148 
L 213.304153 31.13107 
L 214.61008 31.139929 
L 215.263043 31.825195 
L 215.916007 30.888684 
L 216.56897 30.593914 
L 217.221934 31.333508 
L 219.833787 29.723692 
L 220.48675 30.040616 
L 221.139714 30.08799 
L 221.792677 29.844988 
L 222.445641 29.816499 
L 223.098604 29.391969 
L 223.751567 30.067954 
L 224.404531 30.280863 
L 225.057494 29.696011 
L 227.016384 29.550623 
L 227.669348 30.012652 
L 228.322311 28.983534 
L 228.975274 28.800504 
L 229.628238 28.252068 
L 230.934165 28.334501 
L 231.587128 27.861606 
L 232.240091 28.122057 
L 232.893055 28.18253 
L 233.546018 27.664451 
L 234.198981 27.765508 
L 234.851945 27.219302 
L 236.157872 27.924884 
L 236.810835 27.616391 
L 237.463798 27.557266 
L 238.116762 27.314597 
L 238.769725 26.945224 
L 239.422688 26.707774 
L 240.075652 26.607707 
L 240.728615 26.275296 
L 241.381579 26.438519 
L 242.034542 26.174424 
L 242.687505 27.003549 
L 243.340469 26.614903 
L 243.993432 26.669807 
L 244.646396 26.197943 
L 245.952322 26.071304 
L 246.605286 25.79604 
L 247.911212 26.057751 
L 248.564176 25.634434 
L 249.217139 25.413137 
L 249.870103 24.946189 
L 251.176029 25.042431 
L 251.828993 24.740128 
L 252.481956 25.330902 
L 253.134919 25.483068 
L 253.787883 26.008008 
L 255.09381 25.784102 
L 255.746773 25.464476 
L 256.399736 25.01562 
L 257.0527 24.723595 
L 257.705663 25.452321 
L 258.358627 24.634936 
L 259.01159 24.776895 
L 259.664553 25.164299 
L 260.317517 24.795799 
L 260.97048 24.673582 
L 261.623443 25.834493 
L 262.276407 26.002053 
L 263.582334 25.161956 
L 264.235297 24.536848 
L 264.88826 25.203746 
L 265.541224 25.238979 
L 266.194187 24.912608 
L 266.84715 25.01776 
L 267.500114 24.069315 
L 268.153077 24.60774 
L 268.806041 24.162029 
L 269.459004 24.01029 
L 270.111967 23.439552 
L 270.764931 24.028845 
L 271.417894 23.669599 
L 272.070858 23.556776 
L 272.723821 24.159623 
L 273.376784 23.809134 
L 274.029748 24.12005 
L 274.682711 24.643653 
L 275.335674 23.998833 
L 275.988638 23.565324 
L 276.641601 23.513157 
L 277.294565 24.539771 
L 277.947528 23.747858 
L 278.600491 23.284363 
L 279.253455 23.554605 
L 279.906418 23.953378 
L 280.559381 23.747438 
L 281.212345 23.06406 
L 281.865308 22.860898 
L 282.518272 23.124823 
L 283.824198 22.395486 
L 284.477162 22.865475 
L 285.130125 23.493431 
L 285.783089 23.221794 
L 286.436052 23.283323 
L 287.089015 23.211865 
L 287.741979 22.545453 
L 288.394942 22.541272 
L 289.700869 22.887191 
L 290.353832 22.845277 
L 291.006796 22.414298 
L 291.659759 22.761972 
L 292.312722 22.386499 
L 294.271612 23.174673 
L 295.577539 22.964808 
L 296.230503 22.561425 
L 296.883466 22.548784 
L 297.536429 22.912464 
L 298.189393 23.107132 
L 299.49532 22.71124 
L 300.148283 22.740446 
L 300.801246 22.906043 
L 301.45421 22.536827 
L 302.107173 22.532042 
L 302.760136 22.14381 
L 304.719027 22.100344 
L 305.37199 21.763855 
L 306.024953 22.112162 
L 306.677917 22.632627 
L 307.33088 21.770173 
L 307.983843 22.033549 
L 308.636807 22.61719 
L 309.28977 22.25805 
L 309.942734 22.283651 
L 310.595697 21.940015 
L 311.901624 22.333758 
L 312.554587 21.751717 
L 313.207551 21.565361 
L 313.860514 22.020378 
L 314.513477 21.630552 
L 315.166441 22.161449 
L 315.819404 22.086932 
L 316.472367 21.690384 
L 317.125331 21.485316 
L 317.778294 22.141783 
L 318.431258 22.184068 
L 319.737184 23.168872 
L 320.390148 22.498146 
L 321.043111 22.614318 
L 321.696074 21.779904 
L 323.002001 22.019378 
L 323.654965 22.001998 
L 324.307928 22.480491 
L 324.960891 21.98574 
L 325.613855 21.165455 
L 326.919782 21.753692 
L 327.572745 21.353568 
L 327.572745 21.353568 
" clip-path="url(#pfca2a7bff2)" style="fill: none; stroke: #2d1e3e; stroke-width: 3; stroke-linecap: square"/>
   </g>
   <g id="line2d_19">
    <path d="M 66.387393 300.474545 
L 67.040356 243.082323 
L 67.693319 197.092707 
L 68.346283 179.063394 
L 68.999246 155.470684 
L 69.65221 143.51938 
L 70.958136 114.062746 
L 71.6111 107.74522 
L 72.264063 102.788066 
L 72.917026 92.122368 
L 73.56999 91.77139 
L 74.875917 78.038778 
L 75.52888 73.288079 
L 76.181843 70.170569 
L 76.834807 68.167259 
L 77.48777 62.066991 
L 78.140733 64.964635 
L 78.793697 61.518153 
L 79.44666 61.463873 
L 80.099624 62.750784 
L 80.752587 56.018438 
L 81.40555 63.671707 
L 82.058514 58.327075 
L 82.711477 56.71233 
L 83.364441 57.51119 
L 84.017404 57.885197 
L 84.670367 67.325377 
L 85.323331 60.13711 
L 85.976294 61.183927 
L 86.629257 61.01272 
L 87.282221 59.544783 
L 87.935184 62.059102 
L 88.588148 55.483913 
L 89.241111 56.243623 
L 89.894074 53.937985 
L 90.547038 50.034072 
L 91.200001 51.499739 
L 91.852964 55.671256 
L 92.505928 53.551505 
L 93.158891 53.66808 
L 93.811855 51.681285 
L 94.464818 51.632364 
L 95.117781 51.96791 
L 95.770745 48.66586 
L 96.423708 50.224101 
L 97.076672 49.23712 
L 97.729635 51.588766 
L 98.382598 48.538639 
L 99.035562 53.96059 
L 99.688525 51.305299 
L 100.341488 54.114119 
L 100.994452 55.758088 
L 101.647415 55.802109 
L 102.300379 55.989881 
L 102.953342 53.749268 
L 103.606305 52.795976 
L 104.259269 52.853125 
L 104.912232 58.107046 
L 105.565195 57.624392 
L 106.218159 58.380517 
L 106.871122 64.300733 
L 107.524086 58.834854 
L 108.177049 58.042361 
L 108.830012 58.957283 
L 109.482976 61.911236 
L 110.135939 66.357765 
L 110.788903 60.438927 
L 111.441866 61.137022 
L 112.094829 61.298785 
L 112.747793 57.144456 
L 113.400756 59.732354 
L 114.053719 54.625875 
L 114.706683 54.034286 
L 115.359646 56.052496 
L 116.01261 58.970628 
L 116.665573 62.656547 
L 117.318536 55.791308 
L 117.9715 52.977335 
L 118.624463 52.247118 
L 119.277426 55.885025 
L 119.93039 61.257887 
L 121.236317 63.674953 
L 122.542243 54.795781 
L 123.195207 51.525689 
L 123.84817 51.513271 
L 124.501133 54.391427 
L 125.154097 54.607601 
L 125.80706 56.203169 
L 126.460024 58.472418 
L 127.112987 53.087777 
L 127.76595 53.513069 
L 128.418914 60.013928 
L 129.071877 55.925956 
L 129.724841 56.890677 
L 130.377804 61.583979 
L 131.030767 56.302153 
L 131.683731 56.567497 
L 132.336694 57.116235 
L 132.989657 56.694945 
L 134.295584 69.653449 
L 134.948548 77.042755 
L 135.601511 65.669482 
L 136.254474 64.885986 
L 136.907438 65.284056 
L 137.560401 64.914412 
L 138.213364 69.109692 
L 138.866328 71.084389 
L 141.478181 62.479993 
L 142.131145 61.104952 
L 142.784108 63.873367 
L 143.437072 60.49001 
L 144.090035 59.501724 
L 144.742998 62.011796 
L 145.395962 62.144945 
L 146.048925 60.424777 
L 146.701888 61.951656 
L 147.354852 70.812593 
L 148.007815 69.164844 
L 148.660779 70.718184 
L 149.313742 78.431632 
L 149.966705 75.214341 
L 150.619669 70.579132 
L 151.272632 70.062541 
L 151.925595 70.572223 
L 152.578559 76.561424 
L 153.231522 70.712452 
L 153.884486 72.067659 
L 154.537449 75.022217 
L 155.190412 72.812003 
L 155.843376 73.668831 
L 156.496339 71.033495 
L 157.149303 69.154683 
L 157.802266 69.759121 
L 158.455229 66.555256 
L 159.108193 67.71965 
L 159.761156 71.879092 
L 160.414119 66.478721 
L 161.067083 71.795545 
L 162.37301 62.386659 
L 163.025973 60.583034 
L 163.678936 57.019787 
L 164.3319 58.242648 
L 164.984863 54.736428 
L 165.637826 58.069507 
L 166.29079 57.83234 
L 166.943753 57.987392 
L 167.596717 56.078904 
L 168.24968 61.87504 
L 168.902643 63.114418 
L 169.555607 61.265698 
L 170.20857 60.479779 
L 171.514497 54.05957 
L 172.16746 51.908906 
L 172.820424 48.123238 
L 173.473387 50.648085 
L 174.12635 49.127952 
L 174.779314 53.127829 
L 176.085241 47.249295 
L 176.738204 54.307461 
L 177.391167 55.759699 
L 178.044131 59.402666 
L 178.697094 59.832944 
L 179.350057 58.413601 
L 180.003021 57.576544 
L 180.655984 61.90004 
L 181.308948 64.869351 
L 181.961911 62.996146 
L 182.614874 60.183643 
L 183.267838 60.307962 
L 183.920801 66.162252 
L 184.573765 62.647183 
L 185.226728 60.873949 
L 185.879691 65.926289 
L 186.532655 68.153936 
L 187.185618 64.09296 
L 187.838581 61.012182 
L 188.491545 67.289125 
L 189.144508 70.999577 
L 189.797472 69.81856 
L 190.450435 65.209758 
L 191.103398 65.031321 
L 191.756362 66.503376 
L 192.409325 66.669385 
L 193.062288 65.845459 
L 193.715252 64.840109 
L 194.368215 65.139849 
L 195.021179 60.914731 
L 195.674142 62.624908 
L 196.327105 65.374864 
L 196.980069 62.25881 
L 197.633032 65.325182 
L 198.285996 58.478697 
L 198.938959 56.027807 
L 199.591922 55.705669 
L 200.244886 54.306839 
L 200.897849 56.379125 
L 201.550812 53.491969 
L 202.203776 56.507942 
L 202.856739 54.150198 
L 203.509703 55.353071 
L 204.162666 59.497553 
L 204.815629 56.063949 
L 205.468593 49.661542 
L 206.121556 52.695468 
L 206.774519 51.861009 
L 207.427483 49.667745 
L 208.080446 49.614549 
L 208.73341 50.181751 
L 209.386373 50.008751 
L 210.039336 48.213541 
L 210.6923 52.638124 
L 211.345263 51.482059 
L 211.998227 52.002129 
L 212.65119 57.964347 
L 213.304153 55.084428 
L 213.957117 62.365525 
L 214.61008 67.814355 
L 215.263043 64.823544 
L 215.916007 62.789322 
L 216.56897 63.483073 
L 217.221934 66.750591 
L 217.874897 67.951504 
L 218.52786 64.46734 
L 219.180824 62.116193 
L 219.833787 58.467299 
L 220.48675 62.396317 
L 221.139714 56.384972 
L 221.792677 53.293125 
L 222.445641 48.414086 
L 223.098604 50.626161 
L 223.751567 45.821498 
L 224.404531 53.818176 
L 225.057494 49.716804 
L 225.710458 44.857963 
L 226.363421 46.151257 
L 227.016384 52.295336 
L 227.669348 57.290744 
L 228.322311 51.651243 
L 228.975274 50.041052 
L 229.628238 56.043704 
L 230.281201 50.823233 
L 230.934165 55.645098 
L 231.587128 51.361349 
L 232.240091 49.438986 
L 232.893055 52.846464 
L 233.546018 59.141257 
L 234.198981 57.710857 
L 234.851945 58.512067 
L 235.504908 53.492584 
L 236.157872 58.772653 
L 236.810835 55.047545 
L 237.463798 56.726981 
L 238.116762 60.034437 
L 238.769725 60.799158 
L 239.422688 57.566791 
L 240.728615 52.712086 
L 241.381579 55.584688 
L 242.034542 48.346927 
L 243.340469 49.629743 
L 243.993432 44.879017 
L 244.646396 50.616987 
L 245.299359 54.608632 
L 245.952322 55.803484 
L 246.605286 60.271534 
L 247.258249 58.685968 
L 247.911212 58.764267 
L 248.564176 56.528178 
L 249.870103 53.74677 
L 250.523066 47.260757 
L 251.176029 44.080583 
L 251.828993 45.717125 
L 252.481956 43.049179 
L 253.787883 49.50369 
L 254.440846 49.667764 
L 255.09381 53.206258 
L 255.746773 51.899875 
L 256.399736 53.114334 
L 257.705663 59.933143 
L 258.358627 58.360534 
L 259.01159 65.89025 
L 259.664553 64.332331 
L 260.317517 60.768971 
L 260.97048 60.739775 
L 261.623443 57.523786 
L 262.276407 60.725764 
L 262.92937 61.79714 
L 263.582334 61.090204 
L 264.88826 66.933199 
L 265.541224 65.902603 
L 266.194187 69.008825 
L 266.84715 67.297844 
L 267.500114 61.983821 
L 268.153077 71.738617 
L 268.806041 69.127252 
L 269.459004 64.373071 
L 270.111967 57.555442 
L 270.764931 58.621069 
L 271.417894 54.434942 
L 272.070858 59.769325 
L 273.376784 49.45128 
L 274.682711 53.979912 
L 275.988638 52.780566 
L 276.641601 56.704089 
L 277.294565 54.692261 
L 277.947528 57.936858 
L 278.600491 58.093644 
L 279.253455 58.989575 
L 279.906418 54.572799 
L 280.559381 60.629198 
L 281.212345 60.670604 
L 281.865308 59.644159 
L 282.518272 57.678839 
L 283.171235 58.233592 
L 283.824198 61.814751 
L 284.477162 60.756443 
L 285.130125 58.224944 
L 285.783089 59.931196 
L 286.436052 57.822771 
L 287.089015 56.855582 
L 287.741979 64.783088 
L 288.394942 64.691408 
L 289.047905 63.825998 
L 289.700869 61.873185 
L 291.006796 54.739985 
L 291.659759 57.846916 
L 292.312722 59.251472 
L 292.965686 58.941862 
L 293.618649 60.851844 
L 294.271612 57.824508 
L 294.924576 50.5374 
L 295.577539 50.663402 
L 296.230503 50.970663 
L 296.883466 50.838989 
L 297.536429 56.779717 
L 298.189393 57.311187 
L 298.842356 53.472374 
L 299.49532 50.878325 
L 300.148283 52.226215 
L 300.801246 60.992045 
L 301.45421 57.828611 
L 302.107173 53.468857 
L 302.760136 50.403105 
L 303.4131 50.022688 
L 304.066063 53.428859 
L 304.719027 48.610183 
L 305.37199 48.984709 
L 306.024953 52.340808 
L 306.677917 52.605215 
L 307.33088 51.246837 
L 307.983843 51.606087 
L 308.636807 53.927896 
L 309.28977 50.292273 
L 309.942734 52.398628 
L 311.24866 55.168031 
L 311.901624 65.835729 
L 312.554587 72.108203 
L 313.860514 79.134355 
L 314.513477 78.378099 
L 315.166441 81.211725 
L 315.819404 76.597259 
L 316.472367 67.445076 
L 317.125331 69.109723 
L 317.778294 64.250297 
L 318.431258 62.67661 
L 319.084221 57.454651 
L 319.737184 57.809225 
L 320.390148 59.014809 
L 321.043111 55.547888 
L 321.696074 57.380734 
L 322.349038 57.026875 
L 323.002001 58.856457 
L 323.654965 59.031078 
L 324.307928 61.584235 
L 324.960891 59.562934 
L 325.613855 67.16071 
L 326.266818 63.691621 
L 326.919782 59.591017 
L 327.572745 61.211145 
L 327.572745 61.211145 
" clip-path="url(#pfca2a7bff2)" style="fill: none; stroke-dasharray: 12,4.5; stroke-dashoffset: 0; stroke: #2d1e3e; stroke-width: 3"/>
   </g>
   <g id="line2d_20"/>
   <g id="line2d_21"/>
   <g id="line2d_22"/>
   <g id="line2d_23"/>
   <g id="line2d_24"/>
   <g id="line2d_25"/>
   <g id="patch_3">
    <path d="M 53.328125 314.44 
L 53.328125 7.2 
" style="fill: none; stroke: #000000; stroke-width: 0.8; stroke-linejoin: miter; stroke-linecap: square"/>
   </g>
   <g id="patch_4">
    <path d="M 53.328125 314.44 
L 340.632013 314.44 
" style="fill: none; stroke: #000000; stroke-width: 0.8; stroke-linejoin: miter; stroke-linecap: square"/>
   </g>
  </g>
  <g id="legend_1">
   <g id="line2d_26">
    <path d="M 345.797888 138.562187 
L 355.797888 138.562187 
L 365.797888 138.562187 
" style="fill: none"/>
   </g>
   <g id="text_18">
    <!-- ratio -->
    <g transform="translate(373.797888 142.062187) scale(0.1 -0.1)">
     <defs>
      <path id="DejaVuSans-69" d="M 603 3500 
L 1178 3500 
L 1178 0 
L 603 0 
L 603 3500 
z
M 603 4863 
L 1178 4863 
L 1178 4134 
L 603 4134 
L 603 4863 
z
" transform="scale(0.015625)"/>
     </defs>
     <use xlink:href="#DejaVuSans-72"/>
     <use xlink:href="#DejaVuSans-61" x="41.113281"/>
     <use xlink:href="#DejaVuSans-74" x="102.392578"/>
     <use xlink:href="#DejaVuSans-69" x="141.601562"/>
     <use xlink:href="#DejaVuSans-6f" x="169.384766"/>
    </g>
   </g>
   <g id="line2d_27">
    <path d="M 345.797888 153.240312 
L 355.797888 153.240312 
L 365.797888 153.240312 
" style="fill: none; stroke: #edd1cb; stroke-width: 0.75; stroke-linecap: square"/>
   </g>
   <g id="text_19">
    <!-- 75.0 -->
    <g transform="translate(373.797888 156.740312) scale(0.1 -0.1)">
     <defs>
      <path id="DejaVuSans-37" d="M 525 4666 
L 3525 4666 
L 3525 4397 
L 1831 0 
L 1172 0 
L 2766 4134 
L 525 4134 
L 525 4666 
z
" transform="scale(0.015625)"/>
      <path id="DejaVuSans-2e" d="M 684 794 
L 1344 794 
L 1344 0 
L 684 0 
L 684 794 
z
" transform="scale(0.015625)"/>
     </defs>
     <use xlink:href="#DejaVuSans-37"/>
     <use xlink:href="#DejaVuSans-35" x="63.623047"/>
     <use xlink:href="#DejaVuSans-2e" x="127.246094"/>
     <use xlink:href="#DejaVuSans-30" x="159.033203"/>
    </g>
   </g>
   <g id="line2d_28">
    <path d="M 345.797888 167.918437 
L 355.797888 167.918437 
L 365.797888 167.918437 
" style="fill: none; stroke: #2d1e3e; stroke-width: 3; stroke-linecap: square"/>
   </g>
   <g id="text_20">
    <!-- 100.0 -->
    <g transform="translate(373.797888 171.418437) scale(0.1 -0.1)">
     <use xlink:href="#DejaVuSans-31"/>
     <use xlink:href="#DejaVuSans-30" x="63.623047"/>
     <use xlink:href="#DejaVuSans-30" x="127.246094"/>
     <use xlink:href="#DejaVuSans-2e" x="190.869141"/>
     <use xlink:href="#DejaVuSans-30" x="222.65625"/>
    </g>
   </g>
   <g id="line2d_29">
    <path d="M 345.797888 182.596563 
L 355.797888 182.596563 
L 365.797888 182.596563 
" style="fill: none"/>
   </g>
   <g id="text_21">
    <!-- pR -->
    <g transform="translate(373.797888 186.096563) scale(0.1 -0.1)">
     <defs>
      <path id="DejaVuSans-52" d="M 2841 2188 
Q 3044 2119 3236 1894 
Q 3428 1669 3622 1275 
L 4263 0 
L 3584 0 
L 2988 1197 
Q 2756 1666 2539 1819 
Q 2322 1972 1947 1972 
L 1259 1972 
L 1259 0 
L 628 0 
L 628 4666 
L 2053 4666 
Q 2853 4666 3247 4331 
Q 3641 3997 3641 3322 
Q 3641 2881 3436 2590 
Q 3231 2300 2841 2188 
z
M 1259 4147 
L 1259 2491 
L 2053 2491 
Q 2509 2491 2742 2702 
Q 2975 2913 2975 3322 
Q 2975 3731 2742 3939 
Q 2509 4147 2053 4147 
L 1259 4147 
z
" transform="scale(0.015625)"/>
     </defs>
     <use xlink:href="#DejaVuSans-70"/>
     <use xlink:href="#DejaVuSans-52" x="63.476562"/>
    </g>
   </g>
   <g id="line2d_30">
    <path d="M 345.797888 197.274687 
L 355.797888 197.274687 
L 365.797888 197.274687 
" style="fill: none; stroke: #333333; stroke-width: 1.5; stroke-linecap: square"/>
   </g>
   <g id="text_22">
    <!-- 0.0002 -->
    <g transform="translate(373.797888 200.774687) scale(0.1 -0.1)">
     <use xlink:href="#DejaVuSans-30"/>
     <use xlink:href="#DejaVuSans-2e" x="63.623047"/>
     <use xlink:href="#DejaVuSans-30" x="95.410156"/>
     <use xlink:href="#DejaVuSans-30" x="159.033203"/>
     <use xlink:href="#DejaVuSans-30" x="222.65625"/>
     <use xlink:href="#DejaVuSans-32" x="286.279297"/>
    </g>
   </g>
   <g id="line2d_31">
    <path d="M 345.797888 211.952812 
L 355.797888 211.952812 
L 365.797888 211.952812 
" style="fill: none; stroke-dasharray: 6,2.25; stroke-dashoffset: 0; stroke: #333333; stroke-width: 1.5"/>
   </g>
   <g id="text_23">
    <!-- 0.002 -->
    <g transform="translate(373.797888 215.452812) scale(0.1 -0.1)">
     <use xlink:href="#DejaVuSans-30"/>
     <use xlink:href="#DejaVuSans-2e" x="63.623047"/>
     <use xlink:href="#DejaVuSans-30" x="95.410156"/>
     <use xlink:href="#DejaVuSans-30" x="159.033203"/>
     <use xlink:href="#DejaVuSans-32" x="222.65625"/>
    </g>
   </g>
  </g>
 </g>
 <defs>
  <clipPath id="pfca2a7bff2">
   <rect x="53.328125" y="7.2" width="287.303888" height="307.24"/>
  </clipPath>
 </defs>
</svg>
