<?xml version="1.0" encoding="utf-8" standalone="no"?>
<!DOCTYPE svg PUBLIC "-//W3C//DTD SVG 1.1//EN"
  "http://www.w3.org/Graphics/SVG/1.1/DTD/svg11.dtd">
<svg xmlns:xlink="http://www.w3.org/1999/xlink" width="510.23622pt" height="226.771654pt" viewBox="0 0 510.23622 226.771654" xmlns="http://www.w3.org/2000/svg" version="1.1">
 <metadata>
  <rdf:RDF xmlns:dc="http://purl.org/dc/elements/1.1/" xmlns:cc="http://creativecommons.org/ns#" xmlns:rdf="http://www.w3.org/1999/02/22-rdf-syntax-ns#">
   <cc:Work>
    <dc:type rdf:resource="http://purl.org/dc/dcmitype/StillImage"/>
    <dc:date>2026-05-26T09:04:24.849830</dc:date>
    <dc:format>image/svg+xml</dc:format>
    <dc:creator>
     <cc:Agent>
      <dc:title>Matplotlib v3.9.4, https://matplotlib.org/</dc:title>
     </cc:Agent>
    </dc:creator>
   </cc:Work>
  </rdf:RDF>
 </metadata>
 <defs>
  <style type="text/css">*{stroke-linejoin: round; stroke-linecap: butt}</style>
 </defs>
 <g id="figure_1">
  <g id="patch_1">
   <path d="M 0 226.771654 
L 510.23622 226.771654 
L 510.23622 0 
L 0 0 
z
" style="fill: #ffffff"/>
  </g>
  <g id="subfigure_1">
   <g id="patch_2">
    <path d="M 0 226.771654 
L 255.11811 226.771654 
L 255.11811 0 
L 0 0 
L 0 226.771654 
z
" style="fill: none"/>
   </g>
   <g id="subfigure_2">
    <g id="patch_3">
     <path d="M 0 64.791901 
L 255.11811 64.791901 
L 255.11811 0 
L 0 0 
L 0 64.791901 
z
" style="fill: none"/>
    </g>
    <g id="text_1">
     <!-- a -->
     <g transform="translate(0 6.47919) scale(0.2 -0.2)">
      <defs>
       <path id="Helvetica-61" d="M 844 891 
Q 844 647 1022 506 
Q 1200 366 1444 366 
Q 1741 366 2019 503 
Q 2488 731 2488 1250 
L 2488 1703 
Q 2384 1638 2221 1594 
Q 2059 1550 1903 1531 
L 1563 1488 
Q 1256 1447 1103 1359 
Q 844 1213 844 891 
z
M 2206 2028 
Q 2400 2053 2466 2191 
Q 2503 2266 2503 2406 
Q 2503 2694 2298 2823 
Q 2094 2953 1713 2953 
Q 1272 2953 1088 2716 
Q 984 2584 953 2325 
L 428 2325 
Q 444 2944 830 3186 
Q 1216 3428 1725 3428 
Q 2316 3428 2684 3203 
Q 3050 2978 3050 2503 
L 3050 575 
Q 3050 488 3086 434 
Q 3122 381 3238 381 
Q 3275 381 3322 386 
Q 3369 391 3422 400 
L 3422 -16 
Q 3291 -53 3222 -62 
Q 3153 -72 3034 -72 
Q 2744 -72 2613 134 
Q 2544 244 2516 444 
Q 2344 219 2022 53 
Q 1700 -113 1313 -113 
Q 847 -113 551 170 
Q 256 453 256 878 
Q 256 1344 547 1600 
Q 838 1856 1309 1916 
L 2206 2028 
z
M 1741 3428 
L 1741 3428 
z
" transform="scale(0.015625)"/>
      </defs>
      <use xlink:href="#Helvetica-61"/>
     </g>
    </g>
   </g>
   <g id="subfigure_3">
    <g id="patch_4">
     <path d="M 0 226.771654 
L 255.11811 226.771654 
L 255.11811 64.791901 
L 0 64.791901 
L 0 226.771654 
z
" style="fill: none"/>
    </g>
    <g id="axes_1">
     <g id="patch_5">
      <path d="M 68.385827 208.953881 
L 193.110236 208.953881 
L 193.110236 84.229471 
L 68.385827 84.229471 
z
" style="fill: #ffffff"/>
     </g>
     <g id="matplotlib.axis_1">
      <g id="text_2">
       <!-- Amount of Trail -->
       <g transform="translate(98.204781 219.840381) scale(0.096 -0.096)">
        <defs>
         <path id="Helvetica-41" d="M 2844 1881 
L 2147 3909 
L 1406 1881 
L 2844 1881 
z
M 1822 4591 
L 2525 4591 
L 4191 0 
L 3509 0 
L 3044 1375 
L 1228 1375 
L 731 0 
L 94 0 
L 1822 4591 
z
" transform="scale(0.015625)"/>
         <path id="Helvetica-6d" d="M 413 3347 
L 969 3347 
L 969 2872 
Q 1169 3119 1331 3231 
Q 1609 3422 1963 3422 
Q 2363 3422 2606 3225 
Q 2744 3113 2856 2894 
Q 3044 3163 3297 3292 
Q 3550 3422 3866 3422 
Q 4541 3422 4784 2934 
Q 4916 2672 4916 2228 
L 4916 0 
L 4331 0 
L 4331 2325 
Q 4331 2659 4164 2784 
Q 3997 2909 3756 2909 
Q 3425 2909 3186 2687 
Q 2947 2466 2947 1947 
L 2947 0 
L 2375 0 
L 2375 2184 
Q 2375 2525 2294 2681 
Q 2166 2916 1816 2916 
Q 1497 2916 1236 2669 
Q 975 2422 975 1775 
L 975 0 
L 413 0 
L 413 3347 
z
" transform="scale(0.015625)"/>
         <path id="Helvetica-6f" d="M 1741 363 
Q 2300 363 2508 786 
Q 2716 1209 2716 1728 
Q 2716 2197 2566 2491 
Q 2328 2953 1747 2953 
Q 1231 2953 997 2559 
Q 763 2166 763 1609 
Q 763 1075 997 719 
Q 1231 363 1741 363 
z
M 1763 3444 
Q 2409 3444 2856 3012 
Q 3303 2581 3303 1744 
Q 3303 934 2909 406 
Q 2516 -122 1688 -122 
Q 997 -122 590 345 
Q 184 813 184 1600 
Q 184 2444 612 2944 
Q 1041 3444 1763 3444 
z
M 1744 3428 
L 1744 3428 
z
" transform="scale(0.015625)"/>
         <path id="Helvetica-75" d="M 975 3347 
L 975 1125 
Q 975 869 1056 706 
Q 1206 406 1616 406 
Q 2203 406 2416 931 
Q 2531 1213 2531 1703 
L 2531 3347 
L 3094 3347 
L 3094 0 
L 2563 0 
L 2569 494 
Q 2459 303 2297 172 
Q 1975 -91 1516 -91 
Q 800 -91 541 388 
Q 400 644 400 1072 
L 400 3347 
L 975 3347 
z
M 1747 3428 
L 1747 3428 
z
" transform="scale(0.015625)"/>
         <path id="Helvetica-6e" d="M 413 3347 
L 947 3347 
L 947 2872 
Q 1184 3166 1450 3294 
Q 1716 3422 2041 3422 
Q 2753 3422 3003 2925 
Q 3141 2653 3141 2147 
L 3141 0 
L 2569 0 
L 2569 2109 
Q 2569 2416 2478 2603 
Q 2328 2916 1934 2916 
Q 1734 2916 1606 2875 
Q 1375 2806 1200 2600 
Q 1059 2434 1017 2257 
Q 975 2081 975 1753 
L 975 0 
L 413 0 
L 413 3347 
z
M 1734 3428 
L 1734 3428 
z
" transform="scale(0.015625)"/>
         <path id="Helvetica-74" d="M 525 4281 
L 1094 4281 
L 1094 3347 
L 1628 3347 
L 1628 2888 
L 1094 2888 
L 1094 703 
Q 1094 528 1213 469 
Q 1278 434 1431 434 
Q 1472 434 1519 436 
Q 1566 438 1628 444 
L 1628 0 
Q 1531 -28 1426 -40 
Q 1322 -53 1200 -53 
Q 806 -53 665 148 
Q 525 350 525 672 
L 525 2888 
L 72 2888 
L 72 3347 
L 525 3347 
L 525 4281 
z
" transform="scale(0.015625)"/>
         <path id="Helvetica-20" transform="scale(0.015625)"/>
         <path id="Helvetica-66" d="M 553 3856 
Q 566 4206 675 4369 
Q 872 4656 1434 4656 
Q 1488 4656 1544 4653 
Q 1600 4650 1672 4644 
L 1672 4131 
Q 1584 4138 1545 4139 
Q 1506 4141 1472 4141 
Q 1216 4141 1166 4008 
Q 1116 3875 1116 3331 
L 1672 3331 
L 1672 2888 
L 1109 2888 
L 1109 0 
L 553 0 
L 553 2888 
L 88 2888 
L 88 3331 
L 553 3331 
L 553 3856 
z
" transform="scale(0.015625)"/>
         <path id="Helvetica-54" d="M 3828 4591 
L 3828 4044 
L 2281 4044 
L 2281 0 
L 1650 0 
L 1650 4044 
L 103 4044 
L 103 4591 
L 3828 4591 
z
" transform="scale(0.015625)"/>
         <path id="Helvetica-72" d="M 428 3347 
L 963 3347 
L 963 2769 
Q 1028 2938 1284 3180 
Q 1541 3422 1875 3422 
Q 1891 3422 1928 3419 
Q 1966 3416 2056 3406 
L 2056 2813 
Q 2006 2822 1964 2825 
Q 1922 2828 1872 2828 
Q 1447 2828 1219 2554 
Q 991 2281 991 1925 
L 991 0 
L 428 0 
L 428 3347 
z
" transform="scale(0.015625)"/>
         <path id="Helvetica-69" d="M 413 3331 
L 984 3331 
L 984 0 
L 413 0 
L 413 3331 
z
M 413 4591 
L 984 4591 
L 984 3953 
L 413 3953 
L 413 4591 
z
" transform="scale(0.015625)"/>
         <path id="Helvetica-6c" d="M 428 4591 
L 991 4591 
L 991 0 
L 428 0 
L 428 4591 
z
" transform="scale(0.015625)"/>
        </defs>
        <use xlink:href="#Helvetica-41"/>
        <use xlink:href="#Helvetica-6d" x="66.699219"/>
        <use xlink:href="#Helvetica-6f" x="150"/>
        <use xlink:href="#Helvetica-75" x="205.615234"/>
        <use xlink:href="#Helvetica-6e" x="261.230469"/>
        <use xlink:href="#Helvetica-74" x="316.845703"/>
        <use xlink:href="#Helvetica-20" x="344.628906"/>
        <use xlink:href="#Helvetica-6f" x="372.412109"/>
        <use xlink:href="#Helvetica-66" x="428.027344"/>
        <use xlink:href="#Helvetica-20" x="455.810547"/>
        <use xlink:href="#Helvetica-54" x="483.59375"/>
        <use xlink:href="#Helvetica-72" x="544.677734"/>
        <use xlink:href="#Helvetica-61" x="577.978516"/>
        <use xlink:href="#Helvetica-69" x="633.59375"/>
        <use xlink:href="#Helvetica-6c" x="655.810547"/>
       </g>
      </g>
     </g>
     <g id="matplotlib.axis_2">
      <g id="text_3">
       <!-- Travel Costs -->
       <g transform="translate(62.384827 173.529426) rotate(-90) scale(0.096 -0.096)">
        <defs>
         <path id="Helvetica-76" d="M 688 3347 
L 1581 622 
L 2516 3347 
L 3131 3347 
L 1869 0 
L 1269 0 
L 34 3347 
L 688 3347 
z
" transform="scale(0.015625)"/>
         <path id="Helvetica-65" d="M 1806 3422 
Q 2163 3422 2497 3255 
Q 2831 3088 3006 2822 
Q 3175 2569 3231 2231 
Q 3281 2000 3281 1494 
L 828 1494 
Q 844 984 1069 676 
Q 1294 369 1766 369 
Q 2206 369 2469 659 
Q 2619 828 2681 1050 
L 3234 1050 
Q 3213 866 3089 639 
Q 2966 413 2813 269 
Q 2556 19 2178 -69 
Q 1975 -119 1719 -119 
Q 1094 -119 659 336 
Q 225 791 225 1609 
Q 225 2416 662 2919 
Q 1100 3422 1806 3422 
z
M 2703 1941 
Q 2669 2306 2544 2525 
Q 2313 2931 1772 2931 
Q 1384 2931 1121 2651 
Q 859 2372 844 1941 
L 2703 1941 
z
M 1753 3428 
L 1753 3428 
z
" transform="scale(0.015625)"/>
         <path id="Helvetica-43" d="M 2422 4716 
Q 3294 4716 3775 4256 
Q 4256 3797 4309 3213 
L 3703 3213 
Q 3600 3656 3292 3915 
Q 2984 4175 2428 4175 
Q 1750 4175 1333 3698 
Q 916 3222 916 2238 
Q 916 1431 1292 929 
Q 1669 428 2416 428 
Q 3103 428 3463 956 
Q 3653 1234 3747 1688 
L 4353 1688 
Q 4272 963 3816 472 
Q 3269 -119 2341 -119 
Q 1541 -119 997 366 
Q 281 1006 281 2344 
Q 281 3359 819 4009 
Q 1400 4716 2422 4716 
z
M 2297 4716 
L 2297 4716 
z
" transform="scale(0.015625)"/>
         <path id="Helvetica-73" d="M 747 1050 
Q 772 769 888 619 
Q 1100 347 1625 347 
Q 1938 347 2175 483 
Q 2413 619 2413 903 
Q 2413 1119 2222 1231 
Q 2100 1300 1741 1391 
L 1294 1503 
Q 866 1609 663 1741 
Q 300 1969 300 2372 
Q 300 2847 642 3140 
Q 984 3434 1563 3434 
Q 2319 3434 2653 2991 
Q 2863 2709 2856 2384 
L 2325 2384 
Q 2309 2575 2191 2731 
Q 1997 2953 1519 2953 
Q 1200 2953 1036 2831 
Q 872 2709 872 2509 
Q 872 2291 1088 2159 
Q 1213 2081 1456 2022 
L 1828 1931 
Q 2434 1784 2641 1647 
Q 2969 1431 2969 969 
Q 2969 522 2630 197 
Q 2291 -128 1597 -128 
Q 850 -128 539 211 
Q 228 550 206 1050 
L 747 1050 
z
M 1578 3428 
L 1578 3428 
z
" transform="scale(0.015625)"/>
        </defs>
        <use xlink:href="#Helvetica-54"/>
        <use xlink:href="#Helvetica-72" x="61.083984"/>
        <use xlink:href="#Helvetica-61" x="94.384766"/>
        <use xlink:href="#Helvetica-76" x="150"/>
        <use xlink:href="#Helvetica-65" x="200"/>
        <use xlink:href="#Helvetica-6c" x="255.615234"/>
        <use xlink:href="#Helvetica-20" x="277.832031"/>
        <use xlink:href="#Helvetica-43" x="305.615234"/>
        <use xlink:href="#Helvetica-6f" x="377.832031"/>
        <use xlink:href="#Helvetica-73" x="433.447266"/>
        <use xlink:href="#Helvetica-74" x="483.447266"/>
        <use xlink:href="#Helvetica-73" x="511.230469"/>
       </g>
      </g>
     </g>
     <g id="patch_6">
      <path d="M 68.385827 208.953881 
L 68.385827 84.229471 
" style="fill: none; stroke: #000000; stroke-linejoin: miter; stroke-linecap: square"/>
     </g>
     <g id="patch_7">
      <path d="M 68.385827 208.953881 
L 193.110236 208.953881 
" style="fill: none; stroke: #000000; stroke-linejoin: miter; stroke-linecap: square"/>
     </g>
    </g>
    <g id="text_4">
     <!-- b -->
     <g transform="translate(0 80.989876) scale(0.2 -0.2)">
      <defs>
       <path id="Helvetica-62" d="M 369 4606 
L 916 4606 
L 916 2941 
Q 1100 3181 1356 3307 
Q 1613 3434 1913 3434 
Q 2538 3434 2927 3004 
Q 3316 2575 3316 1738 
Q 3316 944 2931 419 
Q 2547 -106 1866 -106 
Q 1484 -106 1222 78 
Q 1066 188 888 428 
L 888 0 
L 369 0 
L 369 4606 
z
M 1831 391 
Q 2288 391 2514 753 
Q 2741 1116 2741 1709 
Q 2741 2238 2514 2584 
Q 2288 2931 1847 2931 
Q 1463 2931 1173 2647 
Q 884 2363 884 1709 
Q 884 1238 1003 944 
Q 1225 391 1831 391 
z
" transform="scale(0.015625)"/>
      </defs>
      <use xlink:href="#Helvetica-62"/>
     </g>
    </g>
   </g>
  </g>
  <g id="subfigure_4">
   <g id="patch_8">
    <path d="M 255.11811 226.771654 
L 510.23622 226.771654 
L 510.23622 0 
L 255.11811 0 
L 255.11811 226.771654 
z
" style="fill: none"/>
   </g>
   <g id="axes_2">
    <g id="patch_9">
     <path d="M 287.007874 201.826772 
L 484.724409 201.826772 
L 484.724409 27.212598 
L 287.007874 27.212598 
z
" style="fill: #ffffff"/>
    </g>
    <g id="PathCollection_1">
     <path d="M 295.998433 42.791551 
C 296.63492 42.791551 297.245424 42.538672 297.695489 42.088607 
C 298.145553 41.638542 298.398433 41.028038 298.398433 40.391551 
C 298.398433 39.755063 298.145553 39.144559 297.695489 38.694494 
C 297.245424 38.24443 296.63492 37.991551 295.998433 37.991551 
C 295.361945 37.991551 294.751441 38.24443 294.301376 38.694494 
C 293.851312 39.144559 293.598433 39.755063 293.598433 40.391551 
C 293.598433 41.028038 293.851312 41.638542 294.301376 42.088607 
C 294.751441 42.538672 295.361945 42.791551 295.998433 42.791551 
z
" clip-path="url(#p0171745607)" style="fill: #edd1cb; stroke: #ffffff; stroke-width: 0.384"/>
     <path d="M 296.002416 42.818978 
C 296.638903 42.818978 297.249407 42.566099 297.699472 42.116034 
C 298.149537 41.66597 298.402416 41.055465 298.402416 40.418978 
C 298.402416 39.78249 298.149537 39.171986 297.699472 38.721922 
C 297.249407 38.271857 296.638903 38.018978 296.002416 38.018978 
C 295.365928 38.018978 294.755424 38.271857 294.305359 38.721922 
C 293.855295 39.171986 293.602416 39.78249 293.602416 40.418978 
C 293.602416 41.055465 293.855295 41.66597 294.305359 42.116034 
C 294.755424 42.566099 295.365928 42.818978 296.002416 42.818978 
z
" clip-path="url(#p0171745607)" style="fill: #edd1cb; stroke: #ffffff; stroke-width: 0.384"/>
     <path d="M 294.794989 37.619252 
L 295.994989 36.419252 
L 297.194989 37.619252 
L 298.394989 36.419252 
L 297.194989 35.219252 
L 298.394989 34.019252 
L 297.194989 32.819252 
L 295.994989 34.019252 
L 294.794989 32.819252 
L 293.594989 34.019252 
L 294.794989 35.219252 
L 293.594989 36.419252 
z
" clip-path="url(#p0171745607)" style="fill: #edd1cb; stroke: #ffffff; stroke-width: 0.384"/>
     <path d="M 294.795912 37.549606 
L 295.995912 36.349606 
L 297.195912 37.549606 
L 298.395912 36.349606 
L 297.195912 35.149606 
L 298.395912 33.949606 
L 297.195912 32.749606 
L 295.995912 33.949606 
L 294.795912 32.749606 
L 293.595912 33.949606 
L 294.795912 35.149606 
L 293.595912 36.349606 
z
" clip-path="url(#p0171745607)" style="fill: #edd1cb; stroke: #ffffff; stroke-width: 0.384"/>
     <path d="M 296.297091 43.044784 
C 296.933579 43.044784 297.544083 42.791905 297.994148 42.34184 
C 298.444212 41.891776 298.697091 41.281271 298.697091 40.644784 
C 298.697091 40.008297 298.444212 39.397792 297.994148 38.947728 
C 297.544083 38.497663 296.933579 38.244784 296.297091 38.244784 
C 295.660604 38.244784 295.0501 38.497663 294.600035 38.947728 
C 294.14997 39.397792 293.897091 40.008297 293.897091 40.644784 
C 293.897091 41.281271 294.14997 41.891776 294.600035 42.34184 
C 295.0501 42.791905 295.660604 43.044784 296.297091 43.044784 
z
" clip-path="url(#p0171745607)" style="fill: #e9c6c2; stroke: #ffffff; stroke-width: 0.384"/>
     <path d="M 296.232056 43.023691 
C 296.868543 43.023691 297.479048 42.770812 297.929112 42.320747 
C 298.379177 41.870683 298.632056 41.260178 298.632056 40.623691 
C 298.632056 39.987203 298.379177 39.376699 297.929112 38.926635 
C 297.479048 38.47657 296.868543 38.223691 296.232056 38.223691 
C 295.595569 38.223691 294.985064 38.47657 294.535 38.926635 
C 294.084935 39.376699 293.832056 39.987203 293.832056 40.623691 
C 293.832056 41.260178 294.084935 41.870683 294.535 42.320747 
C 294.985064 42.770812 295.595569 43.023691 296.232056 43.023691 
z
" clip-path="url(#p0171745607)" style="fill: #e9c6c2; stroke: #ffffff; stroke-width: 0.384"/>
     <path d="M 295.078509 37.848132 
L 296.278509 36.648132 
L 297.478509 37.848132 
L 298.678509 36.648132 
L 297.478509 35.448132 
L 298.678509 34.248132 
L 297.478509 33.048132 
L 296.278509 34.248132 
L 295.078509 33.048132 
L 293.878509 34.248132 
L 295.078509 35.448132 
L 293.878509 36.648132 
z
" clip-path="url(#p0171745607)" style="fill: #e9c6c2; stroke: #ffffff; stroke-width: 0.384"/>
     <path d="M 295.054054 37.764748 
L 296.254054 36.564748 
L 297.454054 37.764748 
L 298.654054 36.564748 
L 297.454054 35.364748 
L 298.654054 34.164748 
L 297.454054 32.964748 
L 296.254054 34.164748 
L 295.054054 32.964748 
L 293.854054 34.164748 
L 295.054054 35.364748 
L 293.854054 36.564748 
z
" clip-path="url(#p0171745607)" style="fill: #e9c6c2; stroke: #ffffff; stroke-width: 0.384"/>
     <path d="M 296.898358 43.462942 
C 297.534845 43.462942 298.145349 43.210063 298.595414 42.759998 
C 299.045479 42.309934 299.298358 41.699429 299.298358 41.062942 
C 299.298358 40.426455 299.045479 39.81595 298.595414 39.365886 
C 298.145349 38.915821 297.534845 38.662942 296.898358 38.662942 
C 296.26187 38.662942 295.651366 38.915821 295.201301 39.365886 
C 294.751237 39.81595 294.498358 40.426455 294.498358 41.062942 
C 294.498358 41.699429 294.751237 42.309934 295.201301 42.759998 
C 295.651366 43.210063 296.26187 43.462942 296.898358 43.462942 
z
" clip-path="url(#p0171745607)" style="fill: #e5baba; stroke: #ffffff; stroke-width: 0.384"/>
     <path d="M 296.694413 43.252263 
C 297.330901 43.252263 297.941405 42.999384 298.39147 42.54932 
C 298.841534 42.099255 299.094413 41.488751 299.094413 40.852263 
C 299.094413 40.215776 298.841534 39.605272 298.39147 39.155207 
C 297.941405 38.705142 297.330901 38.452263 296.694413 38.452263 
C 296.057926 38.452263 295.447422 38.705142 294.997357 39.155207 
C 294.547292 39.605272 294.294413 40.215776 294.294413 40.852263 
C 294.294413 41.488751 294.547292 42.099255 294.997357 42.54932 
C 295.447422 42.999384 296.057926 43.252263 296.694413 43.252263 
z
" clip-path="url(#p0171745607)" style="fill: #e5baba; stroke: #ffffff; stroke-width: 0.384"/>
     <path d="M 295.443144 38.037287 
L 296.643144 36.837287 
L 297.843144 38.037287 
L 299.043144 36.837287 
L 297.843144 35.637287 
L 299.043144 34.437287 
L 297.843144 33.237287 
L 296.643144 34.437287 
L 295.443144 33.237287 
L 294.243144 34.437287 
L 295.443144 35.637287 
L 294.243144 36.837287 
z
" clip-path="url(#p0171745607)" style="fill: #e5baba; stroke: #ffffff; stroke-width: 0.384"/>
     <path d="M 295.53221 38.146959 
L 296.73221 36.946959 
L 297.93221 38.146959 
L 299.13221 36.946959 
L 297.93221 35.746959 
L 299.13221 34.546959 
L 297.93221 33.346959 
L 296.73221 34.546959 
L 295.53221 33.346959 
L 294.33221 34.546959 
L 295.53221 35.746959 
L 294.33221 36.946959 
z
" clip-path="url(#p0171745607)" style="fill: #e5baba; stroke: #ffffff; stroke-width: 0.384"/>
     <path d="M 297.637843 43.886242 
C 298.274331 43.886242 298.884835 43.633363 299.3349 43.183298 
C 299.784964 42.733234 300.037843 42.122729 300.037843 41.486242 
C 300.037843 40.849754 299.784964 40.23925 299.3349 39.789186 
C 298.884835 39.339121 298.274331 39.086242 297.637843 39.086242 
C 297.001356 39.086242 296.390852 39.339121 295.940787 39.789186 
C 295.490723 40.23925 295.237843 40.849754 295.237843 41.486242 
C 295.237843 42.122729 295.490723 42.733234 295.940787 43.183298 
C 296.390852 43.633363 297.001356 43.886242 297.637843 43.886242 
z
" clip-path="url(#p0171745607)" style="fill: #dfaeb2; stroke: #ffffff; stroke-width: 0.384"/>
     <path d="M 297.510189 43.884584 
C 298.146676 43.884584 298.75718 43.631705 299.207245 43.181641 
C 299.657309 42.731576 299.910189 42.121072 299.910189 41.484584 
C 299.910189 40.848097 299.657309 40.237593 299.207245 39.787528 
C 298.75718 39.337464 298.146676 39.084584 297.510189 39.084584 
C 296.873701 39.084584 296.263197 39.337464 295.813132 39.787528 
C 295.363068 40.237593 295.110189 40.848097 295.110189 41.484584 
C 295.110189 42.121072 295.363068 42.731576 295.813132 43.181641 
C 296.263197 43.631705 296.873701 43.884584 297.510189 43.884584 
z
" clip-path="url(#p0171745607)" style="fill: #dfaeb2; stroke: #ffffff; stroke-width: 0.384"/>
     <path d="M 296.801901 39.375256 
L 298.001901 38.175256 
L 299.201901 39.375256 
L 300.401901 38.175256 
L 299.201901 36.975256 
L 300.401901 35.775256 
L 299.201901 34.575256 
L 298.001901 35.775256 
L 296.801901 34.575256 
L 295.601901 35.775256 
L 296.801901 36.975256 
L 295.601901 38.175256 
z
" clip-path="url(#p0171745607)" style="fill: #dfaeb2; stroke: #ffffff; stroke-width: 0.384"/>
     <path d="M 296.235316 38.60551 
L 297.435316 37.40551 
L 298.635316 38.60551 
L 299.835316 37.40551 
L 298.635316 36.20551 
L 299.835316 35.00551 
L 298.635316 33.80551 
L 297.435316 35.00551 
L 296.235316 33.80551 
L 295.035316 35.00551 
L 296.235316 36.20551 
L 295.035316 37.40551 
z
" clip-path="url(#p0171745607)" style="fill: #dfaeb2; stroke: #ffffff; stroke-width: 0.384"/>
     <path d="M 299.342796 45.826728 
C 299.979284 45.826728 300.589788 45.573849 301.039853 45.123784 
C 301.489917 44.67372 301.742796 44.063215 301.742796 43.426728 
C 301.742796 42.79024 301.489917 42.179736 301.039853 41.729672 
C 300.589788 41.279607 299.979284 41.026728 299.342796 41.026728 
C 298.706309 41.026728 298.095805 41.279607 297.64574 41.729672 
C 297.195676 42.179736 296.942796 42.79024 296.942796 43.426728 
C 296.942796 44.063215 297.195676 44.67372 297.64574 45.123784 
C 298.095805 45.573849 298.706309 45.826728 299.342796 45.826728 
z
" clip-path="url(#p0171745607)" style="fill: #daa2ac; stroke: #ffffff; stroke-width: 0.384"/>
     <path d="M 299.641474 45.968552 
C 300.277962 45.968552 300.888466 45.715672 301.33853 45.265608 
C 301.788595 44.815543 302.041474 44.205039 302.041474 43.568552 
C 302.041474 42.932064 301.788595 42.32156 301.33853 41.871495 
C 300.888466 41.421431 300.277962 41.168552 299.641474 41.168552 
C 299.004987 41.168552 298.394482 41.421431 297.944418 41.871495 
C 297.494353 42.32156 297.241474 42.932064 297.241474 43.568552 
C 297.241474 44.205039 297.494353 44.815543 297.944418 45.265608 
C 298.394482 45.715672 299.004987 45.968552 299.641474 45.968552 
z
" clip-path="url(#p0171745607)" style="fill: #daa2ac; stroke: #ffffff; stroke-width: 0.384"/>
     <path d="M 314.534193 80.580512 
L 315.734193 79.380512 
L 316.934193 80.580512 
L 318.134193 79.380512 
L 316.934193 78.180512 
L 318.134193 76.980512 
L 316.934193 75.780512 
L 315.734193 76.980512 
L 314.534193 75.780512 
L 313.334193 76.980512 
L 314.534193 78.180512 
L 313.334193 79.380512 
z
" clip-path="url(#p0171745607)" style="fill: #daa2ac; stroke: #ffffff; stroke-width: 0.384"/>
     <path d="M 311.677234 76.459708 
L 312.877234 75.259708 
L 314.077234 76.459708 
L 315.277234 75.259708 
L 314.077234 74.059708 
L 315.277234 72.859708 
L 314.077234 71.659708 
L 312.877234 72.859708 
L 311.677234 71.659708 
L 310.477234 72.859708 
L 311.677234 74.059708 
L 310.477234 75.259708 
z
" clip-path="url(#p0171745607)" style="fill: #daa2ac; stroke: #ffffff; stroke-width: 0.384"/>
     <path d="M 332.35497 112.635435 
C 332.991458 112.635435 333.601962 112.382555 334.052027 111.932491 
C 334.502091 111.482426 334.75497 110.871922 334.75497 110.235435 
C 334.75497 109.598947 334.502091 108.988443 334.052027 108.538378 
C 333.601962 108.088314 332.991458 107.835435 332.35497 107.835435 
C 331.718483 107.835435 331.107979 108.088314 330.657914 108.538378 
C 330.20785 108.988443 329.95497 109.598947 329.95497 110.235435 
C 329.95497 110.871922 330.20785 111.482426 330.657914 111.932491 
C 331.107979 112.382555 331.718483 112.635435 332.35497 112.635435 
z
" clip-path="url(#p0171745607)" style="fill: #d396a5; stroke: #ffffff; stroke-width: 0.384"/>
     <path d="M 338.304096 128.155906 
C 338.940583 128.155906 339.551087 127.903027 340.001152 127.452963 
C 340.451217 127.002898 340.704096 126.392394 340.704096 125.755906 
C 340.704096 125.119419 340.451217 124.508915 340.001152 124.05885 
C 339.551087 123.608785 338.940583 123.355906 338.304096 123.355906 
C 337.667608 123.355906 337.057104 123.608785 336.607039 124.05885 
C 336.156975 124.508915 335.904096 125.119419 335.904096 125.755906 
C 335.904096 126.392394 336.156975 127.002898 336.607039 127.452963 
C 337.057104 127.903027 337.667608 128.155906 338.304096 128.155906 
z
" clip-path="url(#p0171745607)" style="fill: #d396a5; stroke: #ffffff; stroke-width: 0.384"/>
     <path d="M 338.153374 121.625154 
L 339.353374 120.425154 
L 340.553374 121.625154 
L 341.753374 120.425154 
L 340.553374 119.225154 
L 341.753374 118.025154 
L 340.553374 116.825154 
L 339.353374 118.025154 
L 338.153374 116.825154 
L 336.953374 118.025154 
L 338.153374 119.225154 
L 336.953374 120.425154 
z
" clip-path="url(#p0171745607)" style="fill: #d396a5; stroke: #ffffff; stroke-width: 0.384"/>
     <path d="M 333.395867 114.225492 
L 334.595867 113.025492 
L 335.795867 114.225492 
L 336.995867 113.025492 
L 335.795867 111.825492 
L 336.995867 110.625492 
L 335.795867 109.425492 
L 334.595867 110.625492 
L 333.395867 109.425492 
L 332.195867 110.625492 
L 333.395867 111.825492 
L 332.195867 113.025492 
z
" clip-path="url(#p0171745607)" style="fill: #d396a5; stroke: #ffffff; stroke-width: 0.384"/>
     <path d="M 347.14959 126.289058 
C 347.786077 126.289058 348.396582 126.036179 348.846646 125.586114 
C 349.296711 125.136049 349.54959 124.525545 349.54959 123.889058 
C 349.54959 123.25257 349.296711 122.642066 348.846646 122.192001 
C 348.396582 121.741937 347.786077 121.489058 347.14959 121.489058 
C 346.513102 121.489058 345.902598 121.741937 345.452534 122.192001 
C 345.002469 122.642066 344.74959 123.25257 344.74959 123.889058 
C 344.74959 124.525545 345.002469 125.136049 345.452534 125.586114 
C 345.902598 126.036179 346.513102 126.289058 347.14959 126.289058 
z
" clip-path="url(#p0171745607)" style="fill: #cb8ca0; stroke: #ffffff; stroke-width: 0.384"/>
     <path d="M 353.174906 141.982709 
C 353.811394 141.982709 354.421898 141.729829 354.871962 141.279765 
C 355.322027 140.8297 355.574906 140.219196 355.574906 139.582709 
C 355.574906 138.946221 355.322027 138.335717 354.871962 137.885652 
C 354.421898 137.435588 353.811394 137.182709 353.174906 137.182709 
C 352.538419 137.182709 351.927914 137.435588 351.47785 137.885652 
C 351.027785 138.335717 350.774906 138.946221 350.774906 139.582709 
C 350.774906 140.219196 351.027785 140.8297 351.47785 141.279765 
C 351.927914 141.729829 352.538419 141.982709 353.174906 141.982709 
z
" clip-path="url(#p0171745607)" style="fill: #cb8ca0; stroke: #ffffff; stroke-width: 0.384"/>
     <path d="M 353.660572 139.937138 
L 354.860572 138.737138 
L 356.060572 139.937138 
L 357.260572 138.737138 
L 356.060572 137.537138 
L 357.260572 136.337138 
L 356.060572 135.137138 
L 354.860572 136.337138 
L 353.660572 135.137138 
L 352.460572 136.337138 
L 353.660572 137.537138 
L 352.460572 138.737138 
z
" clip-path="url(#p0171745607)" style="fill: #cb8ca0; stroke: #ffffff; stroke-width: 0.384"/>
     <path d="M 351.1135 134.430202 
L 352.3135 133.230202 
L 353.5135 134.430202 
L 354.7135 133.230202 
L 353.5135 132.030202 
L 354.7135 130.830202 
L 353.5135 129.630202 
L 352.3135 130.830202 
L 351.1135 129.630202 
L 349.9135 130.830202 
L 351.1135 132.030202 
L 349.9135 133.230202 
z
" clip-path="url(#p0171745607)" style="fill: #cb8ca0; stroke: #ffffff; stroke-width: 0.384"/>
     <path d="M 360.314456 141.549987 
C 360.950944 141.549987 361.561448 141.297108 362.011512 140.847043 
C 362.461577 140.396979 362.714456 139.786475 362.714456 139.149987 
C 362.714456 138.5135 362.461577 137.902995 362.011512 137.452931 
C 361.561448 137.002866 360.950944 136.749987 360.314456 136.749987 
C 359.677969 136.749987 359.067464 137.002866 358.6174 137.452931 
C 358.167335 137.902995 357.914456 138.5135 357.914456 139.149987 
C 357.914456 139.786475 358.167335 140.396979 358.6174 140.847043 
C 359.067464 141.297108 359.677969 141.549987 360.314456 141.549987 
z
" clip-path="url(#p0171745607)" style="fill: #c2809b; stroke: #ffffff; stroke-width: 0.384"/>
     <path d="M 362.447612 148.13651 
C 363.084099 148.13651 363.694604 147.883631 364.144668 147.433566 
C 364.594733 146.983501 364.847612 146.372997 364.847612 145.73651 
C 364.847612 145.100022 364.594733 144.489518 364.144668 144.039453 
C 363.694604 143.589389 363.084099 143.33651 362.447612 143.33651 
C 361.811124 143.33651 361.20062 143.589389 360.750556 144.039453 
C 360.300491 144.489518 360.047612 145.100022 360.047612 145.73651 
C 360.047612 146.372997 360.300491 146.983501 360.750556 147.433566 
C 361.20062 147.883631 361.811124 148.13651 362.447612 148.13651 
z
" clip-path="url(#p0171745607)" style="fill: #c2809b; stroke: #ffffff; stroke-width: 0.384"/>
     <path d="M 367.049198 150.961713 
L 368.249198 149.761713 
L 369.449198 150.961713 
L 370.649198 149.761713 
L 369.449198 148.561713 
L 370.649198 147.361713 
L 369.449198 146.161713 
L 368.249198 147.361713 
L 367.049198 146.161713 
L 365.849198 147.361713 
L 367.049198 148.561713 
L 365.849198 149.761713 
z
" clip-path="url(#p0171745607)" style="fill: #c2809b; stroke: #ffffff; stroke-width: 0.384"/>
     <path d="M 365.979045 153.945615 
L 367.179045 152.745615 
L 368.379045 153.945615 
L 369.579045 152.745615 
L 368.379045 151.545615 
L 369.579045 150.345615 
L 368.379045 149.145615 
L 367.179045 150.345615 
L 365.979045 149.145615 
L 364.779045 150.345615 
L 365.979045 151.545615 
L 364.779045 152.745615 
z
" clip-path="url(#p0171745607)" style="fill: #c2809b; stroke: #ffffff; stroke-width: 0.384"/>
     <path d="M 372.992111 152.636235 
C 373.628598 152.636235 374.239102 152.383356 374.689167 151.933292 
C 375.139232 151.483227 375.392111 150.872723 375.392111 150.236235 
C 375.392111 149.599748 375.139232 148.989244 374.689167 148.539179 
C 374.239102 148.089115 373.628598 147.836235 372.992111 147.836235 
C 372.355623 147.836235 371.745119 148.089115 371.295054 148.539179 
C 370.84499 148.989244 370.592111 149.599748 370.592111 150.236235 
C 370.592111 150.872723 370.84499 151.483227 371.295054 151.933292 
C 371.745119 152.383356 372.355623 152.636235 372.992111 152.636235 
z
" clip-path="url(#p0171745607)" style="fill: #ba7696; stroke: #ffffff; stroke-width: 0.384"/>
     <path d="M 374.692922 153.188897 
C 375.329409 153.188897 375.939913 152.936018 376.389978 152.485954 
C 376.840043 152.035889 377.092922 151.425385 377.092922 150.788897 
C 377.092922 150.15241 376.840043 149.541906 376.389978 149.091841 
C 375.939913 148.641776 375.329409 148.388897 374.692922 148.388897 
C 374.056434 148.388897 373.44593 148.641776 372.995866 149.091841 
C 372.545801 149.541906 372.292922 150.15241 372.292922 150.788897 
C 372.292922 151.425385 372.545801 152.035889 372.995866 152.485954 
C 373.44593 152.936018 374.056434 153.188897 374.692922 153.188897 
z
" clip-path="url(#p0171745607)" style="fill: #ba7696; stroke: #ffffff; stroke-width: 0.384"/>
     <path d="M 373.208366 155.882001 
L 374.408366 154.682001 
L 375.608366 155.882001 
L 376.808366 154.682001 
L 375.608366 153.482001 
L 376.808366 152.282001 
L 375.608366 151.082001 
L 374.408366 152.282001 
L 373.208366 151.082001 
L 372.008366 152.282001 
L 373.208366 153.482001 
L 372.008366 154.682001 
z
" clip-path="url(#p0171745607)" style="fill: #ba7696; stroke: #ffffff; stroke-width: 0.384"/>
     <path d="M 376.450815 160.201299 
L 377.650815 159.001299 
L 378.850815 160.201299 
L 380.050815 159.001299 
L 378.850815 157.801299 
L 380.050815 156.601299 
L 378.850815 155.401299 
L 377.650815 156.601299 
L 376.450815 155.401299 
L 375.250815 156.601299 
L 376.450815 157.801299 
L 375.250815 159.001299 
z
" clip-path="url(#p0171745607)" style="fill: #ba7696; stroke: #ffffff; stroke-width: 0.384"/>
     <path d="M 386.755927 167.465208 
C 387.392414 167.465208 388.002919 167.212329 388.452983 166.762264 
C 388.903048 166.3122 389.155927 165.701696 389.155927 165.065208 
C 389.155927 164.428721 388.903048 163.818216 388.452983 163.368152 
C 388.002919 162.918087 387.392414 162.665208 386.755927 162.665208 
C 386.11944 162.665208 385.508935 162.918087 385.058871 163.368152 
C 384.608806 163.818216 384.355927 164.428721 384.355927 165.065208 
C 384.355927 165.701696 384.608806 166.3122 385.058871 166.762264 
C 385.508935 167.212329 386.11944 167.465208 386.755927 167.465208 
z
" clip-path="url(#p0171745607)" style="fill: #af6c91; stroke: #ffffff; stroke-width: 0.384"/>
     <path d="M 387.332354 162.749536 
C 387.968841 162.749536 388.579345 162.496656 389.02941 162.046592 
C 389.479475 161.596527 389.732354 160.986023 389.732354 160.349536 
C 389.732354 159.713048 389.479475 159.102544 389.02941 158.652479 
C 388.579345 158.202415 387.968841 157.949536 387.332354 157.949536 
C 386.695866 157.949536 386.085362 158.202415 385.635297 158.652479 
C 385.185233 159.102544 384.932354 159.713048 384.932354 160.349536 
C 384.932354 160.986023 385.185233 161.596527 385.635297 162.046592 
C 386.085362 162.496656 386.695866 162.749536 387.332354 162.749536 
z
" clip-path="url(#p0171745607)" style="fill: #af6c91; stroke: #ffffff; stroke-width: 0.384"/>
     <path d="M 380.866536 153.687213 
L 382.066536 152.487213 
L 383.266536 153.687213 
L 384.466536 152.487213 
L 383.266536 151.287213 
L 384.466536 150.087213 
L 383.266536 148.887213 
L 382.066536 150.087213 
L 380.866536 148.887213 
L 379.666536 150.087213 
L 380.866536 151.287213 
L 379.666536 152.487213 
z
" clip-path="url(#p0171745607)" style="fill: #af6c91; stroke: #ffffff; stroke-width: 0.384"/>
     <path d="M 390.212654 172.556986 
L 391.412654 171.356986 
L 392.612654 172.556986 
L 393.812654 171.356986 
L 392.612654 170.156986 
L 393.812654 168.956986 
L 392.612654 167.756986 
L 391.412654 168.956986 
L 390.212654 167.756986 
L 389.012654 168.956986 
L 390.212654 170.156986 
L 389.012654 171.356986 
z
" clip-path="url(#p0171745607)" style="fill: #af6c91; stroke: #ffffff; stroke-width: 0.384"/>
     <path d="M 394.616798 166.659271 
C 395.253285 166.659271 395.86379 166.406392 396.313854 165.956328 
C 396.763919 165.506263 397.016798 164.895759 397.016798 164.259271 
C 397.016798 163.622784 396.763919 163.01228 396.313854 162.562215 
C 395.86379 162.112151 395.253285 161.859271 394.616798 161.859271 
C 393.98031 161.859271 393.369806 162.112151 392.919742 162.562215 
C 392.469677 163.01228 392.216798 163.622784 392.216798 164.259271 
C 392.216798 164.895759 392.469677 165.506263 392.919742 165.956328 
C 393.369806 166.406392 393.98031 166.659271 394.616798 166.659271 
z
" clip-path="url(#p0171745607)" style="fill: #a4638d; stroke: #ffffff; stroke-width: 0.384"/>
     <path d="M 401.510948 170.25795 
C 402.147436 170.25795 402.75794 170.005071 403.208005 169.555006 
C 403.658069 169.104942 403.910948 168.494438 403.910948 167.85795 
C 403.910948 167.221463 403.658069 166.610958 403.208005 166.160894 
C 402.75794 165.710829 402.147436 165.45795 401.510948 165.45795 
C 400.874461 165.45795 400.263957 165.710829 399.813892 166.160894 
C 399.363827 166.610958 399.110948 167.221463 399.110948 167.85795 
C 399.110948 168.494438 399.363827 169.104942 399.813892 169.555006 
C 400.263957 170.005071 400.874461 170.25795 401.510948 170.25795 
z
" clip-path="url(#p0171745607)" style="fill: #a4638d; stroke: #ffffff; stroke-width: 0.384"/>
     <path d="M 396.800463 169.574285 
L 398.000463 168.374285 
L 399.200463 169.574285 
L 400.400463 168.374285 
L 399.200463 167.174285 
L 400.400463 165.974285 
L 399.200463 164.774285 
L 398.000463 165.974285 
L 396.800463 164.774285 
L 395.600463 165.974285 
L 396.800463 167.174285 
L 395.600463 168.374285 
z
" clip-path="url(#p0171745607)" style="fill: #a4638d; stroke: #ffffff; stroke-width: 0.384"/>
     <path d="M 400.7075 174.400019 
L 401.9075 173.200019 
L 403.1075 174.400019 
L 404.3075 173.200019 
L 403.1075 172.000019 
L 404.3075 170.800019 
L 403.1075 169.600019 
L 401.9075 170.800019 
L 400.7075 169.600019 
L 399.5075 170.800019 
L 400.7075 172.000019 
L 399.5075 173.200019 
z
" clip-path="url(#p0171745607)" style="fill: #a4638d; stroke: #ffffff; stroke-width: 0.384"/>
     <path d="M 401.853573 167.826311 
C 402.49006 167.826311 403.100564 167.573432 403.550629 167.123367 
C 404.000693 166.673303 404.253573 166.062798 404.253573 165.426311 
C 404.253573 164.789824 404.000693 164.179319 403.550629 163.729255 
C 403.100564 163.27919 402.49006 163.026311 401.853573 163.026311 
C 401.217085 163.026311 400.606581 163.27919 400.156516 163.729255 
C 399.706452 164.179319 399.453573 164.789824 399.453573 165.426311 
C 399.453573 166.062798 399.706452 166.673303 400.156516 167.123367 
C 400.606581 167.573432 401.217085 167.826311 401.853573 167.826311 
z
" clip-path="url(#p0171745607)" style="fill: #985987; stroke: #ffffff; stroke-width: 0.384"/>
     <path d="M 409.507678 175.39443 
C 410.144166 175.39443 410.75467 175.141551 411.204735 174.691486 
C 411.654799 174.241421 411.907678 173.630917 411.907678 172.99443 
C 411.907678 172.357942 411.654799 171.747438 411.204735 171.297373 
C 410.75467 170.847309 410.144166 170.59443 409.507678 170.59443 
C 408.871191 170.59443 408.260687 170.847309 407.810622 171.297373 
C 407.360558 171.747438 407.107678 172.357942 407.107678 172.99443 
C 407.107678 173.630917 407.360558 174.241421 407.810622 174.691486 
C 408.260687 175.141551 408.871191 175.39443 409.507678 175.39443 
z
" clip-path="url(#p0171745607)" style="fill: #985987; stroke: #ffffff; stroke-width: 0.384"/>
     <path d="M 407.715962 175.425576 
L 408.915962 174.225576 
L 410.115962 175.425576 
L 411.315962 174.225576 
L 410.115962 173.025576 
L 411.315962 171.825576 
L 410.115962 170.625576 
L 408.915962 171.825576 
L 407.715962 170.625576 
L 406.515962 171.825576 
L 407.715962 173.025576 
L 406.515962 174.225576 
z
" clip-path="url(#p0171745607)" style="fill: #985987; stroke: #ffffff; stroke-width: 0.384"/>
     <path d="M 407.698201 177.133676 
L 408.898201 175.933676 
L 410.098201 177.133676 
L 411.298201 175.933676 
L 410.098201 174.733676 
L 411.298201 173.533676 
L 410.098201 172.333676 
L 408.898201 173.533676 
L 407.698201 172.333676 
L 406.498201 173.533676 
L 407.698201 174.733676 
L 406.498201 175.933676 
z
" clip-path="url(#p0171745607)" style="fill: #985987; stroke: #ffffff; stroke-width: 0.384"/>
     <path d="M 414.556549 174.611357 
C 415.193037 174.611357 415.803541 174.358477 416.253605 173.908413 
C 416.70367 173.458348 416.956549 172.847844 416.956549 172.211357 
C 416.956549 171.574869 416.70367 170.964365 416.253605 170.5143 
C 415.803541 170.064236 415.193037 169.811357 414.556549 169.811357 
C 413.920062 169.811357 413.309557 170.064236 412.859493 170.5143 
C 412.409428 170.964365 412.156549 171.574869 412.156549 172.211357 
C 412.156549 172.847844 412.409428 173.458348 412.859493 173.908413 
C 413.309557 174.358477 413.920062 174.611357 414.556549 174.611357 
z
" clip-path="url(#p0171745607)" style="fill: #8c5181; stroke: #ffffff; stroke-width: 0.384"/>
     <path d="M 419.241355 177.7537 
C 419.877842 177.7537 420.488347 177.50082 420.938411 177.050756 
C 421.388476 176.600691 421.641355 175.990187 421.641355 175.3537 
C 421.641355 174.717212 421.388476 174.106708 420.938411 173.656643 
C 420.488347 173.206579 419.877842 172.9537 419.241355 172.9537 
C 418.604868 172.9537 417.994363 173.206579 417.544299 173.656643 
C 417.094234 174.106708 416.841355 174.717212 416.841355 175.3537 
C 416.841355 175.990187 417.094234 176.600691 417.544299 177.050756 
C 417.994363 177.50082 418.604868 177.7537 419.241355 177.7537 
z
" clip-path="url(#p0171745607)" style="fill: #8c5181; stroke: #ffffff; stroke-width: 0.384"/>
     <path d="M 419.016408 181.600438 
L 420.216408 180.400438 
L 421.416408 181.600438 
L 422.616408 180.400438 
L 421.416408 179.200438 
L 422.616408 178.000438 
L 421.416408 176.800438 
L 420.216408 178.000438 
L 419.016408 176.800438 
L 417.816408 178.000438 
L 419.016408 179.200438 
L 417.816408 180.400438 
z
" clip-path="url(#p0171745607)" style="fill: #8c5181; stroke: #ffffff; stroke-width: 0.384"/>
     <path d="M 418.990946 183.171523 
L 420.190946 181.971523 
L 421.390946 183.171523 
L 422.590946 181.971523 
L 421.390946 180.771523 
L 422.590946 179.571523 
L 421.390946 178.371523 
L 420.190946 179.571523 
L 418.990946 178.371523 
L 417.790946 179.571523 
L 418.990946 180.771523 
L 417.790946 181.971523 
z
" clip-path="url(#p0171745607)" style="fill: #8c5181; stroke: #ffffff; stroke-width: 0.384"/>
     <path d="M 422.851196 176.128237 
C 423.487684 176.128237 424.098188 175.875358 424.548253 175.425293 
C 424.998317 174.975229 425.251196 174.364724 425.251196 173.728237 
C 425.251196 173.091749 424.998317 172.481245 424.548253 172.031181 
C 424.098188 171.581116 423.487684 171.328237 422.851196 171.328237 
C 422.214709 171.328237 421.604205 171.581116 421.15414 172.031181 
C 420.704076 172.481245 420.451196 173.091749 420.451196 173.728237 
C 420.451196 174.364724 420.704076 174.975229 421.15414 175.425293 
C 421.604205 175.875358 422.214709 176.128237 422.851196 176.128237 
z
" clip-path="url(#p0171745607)" style="fill: #7e497a; stroke: #ffffff; stroke-width: 0.384"/>
     <path d="M 431.141916 183.102971 
C 431.778403 183.102971 432.388908 182.850092 432.838972 182.400027 
C 433.289037 181.949963 433.541916 181.339458 433.541916 180.702971 
C 433.541916 180.066483 433.289037 179.455979 432.838972 179.005915 
C 432.388908 178.55585 431.778403 178.302971 431.141916 178.302971 
C 430.505428 178.302971 429.894924 178.55585 429.44486 179.005915 
C 428.994795 179.455979 428.741916 180.066483 428.741916 180.702971 
C 428.741916 181.339458 428.994795 181.949963 429.44486 182.400027 
C 429.894924 182.850092 430.505428 183.102971 431.141916 183.102971 
z
" clip-path="url(#p0171745607)" style="fill: #7e497a; stroke: #ffffff; stroke-width: 0.384"/>
     <path d="M 424.951898 182.286144 
L 426.151898 181.086144 
L 427.351898 182.286144 
L 428.551898 181.086144 
L 427.351898 179.886144 
L 428.551898 178.686144 
L 427.351898 177.486144 
L 426.151898 178.686144 
L 424.951898 177.486144 
L 423.751898 178.686144 
L 424.951898 179.886144 
L 423.751898 181.086144 
z
" clip-path="url(#p0171745607)" style="fill: #7e497a; stroke: #ffffff; stroke-width: 0.384"/>
     <path d="M 422.109845 179.188292 
L 423.309845 177.988292 
L 424.509845 179.188292 
L 425.709845 177.988292 
L 424.509845 176.788292 
L 425.709845 175.588292 
L 424.509845 174.388292 
L 423.309845 175.588292 
L 422.109845 174.388292 
L 420.909845 175.588292 
L 422.109845 176.788292 
L 420.909845 177.988292 
z
" clip-path="url(#p0171745607)" style="fill: #7e497a; stroke: #ffffff; stroke-width: 0.384"/>
     <path d="M 436.014821 184.880826 
C 436.651309 184.880826 437.261813 184.627946 437.711878 184.177882 
C 438.161942 183.727817 438.414821 183.117313 438.414821 182.480826 
C 438.414821 181.844338 438.161942 181.233834 437.711878 180.783769 
C 437.261813 180.333705 436.651309 180.080826 436.014821 180.080826 
C 435.378334 180.080826 434.76783 180.333705 434.317765 180.783769 
C 433.8677 181.233834 433.614821 181.844338 433.614821 182.480826 
C 433.614821 183.117313 433.8677 183.727817 434.317765 184.177882 
C 434.76783 184.627946 435.378334 184.880826 436.014821 184.880826 
z
" clip-path="url(#p0171745607)" style="fill: #714173; stroke: #ffffff; stroke-width: 0.384"/>
     <path d="M 436.698953 185.832687 
C 437.335441 185.832687 437.945945 185.579808 438.396009 185.129744 
C 438.846074 184.679679 439.098953 184.069175 439.098953 183.432687 
C 439.098953 182.7962 438.846074 182.185696 438.396009 181.735631 
C 437.945945 181.285567 437.335441 181.032687 436.698953 181.032687 
C 436.062466 181.032687 435.451961 181.285567 435.001897 181.735631 
C 434.551832 182.185696 434.298953 182.7962 434.298953 183.432687 
C 434.298953 184.069175 434.551832 184.679679 435.001897 185.129744 
C 435.451961 185.579808 436.062466 185.832687 436.698953 185.832687 
z
" clip-path="url(#p0171745607)" style="fill: #714173; stroke: #ffffff; stroke-width: 0.384"/>
     <path d="M 438.152433 186.315674 
L 439.352433 185.115674 
L 440.552433 186.315674 
L 441.752433 185.115674 
L 440.552433 183.915674 
L 441.752433 182.715674 
L 440.552433 181.515674 
L 439.352433 182.715674 
L 438.152433 181.515674 
L 436.952433 182.715674 
L 438.152433 183.915674 
L 436.952433 185.115674 
z
" clip-path="url(#p0171745607)" style="fill: #714173; stroke: #ffffff; stroke-width: 0.384"/>
     <path d="M 429.835501 182.538073 
L 431.035501 181.338073 
L 432.235501 182.538073 
L 433.435501 181.338073 
L 432.235501 180.138073 
L 433.435501 178.938073 
L 432.235501 177.738073 
L 431.035501 178.938073 
L 429.835501 177.738073 
L 428.635501 178.938073 
L 429.835501 180.138073 
L 428.635501 181.338073 
z
" clip-path="url(#p0171745607)" style="fill: #714173; stroke: #ffffff; stroke-width: 0.384"/>
     <path d="M 445.854143 188.309362 
C 446.490631 188.309362 447.101135 188.056483 447.5512 187.606419 
C 448.001264 187.156354 448.254143 186.54585 448.254143 185.909362 
C 448.254143 185.272875 448.001264 184.662371 447.5512 184.212306 
C 447.101135 183.762242 446.490631 183.509362 445.854143 183.509362 
C 445.217656 183.509362 444.607152 183.762242 444.157087 184.212306 
C 443.707022 184.662371 443.454143 185.272875 443.454143 185.909362 
C 443.454143 186.54585 443.707022 187.156354 444.157087 187.606419 
C 444.607152 188.056483 445.217656 188.309362 445.854143 188.309362 
z
" clip-path="url(#p0171745607)" style="fill: #62396a; stroke: #ffffff; stroke-width: 0.384"/>
     <path d="M 444.831795 187.279146 
C 445.468282 187.279146 446.078787 187.026267 446.528851 186.576202 
C 446.978916 186.126137 447.231795 185.515633 447.231795 184.879146 
C 447.231795 184.242658 446.978916 183.632154 446.528851 183.182089 
C 446.078787 182.732025 445.468282 182.479146 444.831795 182.479146 
C 444.195308 182.479146 443.584803 182.732025 443.134739 183.182089 
C 442.684674 183.632154 442.431795 184.242658 442.431795 184.879146 
C 442.431795 185.515633 442.684674 186.126137 443.134739 186.576202 
C 443.584803 187.026267 444.195308 187.279146 444.831795 187.279146 
z
" clip-path="url(#p0171745607)" style="fill: #62396a; stroke: #ffffff; stroke-width: 0.384"/>
     <path d="M 436.50765 184.284659 
L 437.70765 183.084659 
L 438.90765 184.284659 
L 440.10765 183.084659 
L 438.90765 181.884659 
L 440.10765 180.684659 
L 438.90765 179.484659 
L 437.70765 180.684659 
L 436.50765 179.484659 
L 435.30765 180.684659 
L 436.50765 181.884659 
L 435.30765 183.084659 
z
" clip-path="url(#p0171745607)" style="fill: #62396a; stroke: #ffffff; stroke-width: 0.384"/>
     <path d="M 438.369015 186.832628 
L 439.569015 185.632628 
L 440.769015 186.832628 
L 441.969015 185.632628 
L 440.769015 184.432628 
L 441.969015 183.232628 
L 440.769015 182.032628 
L 439.569015 183.232628 
L 438.369015 182.032628 
L 437.169015 183.232628 
L 438.369015 184.432628 
L 437.169015 185.632628 
z
" clip-path="url(#p0171745607)" style="fill: #62396a; stroke: #ffffff; stroke-width: 0.384"/>
     <path d="M 448.537634 186.396909 
C 449.174122 186.396909 449.784626 186.14403 450.23469 185.693965 
C 450.684755 185.243901 450.937634 184.633397 450.937634 183.996909 
C 450.937634 183.360422 450.684755 182.749918 450.23469 182.299853 
C 449.784626 181.849788 449.174122 181.596909 448.537634 181.596909 
C 447.901147 181.596909 447.290642 181.849788 446.840578 182.299853 
C 446.390513 182.749918 446.137634 183.360422 446.137634 183.996909 
C 446.137634 184.633397 446.390513 185.243901 446.840578 185.693965 
C 447.290642 186.14403 447.901147 186.396909 448.537634 186.396909 
z
" clip-path="url(#p0171745607)" style="fill: #553361; stroke: #ffffff; stroke-width: 0.384"/>
     <path d="M 450.937754 186.845966 
C 451.574241 186.845966 452.184746 186.593087 452.63481 186.143023 
C 453.084875 185.692958 453.337754 185.082454 453.337754 184.445966 
C 453.337754 183.809479 453.084875 183.198975 452.63481 182.74891 
C 452.184746 182.298846 451.574241 182.045966 450.937754 182.045966 
C 450.301266 182.045966 449.690762 182.298846 449.240698 182.74891 
C 448.790633 183.198975 448.537754 183.809479 448.537754 184.445966 
C 448.537754 185.082454 448.790633 185.692958 449.240698 186.143023 
C 449.690762 186.593087 450.301266 186.845966 450.937754 186.845966 
z
" clip-path="url(#p0171745607)" style="fill: #553361; stroke: #ffffff; stroke-width: 0.384"/>
     <path d="M 447.237938 187.307849 
L 448.437938 186.107849 
L 449.637938 187.307849 
L 450.837938 186.107849 
L 449.637938 184.907849 
L 450.837938 183.707849 
L 449.637938 182.507849 
L 448.437938 183.707849 
L 447.237938 182.507849 
L 446.037938 183.707849 
L 447.237938 184.907849 
L 446.037938 186.107849 
z
" clip-path="url(#p0171745607)" style="fill: #553361; stroke: #ffffff; stroke-width: 0.384"/>
     <path d="M 448.32174 189.198542 
L 449.52174 187.998542 
L 450.72174 189.198542 
L 451.92174 187.998542 
L 450.72174 186.798542 
L 451.92174 185.598542 
L 450.72174 184.398542 
L 449.52174 185.598542 
L 448.32174 184.398542 
L 447.12174 185.598542 
L 448.32174 186.798542 
L 447.12174 187.998542 
z
" clip-path="url(#p0171745607)" style="fill: #553361; stroke: #ffffff; stroke-width: 0.384"/>
     <path d="M 455.698529 188.425568 
C 456.335016 188.425568 456.94552 188.172689 457.395585 187.722624 
C 457.84565 187.272559 458.098529 186.662055 458.098529 186.025568 
C 458.098529 185.38908 457.84565 184.778576 457.395585 184.328511 
C 456.94552 183.878447 456.335016 183.625568 455.698529 183.625568 
C 455.062041 183.625568 454.451537 183.878447 454.001472 184.328511 
C 453.551408 184.778576 453.298529 185.38908 453.298529 186.025568 
C 453.298529 186.662055 453.551408 187.272559 454.001472 187.722624 
C 454.451537 188.172689 455.062041 188.425568 455.698529 188.425568 
z
" clip-path="url(#p0171745607)" style="fill: #462b55; stroke: #ffffff; stroke-width: 0.384"/>
     <path d="M 454.779364 187.546184 
C 455.415852 187.546184 456.026356 187.293305 456.47642 186.84324 
C 456.926485 186.393176 457.179364 185.782671 457.179364 185.146184 
C 457.179364 184.509697 456.926485 183.899192 456.47642 183.449128 
C 456.026356 182.999063 455.415852 182.746184 454.779364 182.746184 
C 454.142877 182.746184 453.532373 182.999063 453.082308 183.449128 
C 452.632243 183.899192 452.379364 184.509697 452.379364 185.146184 
C 452.379364 185.782671 452.632243 186.393176 453.082308 186.84324 
C 453.532373 187.293305 454.142877 187.546184 454.779364 187.546184 
z
" clip-path="url(#p0171745607)" style="fill: #462b55; stroke: #ffffff; stroke-width: 0.384"/>
     <path d="M 452.838973 190.920469 
L 454.038973 189.720469 
L 455.238973 190.920469 
L 456.438973 189.720469 
L 455.238973 188.520469 
L 456.438973 187.320469 
L 455.238973 186.120469 
L 454.038973 187.320469 
L 452.838973 186.120469 
L 451.638973 187.320469 
L 452.838973 188.520469 
L 451.638973 189.720469 
z
" clip-path="url(#p0171745607)" style="fill: #462b55; stroke: #ffffff; stroke-width: 0.384"/>
     <path d="M 456.741021 188.289875 
L 457.941021 187.089875 
L 459.141021 188.289875 
L 460.341021 187.089875 
L 459.141021 185.889875 
L 460.341021 184.689875 
L 459.141021 183.489875 
L 457.941021 184.689875 
L 456.741021 183.489875 
L 455.541021 184.689875 
L 456.741021 185.889875 
L 455.541021 187.089875 
z
" clip-path="url(#p0171745607)" style="fill: #462b55; stroke: #ffffff; stroke-width: 0.384"/>
     <path d="M 471.249077 196.289764 
C 471.885564 196.289764 472.496068 196.036885 472.946133 195.58682 
C 473.396198 195.136755 473.649077 194.526251 473.649077 193.889764 
C 473.649077 193.253276 473.396198 192.642772 472.946133 192.192708 
C 472.496068 191.742643 471.885564 191.489764 471.249077 191.489764 
C 470.612589 191.489764 470.002085 191.742643 469.55202 192.192708 
C 469.101956 192.642772 468.849077 193.253276 468.849077 193.889764 
C 468.849077 194.526251 469.101956 195.136755 469.55202 195.58682 
C 470.002085 196.036885 470.612589 196.289764 471.249077 196.289764 
z
" clip-path="url(#p0171745607)" style="fill: #39254a; stroke: #ffffff; stroke-width: 0.384"/>
     <path d="M 464.402802 192.291378 
C 465.039289 192.291378 465.649794 192.038498 466.099858 191.588434 
C 466.549923 191.138369 466.802802 190.527865 466.802802 189.891378 
C 466.802802 189.25489 466.549923 188.644386 466.099858 188.194321 
C 465.649794 187.744257 465.039289 187.491378 464.402802 187.491378 
C 463.766314 187.491378 463.15581 187.744257 462.705746 188.194321 
C 462.255681 188.644386 462.002802 189.25489 462.002802 189.891378 
C 462.002802 190.527865 462.255681 191.138369 462.705746 191.588434 
C 463.15581 192.038498 463.766314 192.291378 464.402802 192.291378 
z
" clip-path="url(#p0171745607)" style="fill: #39254a; stroke: #ffffff; stroke-width: 0.384"/>
     <path d="M 455.22158 184.634008 
L 456.42158 183.434008 
L 457.62158 184.634008 
L 458.82158 183.434008 
L 457.62158 182.234008 
L 458.82158 181.034008 
L 457.62158 179.834008 
L 456.42158 181.034008 
L 455.22158 179.834008 
L 454.02158 181.034008 
L 455.22158 182.234008 
L 454.02158 183.434008 
z
" clip-path="url(#p0171745607)" style="fill: #39254a; stroke: #ffffff; stroke-width: 0.384"/>
     <path d="M 461.751068 192.427898 
L 462.951068 191.227898 
L 464.151068 192.427898 
L 465.351068 191.227898 
L 464.151068 190.027898 
L 465.351068 188.827898 
L 464.151068 187.627898 
L 462.951068 188.827898 
L 461.751068 187.627898 
L 460.551068 188.827898 
L 461.751068 190.027898 
L 460.551068 191.227898 
z
" clip-path="url(#p0171745607)" style="fill: #39254a; stroke: #ffffff; stroke-width: 0.384"/>
     <path d="M 469.776476 193.712777 
C 470.412963 193.712777 471.023468 193.459898 471.473532 193.009833 
C 471.923597 192.559768 472.176476 191.949264 472.176476 191.312777 
C 472.176476 190.676289 471.923597 190.065785 471.473532 189.61572 
C 471.023468 189.165656 470.412963 188.912777 469.776476 188.912777 
C 469.139988 188.912777 468.529484 189.165656 468.07942 189.61572 
C 467.629355 190.065785 467.376476 190.676289 467.376476 191.312777 
C 467.376476 191.949264 467.629355 192.559768 468.07942 193.009833 
C 468.529484 193.459898 469.139988 193.712777 469.776476 193.712777 
z
" clip-path="url(#p0171745607)" style="fill: #2d1e3e; stroke: #ffffff; stroke-width: 0.384"/>
     <path d="M 472.909531 192.369992 
C 473.546019 192.369992 474.156523 192.117113 474.606587 191.667048 
C 475.056652 191.216984 475.309531 190.606479 475.309531 189.969992 
C 475.309531 189.333505 475.056652 188.723 474.606587 188.272936 
C 474.156523 187.822871 473.546019 187.569992 472.909531 187.569992 
C 472.273044 187.569992 471.66254 187.822871 471.212475 188.272936 
C 470.76241 188.723 470.509531 189.333505 470.509531 189.969992 
C 470.509531 190.606479 470.76241 191.216984 471.212475 191.667048 
C 471.66254 192.117113 472.273044 192.369992 472.909531 192.369992 
z
" clip-path="url(#p0171745607)" style="fill: #2d1e3e; stroke: #ffffff; stroke-width: 0.384"/>
     <path d="M 474.537294 191.602397 
L 475.737294 190.402397 
L 476.937294 191.602397 
L 478.137294 190.402397 
L 476.937294 189.202397 
L 478.137294 188.002397 
L 476.937294 186.802397 
L 475.737294 188.002397 
L 474.537294 186.802397 
L 473.337294 188.002397 
L 474.537294 189.202397 
L 473.337294 190.402397 
z
" clip-path="url(#p0171745607)" style="fill: #2d1e3e; stroke: #ffffff; stroke-width: 0.384"/>
     <path d="M 467.839134 194.491543 
L 469.039134 193.291543 
L 470.239134 194.491543 
L 471.439134 193.291543 
L 470.239134 192.091543 
L 471.439134 190.891543 
L 470.239134 189.691543 
L 469.039134 190.891543 
L 467.839134 189.691543 
L 466.639134 190.891543 
L 467.839134 192.091543 
L 466.639134 193.291543 
z
" clip-path="url(#p0171745607)" style="fill: #2d1e3e; stroke: #ffffff; stroke-width: 0.384"/>
    </g>
    <g id="matplotlib.axis_3">
     <g id="xtick_1">
      <g id="line2d_1">
       <defs>
        <path id="m80a5090755" d="M 0 0 
L 0 4.8 
" style="stroke: #000000"/>
       </defs>
       <g>
        <use xlink:href="#m80a5090755" x="295.958092" y="201.826772" style="stroke: #000000"/>
       </g>
      </g>
      <g id="text_5">
       <!-- 0 -->
       <g transform="translate(293.51128 216.439397) scale(0.088 -0.088)">
        <defs>
         <path id="Helvetica-30" d="M 1731 4475 
Q 2600 4475 2988 3759 
Q 3288 3206 3288 2244 
Q 3288 1331 3016 734 
Q 2622 -122 1728 -122 
Q 922 -122 528 578 
Q 200 1163 200 2147 
Q 200 2909 397 3456 
Q 766 4475 1731 4475 
z
M 1725 391 
Q 2163 391 2422 778 
Q 2681 1166 2681 2222 
Q 2681 2984 2493 3476 
Q 2306 3969 1766 3969 
Q 1269 3969 1039 3501 
Q 809 3034 809 2125 
Q 809 1441 956 1025 
Q 1181 391 1725 391 
z
" transform="scale(0.015625)"/>
        </defs>
        <use xlink:href="#Helvetica-30"/>
       </g>
      </g>
     </g>
     <g id="xtick_2">
      <g id="line2d_2">
       <g>
        <use xlink:href="#m80a5090755" x="345.303811" y="201.826772" style="stroke: #000000"/>
       </g>
      </g>
      <g id="text_6">
       <!-- 500 -->
       <g transform="translate(337.963374 216.439397) scale(0.088 -0.088)">
        <defs>
         <path id="Helvetica-35" d="M 791 1141 
Q 847 659 1238 475 
Q 1438 381 1700 381 
Q 2200 381 2440 700 
Q 2681 1019 2681 1406 
Q 2681 1875 2395 2131 
Q 2109 2388 1709 2388 
Q 1419 2388 1211 2275 
Q 1003 2163 856 1963 
L 369 1991 
L 709 4400 
L 3034 4400 
L 3034 3856 
L 1131 3856 
L 941 2613 
Q 1097 2731 1238 2791 
Q 1488 2894 1816 2894 
Q 2431 2894 2859 2497 
Q 3288 2100 3288 1491 
Q 3288 856 2895 371 
Q 2503 -113 1644 -113 
Q 1097 -113 676 195 
Q 256 503 206 1141 
L 791 1141 
z
" transform="scale(0.015625)"/>
        </defs>
        <use xlink:href="#Helvetica-35"/>
        <use xlink:href="#Helvetica-30" x="55.615234"/>
        <use xlink:href="#Helvetica-30" x="111.230469"/>
       </g>
      </g>
     </g>
     <g id="xtick_3">
      <g id="line2d_3">
       <g>
        <use xlink:href="#m80a5090755" x="394.64953" y="201.826772" style="stroke: #000000"/>
       </g>
      </g>
      <g id="text_7">
       <!-- 1000 -->
       <g transform="translate(384.86228 216.439397) scale(0.088 -0.088)">
        <defs>
         <path id="Helvetica-31" d="M 613 3169 
L 613 3600 
Q 1222 3659 1462 3798 
Q 1703 3938 1822 4456 
L 2266 4456 
L 2266 0 
L 1666 0 
L 1666 3169 
L 613 3169 
z
" transform="scale(0.015625)"/>
        </defs>
        <use xlink:href="#Helvetica-31"/>
        <use xlink:href="#Helvetica-30" x="55.615234"/>
        <use xlink:href="#Helvetica-30" x="111.230469"/>
        <use xlink:href="#Helvetica-30" x="166.845703"/>
       </g>
      </g>
     </g>
     <g id="xtick_4">
      <g id="line2d_4">
       <g>
        <use xlink:href="#m80a5090755" x="443.995248" y="201.826772" style="stroke: #000000"/>
       </g>
      </g>
      <g id="text_8">
       <!-- 1500 -->
       <g transform="translate(434.207998 216.439397) scale(0.088 -0.088)">
        <use xlink:href="#Helvetica-31"/>
        <use xlink:href="#Helvetica-35" x="55.615234"/>
        <use xlink:href="#Helvetica-30" x="111.230469"/>
        <use xlink:href="#Helvetica-30" x="166.845703"/>
       </g>
      </g>
     </g>
     <g id="text_9">
      <!-- Amount of Trail -->
      <g transform="translate(355.356845 228.72974) scale(0.09 -0.09)">
       <use xlink:href="#Helvetica-41"/>
       <use xlink:href="#Helvetica-6d" x="66.699219"/>
       <use xlink:href="#Helvetica-6f" x="150"/>
       <use xlink:href="#Helvetica-75" x="205.615234"/>
       <use xlink:href="#Helvetica-6e" x="261.230469"/>
       <use xlink:href="#Helvetica-74" x="316.845703"/>
       <use xlink:href="#Helvetica-20" x="344.628906"/>
       <use xlink:href="#Helvetica-6f" x="372.412109"/>
       <use xlink:href="#Helvetica-66" x="428.027344"/>
       <use xlink:href="#Helvetica-20" x="455.810547"/>
       <use xlink:href="#Helvetica-54" x="483.59375"/>
       <use xlink:href="#Helvetica-72" x="544.677734"/>
       <use xlink:href="#Helvetica-61" x="577.978516"/>
       <use xlink:href="#Helvetica-69" x="633.59375"/>
       <use xlink:href="#Helvetica-6c" x="655.810547"/>
      </g>
     </g>
    </g>
    <g id="matplotlib.axis_4">
     <g id="ytick_1">
      <g id="line2d_5">
       <defs>
        <path id="m1c8531bb49" d="M 0 0 
L -4.8 0 
" style="stroke: #000000"/>
       </defs>
       <g>
        <use xlink:href="#m1c8531bb49" x="287.007874" y="189.470283" style="stroke: #000000"/>
       </g>
      </g>
      <g id="text_10">
       <!-- 60 -->
       <g transform="translate(268.920624 192.626595) scale(0.088 -0.088)">
        <defs>
         <path id="Helvetica-36" d="M 1872 4494 
Q 2622 4494 2917 4105 
Q 3213 3716 3213 3303 
L 2656 3303 
Q 2606 3569 2497 3719 
Q 2294 4000 1881 4000 
Q 1409 4000 1131 3564 
Q 853 3128 822 2316 
Q 1016 2600 1309 2741 
Q 1578 2866 1909 2866 
Q 2472 2866 2890 2506 
Q 3309 2147 3309 1434 
Q 3309 825 2912 354 
Q 2516 -116 1781 -116 
Q 1153 -116 697 361 
Q 241 838 241 1966 
Q 241 2800 444 3381 
Q 834 4494 1872 4494 
z
M 1831 384 
Q 2275 384 2495 682 
Q 2716 981 2716 1388 
Q 2716 1731 2519 2042 
Q 2322 2353 1803 2353 
Q 1441 2353 1167 2112 
Q 894 1872 894 1388 
Q 894 963 1142 673 
Q 1391 384 1831 384 
z
" transform="scale(0.015625)"/>
        </defs>
        <use xlink:href="#Helvetica-36"/>
        <use xlink:href="#Helvetica-30" x="55.615234"/>
       </g>
      </g>
     </g>
     <g id="ytick_2">
      <g id="line2d_6">
       <g>
        <use xlink:href="#m1c8531bb49" x="287.007874" y="152.803795" style="stroke: #000000"/>
       </g>
      </g>
      <g id="text_11">
       <!-- 70 -->
       <g transform="translate(268.920624 155.960107) scale(0.088 -0.088)">
        <defs>
         <path id="Helvetica-37" d="M 3347 4400 
L 3347 3909 
Q 3131 3700 2773 3181 
Q 2416 2663 2141 2063 
Q 1869 1478 1728 997 
Q 1638 688 1494 0 
L 872 0 
Q 1084 1281 1809 2550 
Q 2238 3294 2709 3834 
L 234 3834 
L 234 4400 
L 3347 4400 
z
" transform="scale(0.015625)"/>
        </defs>
        <use xlink:href="#Helvetica-37"/>
        <use xlink:href="#Helvetica-30" x="55.615234"/>
       </g>
      </g>
     </g>
     <g id="ytick_3">
      <g id="line2d_7">
       <g>
        <use xlink:href="#m1c8531bb49" x="287.007874" y="116.137307" style="stroke: #000000"/>
       </g>
      </g>
      <g id="text_12">
       <!-- 80 -->
       <g transform="translate(268.920624 119.293619) scale(0.088 -0.088)">
        <defs>
         <path id="Helvetica-38" d="M 1741 2600 
Q 2113 2600 2322 2808 
Q 2531 3016 2531 3303 
Q 2531 3553 2331 3762 
Q 2131 3972 1722 3972 
Q 1316 3972 1134 3762 
Q 953 3553 953 3272 
Q 953 2956 1187 2778 
Q 1422 2600 1741 2600 
z
M 1775 384 
Q 2166 384 2423 595 
Q 2681 806 2681 1225 
Q 2681 1659 2415 1884 
Q 2150 2109 1734 2109 
Q 1331 2109 1076 1879 
Q 822 1650 822 1244 
Q 822 894 1055 639 
Q 1288 384 1775 384 
z
M 975 2384 
Q 741 2484 609 2619 
Q 363 2869 363 3269 
Q 363 3769 725 4128 
Q 1088 4488 1753 4488 
Q 2397 4488 2762 4148 
Q 3128 3809 3128 3356 
Q 3128 2938 2916 2678 
Q 2797 2531 2547 2391 
Q 2825 2263 2984 2097 
Q 3281 1784 3281 1284 
Q 3281 694 2884 283 
Q 2488 -128 1763 -128 
Q 1109 -128 657 226 
Q 206 581 206 1256 
Q 206 1653 400 1942 
Q 594 2231 975 2384 
z
" transform="scale(0.015625)"/>
        </defs>
        <use xlink:href="#Helvetica-38"/>
        <use xlink:href="#Helvetica-30" x="55.615234"/>
       </g>
      </g>
     </g>
     <g id="ytick_4">
      <g id="line2d_8">
       <g>
        <use xlink:href="#m1c8531bb49" x="287.007874" y="79.470819" style="stroke: #000000"/>
       </g>
      </g>
      <g id="text_13">
       <!-- 90 -->
       <g transform="translate(268.920624 82.627131) scale(0.088 -0.088)">
        <defs>
         <path id="Helvetica-39" d="M 850 1081 
Q 875 616 1209 438 
Q 1381 344 1597 344 
Q 2000 344 2284 680 
Q 2569 1016 2688 2044 
Q 2500 1747 2223 1626 
Q 1947 1506 1628 1506 
Q 981 1506 604 1909 
Q 228 2313 228 2947 
Q 228 3556 600 4018 
Q 972 4481 1697 4481 
Q 2675 4481 3047 3600 
Q 3253 3116 3253 2388 
Q 3253 1566 3006 931 
Q 2597 -125 1619 -125 
Q 963 -125 622 219 
Q 281 563 281 1081 
L 850 1081 
z
M 1703 2000 
Q 2038 2000 2314 2220 
Q 2591 2441 2591 2991 
Q 2591 3484 2342 3726 
Q 2094 3969 1709 3969 
Q 1297 3969 1055 3692 
Q 813 3416 813 2953 
Q 813 2516 1025 2258 
Q 1238 2000 1703 2000 
z
" transform="scale(0.015625)"/>
        </defs>
        <use xlink:href="#Helvetica-39"/>
        <use xlink:href="#Helvetica-30" x="55.615234"/>
       </g>
      </g>
     </g>
     <g id="ytick_5">
      <g id="line2d_9">
       <g>
        <use xlink:href="#m1c8531bb49" x="287.007874" y="42.804331" style="stroke: #000000"/>
       </g>
      </g>
      <g id="text_14">
       <!-- 100 -->
       <g transform="translate(264.026999 45.960643) scale(0.088 -0.088)">
        <use xlink:href="#Helvetica-31"/>
        <use xlink:href="#Helvetica-30" x="55.615234"/>
        <use xlink:href="#Helvetica-30" x="111.230469"/>
       </g>
      </g>
     </g>
     <g id="text_15">
      <!-- Travel Costs -->
      <g transform="translate(258.151062 139.773826) rotate(-90) scale(0.09 -0.09)">
       <use xlink:href="#Helvetica-54"/>
       <use xlink:href="#Helvetica-72" x="61.083984"/>
       <use xlink:href="#Helvetica-61" x="94.384766"/>
       <use xlink:href="#Helvetica-76" x="150"/>
       <use xlink:href="#Helvetica-65" x="200"/>
       <use xlink:href="#Helvetica-6c" x="255.615234"/>
       <use xlink:href="#Helvetica-20" x="277.832031"/>
       <use xlink:href="#Helvetica-43" x="305.615234"/>
       <use xlink:href="#Helvetica-6f" x="377.832031"/>
       <use xlink:href="#Helvetica-73" x="433.447266"/>
       <use xlink:href="#Helvetica-74" x="483.447266"/>
       <use xlink:href="#Helvetica-73" x="511.230469"/>
      </g>
     </g>
    </g>
    <g id="patch_10">
     <path d="M 287.007874 201.826772 
L 287.007874 27.212598 
" style="fill: none; stroke: #000000; stroke-linejoin: miter; stroke-linecap: square"/>
    </g>
    <g id="patch_11">
     <path d="M 287.007874 201.826772 
L 484.724409 201.826772 
" style="fill: none; stroke: #000000; stroke-linejoin: miter; stroke-linecap: square"/>
    </g>
   </g>
   <g id="text_16">
    <!-- c -->
    <g transform="translate(255.11811 22.677165) scale(0.2 -0.2)">
     <defs>
      <path id="Helvetica-63" d="M 1703 3444 
Q 2269 3444 2623 3169 
Q 2978 2894 3050 2222 
L 2503 2222 
Q 2453 2531 2275 2736 
Q 2097 2941 1703 2941 
Q 1166 2941 934 2416 
Q 784 2075 784 1575 
Q 784 1072 996 728 
Q 1209 384 1666 384 
Q 2016 384 2220 598 
Q 2425 813 2503 1184 
L 3050 1184 
Q 2956 519 2581 211 
Q 2206 -97 1622 -97 
Q 966 -97 575 383 
Q 184 863 184 1581 
Q 184 2463 612 2953 
Q 1041 3444 1703 3444 
z
M 1616 3428 
L 1616 3428 
z
" transform="scale(0.015625)"/>
     </defs>
     <use xlink:href="#Helvetica-63"/>
    </g>
   </g>
  </g>
 </g>
 <defs>
  <clipPath id="p0171745607">
   <rect x="287.007874" y="27.212598" width="197.716535" height="174.614173"/>
  </clipPath>
 </defs>
</svg>
