<?xml version="1.0" encoding="utf-8" standalone="no"?>
<!DOCTYPE svg PUBLIC "-//W3C//DTD SVG 1.1//EN"
  "http://www.w3.org/Graphics/SVG/1.1/DTD/svg11.dtd">
<svg xmlns:xlink="http://www.w3.org/1999/xlink" width="249.448819pt" height="170.07874pt" viewBox="0 0 249.448819 170.07874" xmlns="http://www.w3.org/2000/svg" version="1.1">
 <metadata>
  <rdf:RDF xmlns:dc="http://purl.org/dc/elements/1.1/" xmlns:cc="http://creativecommons.org/ns#" xmlns:rdf="http://www.w3.org/1999/02/22-rdf-syntax-ns#">
   <cc:Work>
    <dc:type rdf:resource="http://purl.org/dc/dcmitype/StillImage"/>
    <dc:date>2026-05-19T13:46:37.222534</dc:date>
    <dc:format>image/svg+xml</dc:format>
    <dc:creator>
     <cc:Agent>
      <dc:title>Matplotlib v3.9.4, https://matplotlib.org/</dc:title>
     </cc:Agent>
    </dc:creator>
   </cc:Work>
  </rdf:RDF>
 </metadata>
 <defs>
  <style type="text/css">*{stroke-linejoin: round; stroke-linecap: butt}</style>
 </defs>
 <g id="figure_1">
  <g id="patch_1">
   <path d="M 0 170.07874 
L 249.448819 170.07874 
L 249.448819 0 
L 0 0 
z
" style="fill: #ffffff"/>
  </g>
  <g id="axes_1">
   <g id="patch_2">
    <path d="M 31.181102 151.370079 
L 224.503937 151.370079 
L 224.503937 20.409449 
L 31.181102 20.409449 
z
" style="fill: #ffffff"/>
   </g>
   <g id="patch_3">
    <path d="M 39.968504 43673.952756 
L 45.826772 43673.952756 
L 45.826772 37.394904 
L 39.968504 37.394904 
z
" clip-path="url(#p3c2e71465c)" style="fill: #35193e; fill-opacity: 0.25; stroke: #000000; stroke-width: 0.585827; stroke-linejoin: miter"/>
   </g>
   <g id="patch_4">
    <path d="M 45.826772 43673.952756 
L 51.685039 43673.952756 
L 51.685039 47.837541 
L 45.826772 47.837541 
z
" clip-path="url(#p3c2e71465c)" style="fill: #35193e; fill-opacity: 0.25; stroke: #000000; stroke-width: 0.585827; stroke-linejoin: miter"/>
   </g>
   <g id="patch_5">
    <path d="M 51.685039 43673.952756 
L 57.543307 43673.952756 
L 57.543307 57.000855 
L 51.685039 57.000855 
z
" clip-path="url(#p3c2e71465c)" style="fill: #35193e; fill-opacity: 0.25; stroke: #000000; stroke-width: 0.585827; stroke-linejoin: miter"/>
   </g>
   <g id="patch_6">
    <path d="M 57.543307 43673.952756 
L 63.401575 43673.952756 
L 63.401575 67.141506 
L 57.543307 67.141506 
z
" clip-path="url(#p3c2e71465c)" style="fill: #35193e; fill-opacity: 0.25; stroke: #000000; stroke-width: 0.585827; stroke-linejoin: miter"/>
   </g>
   <g id="patch_7">
    <path d="M 63.401575 43673.952756 
L 69.259843 43673.952756 
L 69.259843 76.908096 
L 63.401575 76.908096 
z
" clip-path="url(#p3c2e71465c)" style="fill: #35193e; fill-opacity: 0.25; stroke: #000000; stroke-width: 0.585827; stroke-linejoin: miter"/>
   </g>
   <g id="patch_8">
    <path d="M 69.259843 43673.952756 
L 75.11811 43673.952756 
L 75.11811 85.099782 
L 69.259843 85.099782 
z
" clip-path="url(#p3c2e71465c)" style="fill: #35193e; fill-opacity: 0.25; stroke: #000000; stroke-width: 0.585827; stroke-linejoin: miter"/>
   </g>
   <g id="patch_9">
    <path d="M 75.11811 43673.952756 
L 80.976378 43673.952756 
L 80.976378 96.206657 
L 75.11811 96.206657 
z
" clip-path="url(#p3c2e71465c)" style="fill: #35193e; fill-opacity: 0.25; stroke: #000000; stroke-width: 0.585827; stroke-linejoin: miter"/>
   </g>
   <g id="patch_10">
    <path d="M 80.976378 43673.952756 
L 86.834646 43673.952756 
L 86.834646 108.290054 
L 80.976378 108.290054 
z
" clip-path="url(#p3c2e71465c)" style="fill: #35193e; fill-opacity: 0.25; stroke: #000000; stroke-width: 0.585827; stroke-linejoin: miter"/>
   </g>
   <g id="patch_11">
    <path d="M 86.834646 43673.952756 
L 92.692913 43673.952756 
L 92.692913 116.763185 
L 86.834646 116.763185 
z
" clip-path="url(#p3c2e71465c)" style="fill: #35193e; fill-opacity: 0.25; stroke: #000000; stroke-width: 0.585827; stroke-linejoin: miter"/>
   </g>
   <g id="patch_12">
    <path d="M 92.692913 43673.952756 
L 98.551181 43673.952756 
L 98.551181 124.870792 
L 92.692913 124.870792 
z
" clip-path="url(#p3c2e71465c)" style="fill: #35193e; fill-opacity: 0.25; stroke: #000000; stroke-width: 0.585827; stroke-linejoin: miter"/>
   </g>
   <g id="patch_13">
    <path d="M 98.551181 43673.952756 
L 104.409449 43673.952756 
L 104.409449 141.484773 
L 98.551181 141.484773 
z
" clip-path="url(#p3c2e71465c)" style="fill: #35193e; fill-opacity: 0.25; stroke: #000000; stroke-width: 0.585827; stroke-linejoin: miter"/>
   </g>
   <g id="patch_14">
    <path d="M 104.409449 43673.952756 
L 110.267717 43673.952756 
L 110.267717 148.918407 
L 104.409449 148.918407 
z
" clip-path="url(#p3c2e71465c)" style="fill: #35193e; fill-opacity: 0.25; stroke: #000000; stroke-width: 0.585827; stroke-linejoin: miter"/>
   </g>
   <g id="patch_15">
    <path d="M 110.267717 43673.952756 
L 116.125984 43673.952756 
L 116.125984 156.018136 
L 110.267717 156.018136 
z
" clip-path="url(#p3c2e71465c)" style="fill: #35193e; fill-opacity: 0.25; stroke: #000000; stroke-width: 0.585827; stroke-linejoin: miter"/>
   </g>
   <g id="patch_16">
    <path d="M 116.125984 43673.952756 
L 121.984252 43673.952756 
L 121.984252 169.995602 
L 116.125984 169.995602 
z
" clip-path="url(#p3c2e71465c)" style="fill: #35193e; fill-opacity: 0.25; stroke: #000000; stroke-width: 0.585827; stroke-linejoin: miter"/>
   </g>
   <g id="patch_17">
    <path d="M 121.984252 43673.952756 
L 127.84252 43673.952756 
L 127.84252 189.297783 
L 121.984252 189.297783 
z
" clip-path="url(#p3c2e71465c)" style="fill: #35193e; fill-opacity: 0.25; stroke: #000000; stroke-width: 0.585827; stroke-linejoin: miter"/>
   </g>
   <g id="patch_18">
    <path d="M 127.84252 43673.952756 
L 133.700787 43673.952756 
L 133.700787 196.513124 
L 127.84252 196.513124 
z
" clip-path="url(#p3c2e71465c)" style="fill: #35193e; fill-opacity: 0.25; stroke: #000000; stroke-width: 0.585827; stroke-linejoin: miter"/>
   </g>
   <g id="patch_19">
    <path d="M 133.700787 43673.952756 
L 139.559055 43673.952756 
L 139.559055 231.727246 
L 133.700787 231.727246 
z
" clip-path="url(#p3c2e71465c)" style="fill: #35193e; fill-opacity: 0.25; stroke: #000000; stroke-width: 0.585827; stroke-linejoin: miter"/>
   </g>
   <g id="patch_20">
    <path d="M 139.559055 43673.952756 
L 145.417323 43673.952756 
L 145.417323 43673.952756 
L 139.559055 43673.952756 
z
" clip-path="url(#p3c2e71465c)" style="fill: #35193e; fill-opacity: 0.25; stroke: #000000; stroke-width: 0.585827; stroke-linejoin: miter"/>
   </g>
   <g id="patch_21">
    <path d="M 145.417323 43673.952756 
L 151.275591 43673.952756 
L 151.275591 245.131071 
L 145.417323 245.131071 
z
" clip-path="url(#p3c2e71465c)" style="fill: #35193e; fill-opacity: 0.25; stroke: #000000; stroke-width: 0.585827; stroke-linejoin: miter"/>
   </g>
   <g id="patch_22">
    <path d="M 151.275591 43673.952756 
L 157.133858 43673.952756 
L 157.133858 43673.952756 
L 151.275591 43673.952756 
z
" clip-path="url(#p3c2e71465c)" style="fill: #35193e; fill-opacity: 0.25; stroke: #000000; stroke-width: 0.585827; stroke-linejoin: miter"/>
   </g>
   <g id="patch_23">
    <path d="M 157.133858 43673.952756 
L 162.992126 43673.952756 
L 162.992126 43673.952756 
L 157.133858 43673.952756 
z
" clip-path="url(#p3c2e71465c)" style="fill: #35193e; fill-opacity: 0.25; stroke: #000000; stroke-width: 0.585827; stroke-linejoin: miter"/>
   </g>
   <g id="patch_24">
    <path d="M 162.992126 43673.952756 
L 168.850394 43673.952756 
L 168.850394 43673.952756 
L 162.992126 43673.952756 
z
" clip-path="url(#p3c2e71465c)" style="fill: #35193e; fill-opacity: 0.25; stroke: #000000; stroke-width: 0.585827; stroke-linejoin: miter"/>
   </g>
   <g id="patch_25">
    <path d="M 168.850394 43673.952756 
L 174.708661 43673.952756 
L 174.708661 43673.952756 
L 168.850394 43673.952756 
z
" clip-path="url(#p3c2e71465c)" style="fill: #35193e; fill-opacity: 0.25; stroke: #000000; stroke-width: 0.585827; stroke-linejoin: miter"/>
   </g>
   <g id="patch_26">
    <path d="M 174.708661 43673.952756 
L 180.566929 43673.952756 
L 180.566929 43673.952756 
L 174.708661 43673.952756 
z
" clip-path="url(#p3c2e71465c)" style="fill: #35193e; fill-opacity: 0.25; stroke: #000000; stroke-width: 0.585827; stroke-linejoin: miter"/>
   </g>
   <g id="patch_27">
    <path d="M 180.566929 43673.952756 
L 186.425197 43673.952756 
L 186.425197 43673.952756 
L 180.566929 43673.952756 
z
" clip-path="url(#p3c2e71465c)" style="fill: #35193e; fill-opacity: 0.25; stroke: #000000; stroke-width: 0.585827; stroke-linejoin: miter"/>
   </g>
   <g id="patch_28">
    <path d="M 186.425197 43673.952756 
L 192.283465 43673.952756 
L 192.283465 43673.952756 
L 186.425197 43673.952756 
z
" clip-path="url(#p3c2e71465c)" style="fill: #35193e; fill-opacity: 0.25; stroke: #000000; stroke-width: 0.585827; stroke-linejoin: miter"/>
   </g>
   <g id="patch_29">
    <path d="M 192.283465 43673.952756 
L 198.141732 43673.952756 
L 198.141732 43673.952756 
L 192.283465 43673.952756 
z
" clip-path="url(#p3c2e71465c)" style="fill: #35193e; fill-opacity: 0.25; stroke: #000000; stroke-width: 0.585827; stroke-linejoin: miter"/>
   </g>
   <g id="patch_30">
    <path d="M 198.141732 43673.952756 
L 204 43673.952756 
L 204 43673.952756 
L 198.141732 43673.952756 
z
" clip-path="url(#p3c2e71465c)" style="fill: #35193e; fill-opacity: 0.25; stroke: #000000; stroke-width: 0.585827; stroke-linejoin: miter"/>
   </g>
   <g id="patch_31">
    <path d="M 204 43673.952756 
L 209.858268 43673.952756 
L 209.858268 43673.952756 
L 204 43673.952756 
z
" clip-path="url(#p3c2e71465c)" style="fill: #35193e; fill-opacity: 0.25; stroke: #000000; stroke-width: 0.585827; stroke-linejoin: miter"/>
   </g>
   <g id="patch_32">
    <path d="M 209.858268 43673.952756 
L 215.716535 43673.952756 
L 215.716535 43673.952756 
L 209.858268 43673.952756 
z
" clip-path="url(#p3c2e71465c)" style="fill: #35193e; fill-opacity: 0.25; stroke: #000000; stroke-width: 0.585827; stroke-linejoin: miter"/>
   </g>
   <g id="patch_33">
    <path d="M 39.968504 43673.952756 
L 45.826772 43673.952756 
L 45.826772 44.281819 
L 39.968504 44.281819 
z
" clip-path="url(#p3c2e71465c)" style="fill: #ad1759; fill-opacity: 0.25; stroke: #000000; stroke-width: 0.585827; stroke-linejoin: miter"/>
   </g>
   <g id="patch_34">
    <path d="M 45.826772 43673.952756 
L 51.685039 43673.952756 
L 51.685039 51.685977 
L 45.826772 51.685977 
z
" clip-path="url(#p3c2e71465c)" style="fill: #ad1759; fill-opacity: 0.25; stroke: #000000; stroke-width: 0.585827; stroke-linejoin: miter"/>
   </g>
   <g id="patch_35">
    <path d="M 51.685039 43673.952756 
L 57.543307 43673.952756 
L 57.543307 56.908142 
L 51.685039 56.908142 
z
" clip-path="url(#p3c2e71465c)" style="fill: #ad1759; fill-opacity: 0.25; stroke: #000000; stroke-width: 0.585827; stroke-linejoin: miter"/>
   </g>
   <g id="patch_36">
    <path d="M 57.543307 43673.952756 
L 63.401575 43673.952756 
L 63.401575 63.75536 
L 57.543307 63.75536 
z
" clip-path="url(#p3c2e71465c)" style="fill: #ad1759; fill-opacity: 0.25; stroke: #000000; stroke-width: 0.585827; stroke-linejoin: miter"/>
   </g>
   <g id="patch_37">
    <path d="M 63.401575 43673.952756 
L 69.259843 43673.952756 
L 69.259843 70.632645 
L 63.401575 70.632645 
z
" clip-path="url(#p3c2e71465c)" style="fill: #ad1759; fill-opacity: 0.25; stroke: #000000; stroke-width: 0.585827; stroke-linejoin: miter"/>
   </g>
   <g id="patch_38">
    <path d="M 69.259843 43673.952756 
L 75.11811 43673.952756 
L 75.11811 75.931802 
L 69.259843 75.931802 
z
" clip-path="url(#p3c2e71465c)" style="fill: #ad1759; fill-opacity: 0.25; stroke: #000000; stroke-width: 0.585827; stroke-linejoin: miter"/>
   </g>
   <g id="patch_39">
    <path d="M 75.11811 43673.952756 
L 80.976378 43673.952756 
L 80.976378 81.579856 
L 75.11811 81.579856 
z
" clip-path="url(#p3c2e71465c)" style="fill: #ad1759; fill-opacity: 0.25; stroke: #000000; stroke-width: 0.585827; stroke-linejoin: miter"/>
   </g>
   <g id="patch_40">
    <path d="M 80.976378 43673.952756 
L 86.834646 43673.952756 
L 86.834646 87.408818 
L 80.976378 87.408818 
z
" clip-path="url(#p3c2e71465c)" style="fill: #ad1759; fill-opacity: 0.25; stroke: #000000; stroke-width: 0.585827; stroke-linejoin: miter"/>
   </g>
   <g id="patch_41">
    <path d="M 86.834646 43673.952756 
L 92.692913 43673.952756 
L 92.692913 91.082513 
L 86.834646 91.082513 
z
" clip-path="url(#p3c2e71465c)" style="fill: #ad1759; fill-opacity: 0.25; stroke: #000000; stroke-width: 0.585827; stroke-linejoin: miter"/>
   </g>
   <g id="patch_42">
    <path d="M 92.692913 43673.952756 
L 98.551181 43673.952756 
L 98.551181 96.729955 
L 92.692913 96.729955 
z
" clip-path="url(#p3c2e71465c)" style="fill: #ad1759; fill-opacity: 0.25; stroke: #000000; stroke-width: 0.585827; stroke-linejoin: miter"/>
   </g>
   <g id="patch_43">
    <path d="M 98.551181 43673.952756 
L 104.409449 43673.952756 
L 104.409449 102.735532 
L 98.551181 102.735532 
z
" clip-path="url(#p3c2e71465c)" style="fill: #ad1759; fill-opacity: 0.25; stroke: #000000; stroke-width: 0.585827; stroke-linejoin: miter"/>
   </g>
   <g id="patch_44">
    <path d="M 104.409449 43673.952756 
L 110.267717 43673.952756 
L 110.267717 106.301587 
L 104.409449 106.301587 
z
" clip-path="url(#p3c2e71465c)" style="fill: #ad1759; fill-opacity: 0.25; stroke: #000000; stroke-width: 0.585827; stroke-linejoin: miter"/>
   </g>
   <g id="patch_45">
    <path d="M 110.267717 43673.952756 
L 116.125984 43673.952756 
L 116.125984 115.735284 
L 110.267717 115.735284 
z
" clip-path="url(#p3c2e71465c)" style="fill: #ad1759; fill-opacity: 0.25; stroke: #000000; stroke-width: 0.585827; stroke-linejoin: miter"/>
   </g>
   <g id="patch_46">
    <path d="M 116.125984 43673.952756 
L 121.984252 43673.952756 
L 121.984252 125.295895 
L 116.125984 125.295895 
z
" clip-path="url(#p3c2e71465c)" style="fill: #ad1759; fill-opacity: 0.25; stroke: #000000; stroke-width: 0.585827; stroke-linejoin: miter"/>
   </g>
   <g id="patch_47">
    <path d="M 121.984252 43673.952756 
L 127.84252 43673.952756 
L 127.84252 129.666513 
L 121.984252 129.666513 
z
" clip-path="url(#p3c2e71465c)" style="fill: #ad1759; fill-opacity: 0.25; stroke: #000000; stroke-width: 0.585827; stroke-linejoin: miter"/>
   </g>
   <g id="patch_48">
    <path d="M 127.84252 43673.952756 
L 133.700787 43673.952756 
L 133.700787 142.95401 
L 127.84252 142.95401 
z
" clip-path="url(#p3c2e71465c)" style="fill: #ad1759; fill-opacity: 0.25; stroke: #000000; stroke-width: 0.585827; stroke-linejoin: miter"/>
   </g>
   <g id="patch_49">
    <path d="M 133.700787 43673.952756 
L 139.559055 43673.952756 
L 139.559055 151.919963 
L 133.700787 151.919963 
z
" clip-path="url(#p3c2e71465c)" style="fill: #ad1759; fill-opacity: 0.25; stroke: #000000; stroke-width: 0.585827; stroke-linejoin: miter"/>
   </g>
   <g id="patch_50">
    <path d="M 139.559055 43673.952756 
L 145.417323 43673.952756 
L 145.417323 163.390981 
L 139.559055 163.390981 
z
" clip-path="url(#p3c2e71465c)" style="fill: #ad1759; fill-opacity: 0.25; stroke: #000000; stroke-width: 0.585827; stroke-linejoin: miter"/>
   </g>
   <g id="patch_51">
    <path d="M 145.417323 43673.952756 
L 151.275591 43673.952756 
L 151.275591 157.181416 
L 145.417323 157.181416 
z
" clip-path="url(#p3c2e71465c)" style="fill: #ad1759; fill-opacity: 0.25; stroke: #000000; stroke-width: 0.585827; stroke-linejoin: miter"/>
   </g>
   <g id="patch_52">
    <path d="M 151.275591 43673.952756 
L 157.133858 43673.952756 
L 157.133858 183.651415 
L 151.275591 183.651415 
z
" clip-path="url(#p3c2e71465c)" style="fill: #ad1759; fill-opacity: 0.25; stroke: #000000; stroke-width: 0.585827; stroke-linejoin: miter"/>
   </g>
   <g id="patch_53">
    <path d="M 157.133858 43673.952756 
L 162.992126 43673.952756 
L 162.992126 198.708359 
L 157.133858 198.708359 
z
" clip-path="url(#p3c2e71465c)" style="fill: #ad1759; fill-opacity: 0.25; stroke: #000000; stroke-width: 0.585827; stroke-linejoin: miter"/>
   </g>
   <g id="patch_54">
    <path d="M 162.992126 43673.952756 
L 168.850394 43673.952756 
L 168.850394 199.815826 
L 162.992126 199.815826 
z
" clip-path="url(#p3c2e71465c)" style="fill: #ad1759; fill-opacity: 0.25; stroke: #000000; stroke-width: 0.585827; stroke-linejoin: miter"/>
   </g>
   <g id="patch_55">
    <path d="M 168.850394 43673.952756 
L 174.708661 43673.952756 
L 174.708661 43673.952756 
L 168.850394 43673.952756 
z
" clip-path="url(#p3c2e71465c)" style="fill: #ad1759; fill-opacity: 0.25; stroke: #000000; stroke-width: 0.585827; stroke-linejoin: miter"/>
   </g>
   <g id="patch_56">
    <path d="M 174.708661 43673.952756 
L 180.566929 43673.952756 
L 180.566929 43673.952756 
L 174.708661 43673.952756 
z
" clip-path="url(#p3c2e71465c)" style="fill: #ad1759; fill-opacity: 0.25; stroke: #000000; stroke-width: 0.585827; stroke-linejoin: miter"/>
   </g>
   <g id="patch_57">
    <path d="M 180.566929 43673.952756 
L 186.425197 43673.952756 
L 186.425197 43673.952756 
L 180.566929 43673.952756 
z
" clip-path="url(#p3c2e71465c)" style="fill: #ad1759; fill-opacity: 0.25; stroke: #000000; stroke-width: 0.585827; stroke-linejoin: miter"/>
   </g>
   <g id="patch_58">
    <path d="M 186.425197 43673.952756 
L 192.283465 43673.952756 
L 192.283465 43673.952756 
L 186.425197 43673.952756 
z
" clip-path="url(#p3c2e71465c)" style="fill: #ad1759; fill-opacity: 0.25; stroke: #000000; stroke-width: 0.585827; stroke-linejoin: miter"/>
   </g>
   <g id="patch_59">
    <path d="M 192.283465 43673.952756 
L 198.141732 43673.952756 
L 198.141732 43673.952756 
L 192.283465 43673.952756 
z
" clip-path="url(#p3c2e71465c)" style="fill: #ad1759; fill-opacity: 0.25; stroke: #000000; stroke-width: 0.585827; stroke-linejoin: miter"/>
   </g>
   <g id="patch_60">
    <path d="M 198.141732 43673.952756 
L 204 43673.952756 
L 204 43673.952756 
L 198.141732 43673.952756 
z
" clip-path="url(#p3c2e71465c)" style="fill: #ad1759; fill-opacity: 0.25; stroke: #000000; stroke-width: 0.585827; stroke-linejoin: miter"/>
   </g>
   <g id="patch_61">
    <path d="M 204 43673.952756 
L 209.858268 43673.952756 
L 209.858268 43673.952756 
L 204 43673.952756 
z
" clip-path="url(#p3c2e71465c)" style="fill: #ad1759; fill-opacity: 0.25; stroke: #000000; stroke-width: 0.585827; stroke-linejoin: miter"/>
   </g>
   <g id="patch_62">
    <path d="M 209.858268 43673.952756 
L 215.716535 43673.952756 
L 215.716535 43673.952756 
L 209.858268 43673.952756 
z
" clip-path="url(#p3c2e71465c)" style="fill: #ad1759; fill-opacity: 0.25; stroke: #000000; stroke-width: 0.585827; stroke-linejoin: miter"/>
   </g>
   <g id="patch_63">
    <path d="M 39.968504 43673.952756 
L 45.826772 43673.952756 
L 45.826772 51.960963 
L 39.968504 51.960963 
z
" clip-path="url(#p3c2e71465c)" style="fill: #f37651; fill-opacity: 0.25; stroke: #000000; stroke-width: 0.585827; stroke-linejoin: miter"/>
   </g>
   <g id="patch_64">
    <path d="M 45.826772 43673.952756 
L 51.685039 43673.952756 
L 51.685039 55.53144 
L 45.826772 55.53144 
z
" clip-path="url(#p3c2e71465c)" style="fill: #f37651; fill-opacity: 0.25; stroke: #000000; stroke-width: 0.585827; stroke-linejoin: miter"/>
   </g>
   <g id="patch_65">
    <path d="M 51.685039 43673.952756 
L 57.543307 43673.952756 
L 57.543307 58.8573 
L 51.685039 58.8573 
z
" clip-path="url(#p3c2e71465c)" style="fill: #f37651; fill-opacity: 0.25; stroke: #000000; stroke-width: 0.585827; stroke-linejoin: miter"/>
   </g>
   <g id="patch_66">
    <path d="M 57.543307 43673.952756 
L 63.401575 43673.952756 
L 63.401575 62.510712 
L 57.543307 62.510712 
z
" clip-path="url(#p3c2e71465c)" style="fill: #f37651; fill-opacity: 0.25; stroke: #000000; stroke-width: 0.585827; stroke-linejoin: miter"/>
   </g>
   <g id="patch_67">
    <path d="M 63.401575 43673.952756 
L 69.259843 43673.952756 
L 69.259843 66.47023 
L 63.401575 66.47023 
z
" clip-path="url(#p3c2e71465c)" style="fill: #f37651; fill-opacity: 0.25; stroke: #000000; stroke-width: 0.585827; stroke-linejoin: miter"/>
   </g>
   <g id="patch_68">
    <path d="M 69.259843 43673.952756 
L 75.11811 43673.952756 
L 75.11811 69.597648 
L 69.259843 69.597648 
z
" clip-path="url(#p3c2e71465c)" style="fill: #f37651; fill-opacity: 0.25; stroke: #000000; stroke-width: 0.585827; stroke-linejoin: miter"/>
   </g>
   <g id="patch_69">
    <path d="M 75.11811 43673.952756 
L 80.976378 43673.952756 
L 80.976378 72.933011 
L 75.11811 72.933011 
z
" clip-path="url(#p3c2e71465c)" style="fill: #f37651; fill-opacity: 0.25; stroke: #000000; stroke-width: 0.585827; stroke-linejoin: miter"/>
   </g>
   <g id="patch_70">
    <path d="M 80.976378 43673.952756 
L 86.834646 43673.952756 
L 86.834646 79.031857 
L 80.976378 79.031857 
z
" clip-path="url(#p3c2e71465c)" style="fill: #f37651; fill-opacity: 0.25; stroke: #000000; stroke-width: 0.585827; stroke-linejoin: miter"/>
   </g>
   <g id="patch_71">
    <path d="M 86.834646 43673.952756 
L 92.692913 43673.952756 
L 92.692913 83.27638 
L 86.834646 83.27638 
z
" clip-path="url(#p3c2e71465c)" style="fill: #f37651; fill-opacity: 0.25; stroke: #000000; stroke-width: 0.585827; stroke-linejoin: miter"/>
   </g>
   <g id="patch_72">
    <path d="M 92.692913 43673.952756 
L 98.551181 43673.952756 
L 98.551181 88.902795 
L 92.692913 88.902795 
z
" clip-path="url(#p3c2e71465c)" style="fill: #f37651; fill-opacity: 0.25; stroke: #000000; stroke-width: 0.585827; stroke-linejoin: miter"/>
   </g>
   <g id="patch_73">
    <path d="M 98.551181 43673.952756 
L 104.409449 43673.952756 
L 104.409449 94.448801 
L 98.551181 94.448801 
z
" clip-path="url(#p3c2e71465c)" style="fill: #f37651; fill-opacity: 0.25; stroke: #000000; stroke-width: 0.585827; stroke-linejoin: miter"/>
   </g>
   <g id="patch_74">
    <path d="M 104.409449 43673.952756 
L 110.267717 43673.952756 
L 110.267717 96.999811 
L 104.409449 96.999811 
z
" clip-path="url(#p3c2e71465c)" style="fill: #f37651; fill-opacity: 0.25; stroke: #000000; stroke-width: 0.585827; stroke-linejoin: miter"/>
   </g>
   <g id="patch_75">
    <path d="M 110.267717 43673.952756 
L 116.125984 43673.952756 
L 116.125984 102.643012 
L 110.267717 102.643012 
z
" clip-path="url(#p3c2e71465c)" style="fill: #f37651; fill-opacity: 0.25; stroke: #000000; stroke-width: 0.585827; stroke-linejoin: miter"/>
   </g>
   <g id="patch_76">
    <path d="M 116.125984 43673.952756 
L 121.984252 43673.952756 
L 121.984252 110.457655 
L 116.125984 110.457655 
z
" clip-path="url(#p3c2e71465c)" style="fill: #f37651; fill-opacity: 0.25; stroke: #000000; stroke-width: 0.585827; stroke-linejoin: miter"/>
   </g>
   <g id="patch_77">
    <path d="M 121.984252 43673.952756 
L 127.84252 43673.952756 
L 127.84252 114.566278 
L 121.984252 114.566278 
z
" clip-path="url(#p3c2e71465c)" style="fill: #f37651; fill-opacity: 0.25; stroke: #000000; stroke-width: 0.585827; stroke-linejoin: miter"/>
   </g>
   <g id="patch_78">
    <path d="M 127.84252 43673.952756 
L 133.700787 43673.952756 
L 133.700787 126.314774 
L 127.84252 126.314774 
z
" clip-path="url(#p3c2e71465c)" style="fill: #f37651; fill-opacity: 0.25; stroke: #000000; stroke-width: 0.585827; stroke-linejoin: miter"/>
   </g>
   <g id="patch_79">
    <path d="M 133.700787 43673.952756 
L 139.559055 43673.952756 
L 139.559055 137.702425 
L 133.700787 137.702425 
z
" clip-path="url(#p3c2e71465c)" style="fill: #f37651; fill-opacity: 0.25; stroke: #000000; stroke-width: 0.585827; stroke-linejoin: miter"/>
   </g>
   <g id="patch_80">
    <path d="M 139.559055 43673.952756 
L 145.417323 43673.952756 
L 145.417323 142.39876 
L 139.559055 142.39876 
z
" clip-path="url(#p3c2e71465c)" style="fill: #f37651; fill-opacity: 0.25; stroke: #000000; stroke-width: 0.585827; stroke-linejoin: miter"/>
   </g>
   <g id="patch_81">
    <path d="M 145.417323 43673.952756 
L 151.275591 43673.952756 
L 151.275591 141.296366 
L 145.417323 141.296366 
z
" clip-path="url(#p3c2e71465c)" style="fill: #f37651; fill-opacity: 0.25; stroke: #000000; stroke-width: 0.585827; stroke-linejoin: miter"/>
   </g>
   <g id="patch_82">
    <path d="M 151.275591 43673.952756 
L 157.133858 43673.952756 
L 157.133858 154.64536 
L 151.275591 154.64536 
z
" clip-path="url(#p3c2e71465c)" style="fill: #f37651; fill-opacity: 0.25; stroke: #000000; stroke-width: 0.585827; stroke-linejoin: miter"/>
   </g>
   <g id="patch_83">
    <path d="M 157.133858 43673.952756 
L 162.992126 43673.952756 
L 162.992126 156.062134 
L 157.133858 156.062134 
z
" clip-path="url(#p3c2e71465c)" style="fill: #f37651; fill-opacity: 0.25; stroke: #000000; stroke-width: 0.585827; stroke-linejoin: miter"/>
   </g>
   <g id="patch_84">
    <path d="M 162.992126 43673.952756 
L 168.850394 43673.952756 
L 168.850394 156.942877 
L 162.992126 156.942877 
z
" clip-path="url(#p3c2e71465c)" style="fill: #f37651; fill-opacity: 0.25; stroke: #000000; stroke-width: 0.585827; stroke-linejoin: miter"/>
   </g>
   <g id="patch_85">
    <path d="M 168.850394 43673.952756 
L 174.708661 43673.952756 
L 174.708661 168.394523 
L 168.850394 168.394523 
z
" clip-path="url(#p3c2e71465c)" style="fill: #f37651; fill-opacity: 0.25; stroke: #000000; stroke-width: 0.585827; stroke-linejoin: miter"/>
   </g>
   <g id="patch_86">
    <path d="M 174.708661 43673.952756 
L 180.566929 43673.952756 
L 180.566929 176.8199 
L 174.708661 176.8199 
z
" clip-path="url(#p3c2e71465c)" style="fill: #f37651; fill-opacity: 0.25; stroke: #000000; stroke-width: 0.585827; stroke-linejoin: miter"/>
   </g>
   <g id="patch_87">
    <path d="M 180.566929 43673.952756 
L 186.425197 43673.952756 
L 186.425197 172.417318 
L 180.566929 172.417318 
z
" clip-path="url(#p3c2e71465c)" style="fill: #f37651; fill-opacity: 0.25; stroke: #000000; stroke-width: 0.585827; stroke-linejoin: miter"/>
   </g>
   <g id="patch_88">
    <path d="M 186.425197 43673.952756 
L 192.283465 43673.952756 
L 192.283465 179.66023 
L 186.425197 179.66023 
z
" clip-path="url(#p3c2e71465c)" style="fill: #f37651; fill-opacity: 0.25; stroke: #000000; stroke-width: 0.585827; stroke-linejoin: miter"/>
   </g>
   <g id="patch_89">
    <path d="M 192.283465 43673.952756 
L 198.141732 43673.952756 
L 198.141732 186.742951 
L 192.283465 186.742951 
z
" clip-path="url(#p3c2e71465c)" style="fill: #f37651; fill-opacity: 0.25; stroke: #000000; stroke-width: 0.585827; stroke-linejoin: miter"/>
   </g>
   <g id="patch_90">
    <path d="M 198.141732 43673.952756 
L 204 43673.952756 
L 204 185.616524 
L 198.141732 185.616524 
z
" clip-path="url(#p3c2e71465c)" style="fill: #f37651; fill-opacity: 0.25; stroke: #000000; stroke-width: 0.585827; stroke-linejoin: miter"/>
   </g>
   <g id="patch_91">
    <path d="M 204 43673.952756 
L 209.858268 43673.952756 
L 209.858268 195.79001 
L 204 195.79001 
z
" clip-path="url(#p3c2e71465c)" style="fill: #f37651; fill-opacity: 0.25; stroke: #000000; stroke-width: 0.585827; stroke-linejoin: miter"/>
   </g>
   <g id="patch_92">
    <path d="M 209.858268 43673.952756 
L 215.716535 43673.952756 
L 215.716535 196.398637 
L 209.858268 196.398637 
z
" clip-path="url(#p3c2e71465c)" style="fill: #f37651; fill-opacity: 0.25; stroke: #000000; stroke-width: 0.585827; stroke-linejoin: miter"/>
   </g>
   <g id="matplotlib.axis_1">
    <g id="xtick_1">
     <g id="line2d_1">
      <defs>
       <path id="m91b990e9ef" d="M 0 0 
L 0 4.8 
" style="stroke: #000000"/>
      </defs>
      <g>
       <use xlink:href="#m91b990e9ef" x="39.968504" y="151.370079" style="stroke: #000000"/>
      </g>
     </g>
     <g id="text_1">
      <!-- 0 -->
      <g transform="translate(37.521691 165.982704) scale(0.088 -0.088)">
       <defs>
        <path id="Helvetica-30" d="M 1731 4475 
Q 2600 4475 2988 3759 
Q 3288 3206 3288 2244 
Q 3288 1331 3016 734 
Q 2622 -122 1728 -122 
Q 922 -122 528 578 
Q 200 1163 200 2147 
Q 200 2909 397 3456 
Q 766 4475 1731 4475 
z
M 1725 391 
Q 2163 391 2422 778 
Q 2681 1166 2681 2222 
Q 2681 2984 2493 3476 
Q 2306 3969 1766 3969 
Q 1269 3969 1039 3501 
Q 809 3034 809 2125 
Q 809 1441 956 1025 
Q 1181 391 1725 391 
z
" transform="scale(0.015625)"/>
       </defs>
       <use xlink:href="#Helvetica-30"/>
      </g>
     </g>
    </g>
    <g id="xtick_2">
     <g id="line2d_2">
      <g>
       <use xlink:href="#m91b990e9ef" x="88.787402" y="151.370079" style="stroke: #000000"/>
      </g>
     </g>
     <g id="text_2">
      <!-- 50 -->
      <g transform="translate(83.893777 165.982704) scale(0.088 -0.088)">
       <defs>
        <path id="Helvetica-35" d="M 791 1141 
Q 847 659 1238 475 
Q 1438 381 1700 381 
Q 2200 381 2440 700 
Q 2681 1019 2681 1406 
Q 2681 1875 2395 2131 
Q 2109 2388 1709 2388 
Q 1419 2388 1211 2275 
Q 1003 2163 856 1963 
L 369 1991 
L 709 4400 
L 3034 4400 
L 3034 3856 
L 1131 3856 
L 941 2613 
Q 1097 2731 1238 2791 
Q 1488 2894 1816 2894 
Q 2431 2894 2859 2497 
Q 3288 2100 3288 1491 
Q 3288 856 2895 371 
Q 2503 -113 1644 -113 
Q 1097 -113 676 195 
Q 256 503 206 1141 
L 791 1141 
z
" transform="scale(0.015625)"/>
       </defs>
       <use xlink:href="#Helvetica-35"/>
       <use xlink:href="#Helvetica-30" x="55.615234"/>
      </g>
     </g>
    </g>
    <g id="xtick_3">
     <g id="line2d_3">
      <g>
       <use xlink:href="#m91b990e9ef" x="137.606299" y="151.370079" style="stroke: #000000"/>
      </g>
     </g>
     <g id="text_3">
      <!-- 100 -->
      <g transform="translate(130.265862 165.982704) scale(0.088 -0.088)">
       <defs>
        <path id="Helvetica-31" d="M 613 3169 
L 613 3600 
Q 1222 3659 1462 3798 
Q 1703 3938 1822 4456 
L 2266 4456 
L 2266 0 
L 1666 0 
L 1666 3169 
L 613 3169 
z
" transform="scale(0.015625)"/>
       </defs>
       <use xlink:href="#Helvetica-31"/>
       <use xlink:href="#Helvetica-30" x="55.615234"/>
       <use xlink:href="#Helvetica-30" x="111.230469"/>
      </g>
     </g>
    </g>
    <g id="xtick_4">
     <g id="line2d_4">
      <g>
       <use xlink:href="#m91b990e9ef" x="186.425197" y="151.370079" style="stroke: #000000"/>
      </g>
     </g>
     <g id="text_4">
      <!-- 150 -->
      <g transform="translate(179.084759 165.982704) scale(0.088 -0.088)">
       <use xlink:href="#Helvetica-31"/>
       <use xlink:href="#Helvetica-35" x="55.615234"/>
       <use xlink:href="#Helvetica-30" x="111.230469"/>
      </g>
     </g>
    </g>
    <g id="text_5">
     <!-- Angle (degrees) -->
     <g transform="translate(95.826426 178.378516) scale(0.09 -0.09)">
      <defs>
       <path id="Helvetica-41" d="M 2844 1881 
L 2147 3909 
L 1406 1881 
L 2844 1881 
z
M 1822 4591 
L 2525 4591 
L 4191 0 
L 3509 0 
L 3044 1375 
L 1228 1375 
L 731 0 
L 94 0 
L 1822 4591 
z
" transform="scale(0.015625)"/>
       <path id="Helvetica-6e" d="M 413 3347 
L 947 3347 
L 947 2872 
Q 1184 3166 1450 3294 
Q 1716 3422 2041 3422 
Q 2753 3422 3003 2925 
Q 3141 2653 3141 2147 
L 3141 0 
L 2569 0 
L 2569 2109 
Q 2569 2416 2478 2603 
Q 2328 2916 1934 2916 
Q 1734 2916 1606 2875 
Q 1375 2806 1200 2600 
Q 1059 2434 1017 2257 
Q 975 2081 975 1753 
L 975 0 
L 413 0 
L 413 3347 
z
M 1734 3428 
L 1734 3428 
z
" transform="scale(0.015625)"/>
       <path id="Helvetica-67" d="M 1594 3406 
Q 1988 3406 2281 3213 
Q 2441 3103 2606 2894 
L 2606 3316 
L 3125 3316 
L 3125 272 
Q 3125 -366 2938 -734 
Q 2588 -1416 1616 -1416 
Q 1075 -1416 706 -1173 
Q 338 -931 294 -416 
L 866 -416 
Q 906 -641 1028 -763 
Q 1219 -950 1628 -950 
Q 2275 -950 2475 -494 
Q 2594 -225 2584 466 
Q 2416 209 2178 84 
Q 1941 -41 1550 -41 
Q 1006 -41 598 345 
Q 191 731 191 1622 
Q 191 2463 602 2934 
Q 1013 3406 1594 3406 
z
M 2606 1688 
Q 2606 2309 2350 2609 
Q 2094 2909 1697 2909 
Q 1103 2909 884 2353 
Q 769 2056 769 1575 
Q 769 1009 998 714 
Q 1228 419 1616 419 
Q 2222 419 2469 966 
Q 2606 1275 2606 1688 
z
M 1659 3428 
L 1659 3428 
z
" transform="scale(0.015625)"/>
       <path id="Helvetica-6c" d="M 428 4591 
L 991 4591 
L 991 0 
L 428 0 
L 428 4591 
z
" transform="scale(0.015625)"/>
       <path id="Helvetica-65" d="M 1806 3422 
Q 2163 3422 2497 3255 
Q 2831 3088 3006 2822 
Q 3175 2569 3231 2231 
Q 3281 2000 3281 1494 
L 828 1494 
Q 844 984 1069 676 
Q 1294 369 1766 369 
Q 2206 369 2469 659 
Q 2619 828 2681 1050 
L 3234 1050 
Q 3213 866 3089 639 
Q 2966 413 2813 269 
Q 2556 19 2178 -69 
Q 1975 -119 1719 -119 
Q 1094 -119 659 336 
Q 225 791 225 1609 
Q 225 2416 662 2919 
Q 1100 3422 1806 3422 
z
M 2703 1941 
Q 2669 2306 2544 2525 
Q 2313 2931 1772 2931 
Q 1384 2931 1121 2651 
Q 859 2372 844 1941 
L 2703 1941 
z
M 1753 3428 
L 1753 3428 
z
" transform="scale(0.015625)"/>
       <path id="Helvetica-20" transform="scale(0.015625)"/>
       <path id="Helvetica-28" d="M 1894 4666 
Q 1403 3713 1256 3263 
Q 1034 2578 1034 1681 
Q 1034 775 1288 25 
Q 1444 -438 1903 -1306 
L 1525 -1306 
Q 1069 -594 959 -397 
Q 850 -200 722 138 
Q 547 600 478 1125 
Q 444 1397 444 1644 
Q 444 2569 734 3291 
Q 919 3750 1503 4666 
L 1894 4666 
z
" transform="scale(0.015625)"/>
       <path id="Helvetica-64" d="M 769 1634 
Q 769 1097 997 734 
Q 1225 372 1728 372 
Q 2119 372 2370 708 
Q 2622 1044 2622 1672 
Q 2622 2306 2362 2611 
Q 2103 2916 1722 2916 
Q 1297 2916 1033 2591 
Q 769 2266 769 1634 
z
M 1616 3406 
Q 2000 3406 2259 3244 
Q 2409 3150 2600 2916 
L 2600 4606 
L 3141 4606 
L 3141 0 
L 2634 0 
L 2634 466 
Q 2438 156 2169 18 
Q 1900 -119 1553 -119 
Q 994 -119 584 351 
Q 175 822 175 1603 
Q 175 2334 548 2870 
Q 922 3406 1616 3406 
z
" transform="scale(0.015625)"/>
       <path id="Helvetica-72" d="M 428 3347 
L 963 3347 
L 963 2769 
Q 1028 2938 1284 3180 
Q 1541 3422 1875 3422 
Q 1891 3422 1928 3419 
Q 1966 3416 2056 3406 
L 2056 2813 
Q 2006 2822 1964 2825 
Q 1922 2828 1872 2828 
Q 1447 2828 1219 2554 
Q 991 2281 991 1925 
L 991 0 
L 428 0 
L 428 3347 
z
" transform="scale(0.015625)"/>
       <path id="Helvetica-73" d="M 747 1050 
Q 772 769 888 619 
Q 1100 347 1625 347 
Q 1938 347 2175 483 
Q 2413 619 2413 903 
Q 2413 1119 2222 1231 
Q 2100 1300 1741 1391 
L 1294 1503 
Q 866 1609 663 1741 
Q 300 1969 300 2372 
Q 300 2847 642 3140 
Q 984 3434 1563 3434 
Q 2319 3434 2653 2991 
Q 2863 2709 2856 2384 
L 2325 2384 
Q 2309 2575 2191 2731 
Q 1997 2953 1519 2953 
Q 1200 2953 1036 2831 
Q 872 2709 872 2509 
Q 872 2291 1088 2159 
Q 1213 2081 1456 2022 
L 1828 1931 
Q 2434 1784 2641 1647 
Q 2969 1431 2969 969 
Q 2969 522 2630 197 
Q 2291 -128 1597 -128 
Q 850 -128 539 211 
Q 228 550 206 1050 
L 747 1050 
z
M 1578 3428 
L 1578 3428 
z
" transform="scale(0.015625)"/>
       <path id="Helvetica-29" d="M 222 -1306 
Q 719 -338 863 106 
Q 1081 778 1081 1681 
Q 1081 2584 828 3334 
Q 672 3797 213 4666 
L 591 4666 
Q 1072 3897 1173 3717 
Q 1275 3538 1394 3222 
Q 1544 2831 1608 2450 
Q 1672 2069 1672 1716 
Q 1672 791 1378 66 
Q 1194 -400 613 -1306 
L 222 -1306 
z
" transform="scale(0.015625)"/>
      </defs>
      <use xlink:href="#Helvetica-41"/>
      <use xlink:href="#Helvetica-6e" x="66.699219"/>
      <use xlink:href="#Helvetica-67" x="122.314453"/>
      <use xlink:href="#Helvetica-6c" x="177.929688"/>
      <use xlink:href="#Helvetica-65" x="200.146484"/>
      <use xlink:href="#Helvetica-20" x="255.761719"/>
      <use xlink:href="#Helvetica-28" x="283.544922"/>
      <use xlink:href="#Helvetica-64" x="316.845703"/>
      <use xlink:href="#Helvetica-65" x="372.460938"/>
      <use xlink:href="#Helvetica-67" x="428.076172"/>
      <use xlink:href="#Helvetica-72" x="483.691406"/>
      <use xlink:href="#Helvetica-65" x="516.992188"/>
      <use xlink:href="#Helvetica-65" x="572.607422"/>
      <use xlink:href="#Helvetica-73" x="628.222656"/>
      <use xlink:href="#Helvetica-29" x="678.222656"/>
     </g>
    </g>
   </g>
   <g id="matplotlib.axis_2">
    <g id="ytick_1">
     <g id="line2d_5">
      <defs>
       <path id="m2e673bf598" d="M 0 0 
L -4.8 0 
" style="stroke: #000000"/>
      </defs>
      <g>
       <use xlink:href="#m2e673bf598" x="31.181102" y="151.370079" style="stroke: #000000"/>
      </g>
     </g>
     <g id="text_6">
      <!-- $\mathdefault{10^{-3}}$ -->
      <g transform="translate(5.721102 154.526391) scale(0.088 -0.088)">
       <defs>
        <path id="Helvetica-2212" d="M 3547 1894 
L 3547 1369 
L 288 1369 
L 288 1894 
L 3547 1894 
z
" transform="scale(0.015625)"/>
        <path id="Helvetica-33" d="M 1663 -122 
Q 869 -122 511 314 
Q 153 750 153 1375 
L 741 1375 
Q 778 941 903 744 
Q 1122 391 1694 391 
Q 2138 391 2406 628 
Q 2675 866 2675 1241 
Q 2675 1703 2392 1887 
Q 2109 2072 1606 2072 
Q 1550 2072 1492 2070 
Q 1434 2069 1375 2066 
L 1375 2563 
Q 1463 2553 1522 2550 
Q 1581 2547 1650 2547 
Q 1966 2547 2169 2647 
Q 2525 2822 2525 3272 
Q 2525 3606 2287 3787 
Q 2050 3969 1734 3969 
Q 1172 3969 956 3594 
Q 838 3388 822 3006 
L 266 3006 
Q 266 3506 466 3856 
Q 809 4481 1675 4481 
Q 2359 4481 2734 4176 
Q 3109 3872 3109 3294 
Q 3109 2881 2888 2625 
Q 2750 2466 2531 2375 
Q 2884 2278 3082 2001 
Q 3281 1725 3281 1325 
Q 3281 684 2859 281 
Q 2438 -122 1663 -122 
z
" transform="scale(0.015625)"/>
       </defs>
       <use xlink:href="#Helvetica-31" transform="translate(0 0.38125)"/>
       <use xlink:href="#Helvetica-30" transform="translate(55.615234 0.38125)"/>
       <use xlink:href="#Helvetica-2212" transform="translate(112.145664 36.989063) scale(0.7)"/>
       <use xlink:href="#Helvetica-33" transform="translate(153.02457 36.989063) scale(0.7)"/>
      </g>
     </g>
    </g>
    <g id="ytick_2">
     <g id="line2d_6">
      <g>
       <use xlink:href="#m2e673bf598" x="31.181102" y="107.716535" style="stroke: #000000"/>
      </g>
     </g>
     <g id="text_7">
      <!-- $\mathdefault{10^{-2}}$ -->
      <g transform="translate(5.721102 110.872848) scale(0.088 -0.088)">
       <defs>
        <path id="Helvetica-32" d="M 200 0 
Q 231 578 439 1006 
Q 647 1434 1250 1784 
L 1850 2131 
Q 2253 2366 2416 2531 
Q 2672 2791 2672 3125 
Q 2672 3516 2437 3745 
Q 2203 3975 1813 3975 
Q 1234 3975 1013 3538 
Q 894 3303 881 2888 
L 309 2888 
Q 319 3472 525 3841 
Q 891 4491 1816 4491 
Q 2584 4491 2939 4075 
Q 3294 3659 3294 3150 
Q 3294 2613 2916 2231 
Q 2697 2009 2131 1694 
L 1703 1456 
Q 1397 1288 1222 1134 
Q 909 863 828 531 
L 3272 531 
L 3272 0 
L 200 0 
z
" transform="scale(0.015625)"/>
       </defs>
       <use xlink:href="#Helvetica-31" transform="translate(0 0.271875)"/>
       <use xlink:href="#Helvetica-30" transform="translate(55.615234 0.271875)"/>
       <use xlink:href="#Helvetica-2212" transform="translate(112.145664 36.879688) scale(0.7)"/>
       <use xlink:href="#Helvetica-32" transform="translate(153.02457 36.879688) scale(0.7)"/>
      </g>
     </g>
    </g>
    <g id="ytick_3">
     <g id="line2d_7">
      <g>
       <use xlink:href="#m2e673bf598" x="31.181102" y="64.062992" style="stroke: #000000"/>
      </g>
     </g>
     <g id="text_8">
      <!-- $\mathdefault{10^{-1}}$ -->
      <g transform="translate(5.721102 67.219305) scale(0.088 -0.088)">
       <use xlink:href="#Helvetica-31" transform="translate(0 0.654688)"/>
       <use xlink:href="#Helvetica-30" transform="translate(55.615234 0.654688)"/>
       <use xlink:href="#Helvetica-2212" transform="translate(112.145664 37.2625) scale(0.7)"/>
       <use xlink:href="#Helvetica-31" transform="translate(153.02457 37.2625) scale(0.7)"/>
      </g>
     </g>
    </g>
    <g id="ytick_4">
     <g id="line2d_8">
      <g>
       <use xlink:href="#m2e673bf598" x="31.181102" y="20.409449" style="stroke: #000000"/>
      </g>
     </g>
     <g id="text_9">
      <!-- $\mathdefault{10^{0}}$ -->
      <g transform="translate(9.329102 23.565761) scale(0.088 -0.088)">
       <use xlink:href="#Helvetica-31" transform="translate(0 0.446875)"/>
       <use xlink:href="#Helvetica-30" transform="translate(55.615234 0.446875)"/>
       <use xlink:href="#Helvetica-30" transform="translate(112.145664 37.054688) scale(0.7)"/>
      </g>
     </g>
    </g>
    <g id="ytick_5">
     <g id="line2d_9">
      <defs>
       <path id="mfd424158a2" d="M 0 0 
L -3.2 0 
" style="stroke: #000000; stroke-width: 0.8"/>
      </defs>
      <g>
       <use xlink:href="#mfd424158a2" x="31.181102" y="138.229053" style="stroke: #000000; stroke-width: 0.8"/>
      </g>
     </g>
    </g>
    <g id="ytick_6">
     <g id="line2d_10">
      <g>
       <use xlink:href="#mfd424158a2" x="31.181102" y="130.542045" style="stroke: #000000; stroke-width: 0.8"/>
      </g>
     </g>
    </g>
    <g id="ytick_7">
     <g id="line2d_11">
      <g>
       <use xlink:href="#mfd424158a2" x="31.181102" y="125.088027" style="stroke: #000000; stroke-width: 0.8"/>
      </g>
     </g>
    </g>
    <g id="ytick_8">
     <g id="line2d_12">
      <g>
       <use xlink:href="#mfd424158a2" x="31.181102" y="120.857561" style="stroke: #000000; stroke-width: 0.8"/>
      </g>
     </g>
    </g>
    <g id="ytick_9">
     <g id="line2d_13">
      <g>
       <use xlink:href="#mfd424158a2" x="31.181102" y="117.401019" style="stroke: #000000; stroke-width: 0.8"/>
      </g>
     </g>
    </g>
    <g id="ytick_10">
     <g id="line2d_14">
      <g>
       <use xlink:href="#mfd424158a2" x="31.181102" y="114.478555" style="stroke: #000000; stroke-width: 0.8"/>
      </g>
     </g>
    </g>
    <g id="ytick_11">
     <g id="line2d_15">
      <g>
       <use xlink:href="#mfd424158a2" x="31.181102" y="111.947001" style="stroke: #000000; stroke-width: 0.8"/>
      </g>
     </g>
    </g>
    <g id="ytick_12">
     <g id="line2d_16">
      <g>
       <use xlink:href="#mfd424158a2" x="31.181102" y="109.714012" style="stroke: #000000; stroke-width: 0.8"/>
      </g>
     </g>
    </g>
    <g id="ytick_13">
     <g id="line2d_17">
      <g>
       <use xlink:href="#mfd424158a2" x="31.181102" y="94.575509" style="stroke: #000000; stroke-width: 0.8"/>
      </g>
     </g>
    </g>
    <g id="ytick_14">
     <g id="line2d_18">
      <g>
       <use xlink:href="#mfd424158a2" x="31.181102" y="86.888502" style="stroke: #000000; stroke-width: 0.8"/>
      </g>
     </g>
    </g>
    <g id="ytick_15">
     <g id="line2d_19">
      <g>
       <use xlink:href="#mfd424158a2" x="31.181102" y="81.434484" style="stroke: #000000; stroke-width: 0.8"/>
      </g>
     </g>
    </g>
    <g id="ytick_16">
     <g id="line2d_20">
      <g>
       <use xlink:href="#mfd424158a2" x="31.181102" y="77.204018" style="stroke: #000000; stroke-width: 0.8"/>
      </g>
     </g>
    </g>
    <g id="ytick_17">
     <g id="line2d_21">
      <g>
       <use xlink:href="#mfd424158a2" x="31.181102" y="73.747476" style="stroke: #000000; stroke-width: 0.8"/>
      </g>
     </g>
    </g>
    <g id="ytick_18">
     <g id="line2d_22">
      <g>
       <use xlink:href="#mfd424158a2" x="31.181102" y="70.825012" style="stroke: #000000; stroke-width: 0.8"/>
      </g>
     </g>
    </g>
    <g id="ytick_19">
     <g id="line2d_23">
      <g>
       <use xlink:href="#mfd424158a2" x="31.181102" y="68.293458" style="stroke: #000000; stroke-width: 0.8"/>
      </g>
     </g>
    </g>
    <g id="ytick_20">
     <g id="line2d_24">
      <g>
       <use xlink:href="#mfd424158a2" x="31.181102" y="66.060469" style="stroke: #000000; stroke-width: 0.8"/>
      </g>
     </g>
    </g>
    <g id="ytick_21">
     <g id="line2d_25">
      <g>
       <use xlink:href="#mfd424158a2" x="31.181102" y="50.921966" style="stroke: #000000; stroke-width: 0.8"/>
      </g>
     </g>
    </g>
    <g id="ytick_22">
     <g id="line2d_26">
      <g>
       <use xlink:href="#mfd424158a2" x="31.181102" y="43.234959" style="stroke: #000000; stroke-width: 0.8"/>
      </g>
     </g>
    </g>
    <g id="ytick_23">
     <g id="line2d_27">
      <g>
       <use xlink:href="#mfd424158a2" x="31.181102" y="37.78094" style="stroke: #000000; stroke-width: 0.8"/>
      </g>
     </g>
    </g>
    <g id="ytick_24">
     <g id="line2d_28">
      <g>
       <use xlink:href="#mfd424158a2" x="31.181102" y="33.550475" style="stroke: #000000; stroke-width: 0.8"/>
      </g>
     </g>
    </g>
    <g id="ytick_25">
     <g id="line2d_29">
      <g>
       <use xlink:href="#mfd424158a2" x="31.181102" y="30.093933" style="stroke: #000000; stroke-width: 0.8"/>
      </g>
     </g>
    </g>
    <g id="ytick_26">
     <g id="line2d_30">
      <g>
       <use xlink:href="#mfd424158a2" x="31.181102" y="27.171468" style="stroke: #000000; stroke-width: 0.8"/>
      </g>
     </g>
    </g>
    <g id="ytick_27">
     <g id="line2d_31">
      <g>
       <use xlink:href="#mfd424158a2" x="31.181102" y="24.639914" style="stroke: #000000; stroke-width: 0.8"/>
      </g>
     </g>
    </g>
    <g id="ytick_28">
     <g id="line2d_32">
      <g>
       <use xlink:href="#mfd424158a2" x="31.181102" y="22.406925" style="stroke: #000000; stroke-width: 0.8"/>
      </g>
     </g>
    </g>
    <g id="text_10">
     <!-- Frequency -->
     <g transform="translate(-0.208273 107.148748) rotate(-90) scale(0.09 -0.09)">
      <defs>
       <path id="Helvetica-46" d="M 547 4591 
L 3731 4591 
L 3731 4028 
L 1169 4028 
L 1169 2634 
L 3422 2634 
L 3422 2088 
L 1169 2088 
L 1169 0 
L 547 0 
L 547 4591 
z
" transform="scale(0.015625)"/>
       <path id="Helvetica-71" d="M 775 1628 
Q 775 1194 897 900 
Q 1113 378 1669 378 
Q 2256 378 2478 928 
Q 2600 1231 2600 1703 
Q 2600 2138 2466 2428 
Q 2238 2925 1663 2925 
Q 1297 2925 1036 2608 
Q 775 2291 775 1628 
z
M 1606 3422 
Q 2022 3422 2306 3213 
Q 2463 3100 2606 2881 
L 2606 3347 
L 3141 3347 
L 3141 -1334 
L 2575 -1334 
L 2575 384 
Q 2434 159 2186 26 
Q 1938 -106 1566 -106 
Q 1031 -106 609 312 
Q 188 731 188 1588 
Q 188 2391 583 2906 
Q 978 3422 1606 3422 
z
" transform="scale(0.015625)"/>
       <path id="Helvetica-75" d="M 975 3347 
L 975 1125 
Q 975 869 1056 706 
Q 1206 406 1616 406 
Q 2203 406 2416 931 
Q 2531 1213 2531 1703 
L 2531 3347 
L 3094 3347 
L 3094 0 
L 2563 0 
L 2569 494 
Q 2459 303 2297 172 
Q 1975 -91 1516 -91 
Q 800 -91 541 388 
Q 400 644 400 1072 
L 400 3347 
L 975 3347 
z
M 1747 3428 
L 1747 3428 
z
" transform="scale(0.015625)"/>
       <path id="Helvetica-63" d="M 1703 3444 
Q 2269 3444 2623 3169 
Q 2978 2894 3050 2222 
L 2503 2222 
Q 2453 2531 2275 2736 
Q 2097 2941 1703 2941 
Q 1166 2941 934 2416 
Q 784 2075 784 1575 
Q 784 1072 996 728 
Q 1209 384 1666 384 
Q 2016 384 2220 598 
Q 2425 813 2503 1184 
L 3050 1184 
Q 2956 519 2581 211 
Q 2206 -97 1622 -97 
Q 966 -97 575 383 
Q 184 863 184 1581 
Q 184 2463 612 2953 
Q 1041 3444 1703 3444 
z
M 1616 3428 
L 1616 3428 
z
" transform="scale(0.015625)"/>
       <path id="Helvetica-79" d="M 2503 3347 
L 3125 3347 
Q 3006 3025 2597 1878 
Q 2291 1016 2084 472 
Q 1597 -809 1397 -1090 
Q 1197 -1372 709 -1372 
Q 591 -1372 527 -1362 
Q 463 -1353 369 -1328 
L 369 -816 
Q 516 -856 581 -865 
Q 647 -875 697 -875 
Q 853 -875 926 -823 
Q 1000 -772 1050 -697 
Q 1066 -672 1162 -440 
Q 1259 -209 1303 -97 
L 66 3347 
L 703 3347 
L 1600 622 
L 2503 3347 
z
M 1597 3428 
L 1597 3428 
z
" transform="scale(0.015625)"/>
      </defs>
      <use xlink:href="#Helvetica-46"/>
      <use xlink:href="#Helvetica-72" x="61.083984"/>
      <use xlink:href="#Helvetica-65" x="94.384766"/>
      <use xlink:href="#Helvetica-71" x="150"/>
      <use xlink:href="#Helvetica-75" x="205.615234"/>
      <use xlink:href="#Helvetica-65" x="261.230469"/>
      <use xlink:href="#Helvetica-6e" x="316.845703"/>
      <use xlink:href="#Helvetica-63" x="372.460938"/>
      <use xlink:href="#Helvetica-79" x="422.460938"/>
     </g>
    </g>
   </g>
   <g id="line2d_33">
    <path d="M 87.01985 151.370079 
L 87.01985 46.601575 
" clip-path="url(#p3c2e71465c)" style="fill: none; stroke-dasharray: 4.44,1.92; stroke-dashoffset: 0; stroke: #35193e; stroke-width: 1.2"/>
   </g>
   <g id="line2d_34">
    <path d="M 39.968504 49.389457 
L 40.498691 46.385825 
L 41.028878 44.036108 
L 41.559065 42.282252 
L 42.089253 41.06288 
L 42.61944 40.314601 
L 43.149627 39.973391 
L 43.679814 39.975849 
L 44.210001 40.26018 
L 44.740188 40.766967 
L 45.800563 42.227513 
L 53.223183 54.37614 
L 55.343932 58.425778 
L 57.46468 62.4673 
L 59.055242 65.030427 
L 63.296739 71.314183 
L 68.598611 80.07056 
L 72.309921 85.49381 
L 73.900482 88.291107 
L 78.14198 96.215841 
L 79.732541 99.052136 
L 81.323103 102.480345 
L 82.913664 105.900715 
L 83.974038 107.691844 
L 86.094787 110.49601 
L 87.685349 112.772612 
L 89.806097 116.351088 
L 91.926846 119.923635 
L 95.638156 125.633384 
L 96.69853 127.803891 
L 98.289092 131.763906 
L 100.409841 137.347262 
L 101.470215 139.646612 
L 103.060776 142.381085 
L 104.651338 145.077675 
L 105.711712 147.310998 
L 108.892835 154.815908 
L 109.95321 156.317526 
L 110.483397 156.763501 
L 111.013584 157.019806 
L 111.543771 157.113928 
L 113.66452 157.061475 
L 114.194707 157.354191 
L 114.724894 157.92232 
L 115.255081 158.80119 
L 116.315455 161.434448 
L 118.436204 167.818906 
L 119.496578 170.167634 
L 119.986042 171.07874 
L 119.986042 171.07874 
" clip-path="url(#p3c2e71465c)" style="fill: none; stroke: #35193e; stroke-width: 1.2; stroke-linecap: square"/>
   </g>
   <g id="line2d_35">
    <path d="M 108.831249 151.370079 
L 108.831249 59.697638 
" clip-path="url(#p3c2e71465c)" style="fill: none; stroke-dasharray: 4.44,1.92; stroke-dashoffset: 0; stroke: #ad1759; stroke-width: 1.2"/>
   </g>
   <g id="line2d_36">
    <path d="M 39.968504 57.47209 
L 41.241965 53.044819 
L 41.878696 51.458741 
L 42.515426 50.251598 
L 43.152157 49.390116 
L 43.788888 48.838287 
L 44.425618 48.557854 
L 45.062349 48.50911 
L 45.699079 48.652043 
L 46.972541 49.359993 
L 48.246002 50.41149 
L 50.792924 52.892456 
L 53.976577 56.298771 
L 60.980614 64.126392 
L 73.078496 76.866147 
L 75.625418 79.320767 
L 87.086569 89.400048 
L 94.727336 95.566829 
L 97.274259 98.139374 
L 99.821181 100.712673 
L 101.731373 102.36001 
L 105.551756 105.477739 
L 106.825218 106.806519 
L 108.73541 109.197537 
L 114.465985 116.895334 
L 116.376177 119.522279 
L 118.923099 123.580682 
L 120.833291 126.533982 
L 122.743483 128.970752 
L 127.200597 134.135734 
L 128.474058 135.98793 
L 130.38425 139.263478 
L 136.751556 151.214974 
L 138.661748 154.041317 
L 139.935209 155.509927 
L 141.20867 156.534821 
L 142.482132 157.128958 
L 144.392324 157.771406 
L 145.029054 158.137571 
L 145.665785 158.677408 
L 146.302515 159.439232 
L 146.939246 160.458542 
L 147.575977 161.7552 
L 148.849438 165.168159 
L 150.578729 171.07874 
L 150.578729 171.07874 
" clip-path="url(#p3c2e71465c)" style="fill: none; stroke: #ad1759; stroke-width: 1.2; stroke-linecap: square"/>
   </g>
   <g id="line2d_37">
    <path d="M 126.981834 151.370079 
L 126.981834 72.793701 
" clip-path="url(#p3c2e71465c)" style="fill: none; stroke-dasharray: 4.44,1.92; stroke-dashoffset: 0; stroke: #f37651; stroke-width: 1.2"/>
   </g>
   <g id="line2d_38">
    <path d="M 39.968504 65.278599 
L 40.835751 62.614498 
L 41.702997 60.442807 
L 42.570244 58.724819 
L 43.437491 57.418151 
L 44.304738 56.477371 
L 45.171985 55.855038 
L 46.039231 55.503157 
L 46.906478 55.374948 
L 47.773725 55.426707 
L 49.508218 55.920216 
L 51.242712 56.744823 
L 53.844452 58.296835 
L 65.11866 65.44902 
L 76.392868 72.345859 
L 79.861855 74.800833 
L 83.330842 77.581512 
L 86.799829 80.616867 
L 97.20679 90.097293 
L 101.543024 93.39669 
L 107.613752 97.953299 
L 111.082739 100.893224 
L 113.684479 103.386375 
L 117.153466 107.100099 
L 121.4897 111.708704 
L 124.09144 114.551054 
L 125.825934 116.750494 
L 127.560427 119.291664 
L 130.162168 123.658852 
L 134.498401 131.292345 
L 136.232895 133.953437 
L 137.967388 136.151549 
L 139.701882 137.853503 
L 141.436375 139.155029 
L 146.639856 142.576395 
L 148.37435 144.225908 
L 150.108843 146.305375 
L 155.312324 153.30446 
L 157.046817 154.960829 
L 157.914064 155.568965 
L 159.648558 156.391459 
L 163.984791 157.720248 
L 164.852038 158.201109 
L 165.719285 158.830252 
L 166.586532 159.616586 
L 168.321025 161.623021 
L 170.922765 165.29411 
L 173.524506 168.961815 
L 175.254426 171.07874 
L 175.254426 171.07874 
" clip-path="url(#p3c2e71465c)" style="fill: none; stroke: #f37651; stroke-width: 1.2; stroke-linecap: square"/>
   </g>
   <g id="patch_93">
    <path d="M 31.181102 151.370079 
L 31.181102 20.409449 
" style="fill: none; stroke: #000000; stroke-linejoin: miter; stroke-linecap: square"/>
   </g>
   <g id="patch_94">
    <path d="M 31.181102 151.370079 
L 224.503937 151.370079 
" style="fill: none; stroke: #000000; stroke-linejoin: miter; stroke-linecap: square"/>
   </g>
   <g id="legend_1">
    <g id="patch_95">
     <path d="M 139.383625 40.556793 
L 218.203937 40.556793 
Q 220.003937 40.556793 220.003937 38.756793 
L 220.003937 26.709449 
Q 220.003937 24.909449 218.203937 24.909449 
L 139.383625 24.909449 
Q 137.583625 24.909449 137.583625 26.709449 
L 137.583625 38.756793 
Q 137.583625 40.556793 139.383625 40.556793 
z
" style="fill: #ffffff; opacity: 0.8; stroke: #cccccc; stroke-width: 0.8; stroke-linejoin: miter"/>
    </g>
    <g id="line2d_39">
     <path d="M 141.183625 31.815543 
L 150.183625 31.815543 
L 159.183625 31.815543 
" style="fill: none; stroke-dasharray: 4.44,1.92; stroke-dashoffset: 0; stroke: #35193e; stroke-width: 1.2"/>
    </g>
    <g id="text_11">
     <!-- critical angle -->
     <g transform="translate(166.383625 34.965543) scale(0.09 -0.09)">
      <defs>
       <path id="Helvetica-69" d="M 413 3331 
L 984 3331 
L 984 0 
L 413 0 
L 413 3331 
z
M 413 4591 
L 984 4591 
L 984 3953 
L 413 3953 
L 413 4591 
z
" transform="scale(0.015625)"/>
       <path id="Helvetica-74" d="M 525 4281 
L 1094 4281 
L 1094 3347 
L 1628 3347 
L 1628 2888 
L 1094 2888 
L 1094 703 
Q 1094 528 1213 469 
Q 1278 434 1431 434 
Q 1472 434 1519 436 
Q 1566 438 1628 444 
L 1628 0 
Q 1531 -28 1426 -40 
Q 1322 -53 1200 -53 
Q 806 -53 665 148 
Q 525 350 525 672 
L 525 2888 
L 72 2888 
L 72 3347 
L 525 3347 
L 525 4281 
z
" transform="scale(0.015625)"/>
       <path id="Helvetica-61" d="M 844 891 
Q 844 647 1022 506 
Q 1200 366 1444 366 
Q 1741 366 2019 503 
Q 2488 731 2488 1250 
L 2488 1703 
Q 2384 1638 2221 1594 
Q 2059 1550 1903 1531 
L 1563 1488 
Q 1256 1447 1103 1359 
Q 844 1213 844 891 
z
M 2206 2028 
Q 2400 2053 2466 2191 
Q 2503 2266 2503 2406 
Q 2503 2694 2298 2823 
Q 2094 2953 1713 2953 
Q 1272 2953 1088 2716 
Q 984 2584 953 2325 
L 428 2325 
Q 444 2944 830 3186 
Q 1216 3428 1725 3428 
Q 2316 3428 2684 3203 
Q 3050 2978 3050 2503 
L 3050 575 
Q 3050 488 3086 434 
Q 3122 381 3238 381 
Q 3275 381 3322 386 
Q 3369 391 3422 400 
L 3422 -16 
Q 3291 -53 3222 -62 
Q 3153 -72 3034 -72 
Q 2744 -72 2613 134 
Q 2544 244 2516 444 
Q 2344 219 2022 53 
Q 1700 -113 1313 -113 
Q 847 -113 551 170 
Q 256 453 256 878 
Q 256 1344 547 1600 
Q 838 1856 1309 1916 
L 2206 2028 
z
M 1741 3428 
L 1741 3428 
z
" transform="scale(0.015625)"/>
      </defs>
      <use xlink:href="#Helvetica-63"/>
      <use xlink:href="#Helvetica-72" x="50"/>
      <use xlink:href="#Helvetica-69" x="83.300781"/>
      <use xlink:href="#Helvetica-74" x="105.517578"/>
      <use xlink:href="#Helvetica-69" x="133.300781"/>
      <use xlink:href="#Helvetica-63" x="155.517578"/>
      <use xlink:href="#Helvetica-61" x="205.517578"/>
      <use xlink:href="#Helvetica-6c" x="261.132812"/>
      <use xlink:href="#Helvetica-20" x="283.349609"/>
      <use xlink:href="#Helvetica-61" x="311.132812"/>
      <use xlink:href="#Helvetica-6e" x="366.748047"/>
      <use xlink:href="#Helvetica-67" x="422.363281"/>
      <use xlink:href="#Helvetica-6c" x="477.978516"/>
      <use xlink:href="#Helvetica-65" x="500.195312"/>
     </g>
    </g>
   </g>
  </g>
 </g>
 <defs>
  <clipPath id="p3c2e71465c">
   <rect x="31.181102" y="20.409449" width="193.322835" height="130.96063"/>
  </clipPath>
 </defs>
</svg>
